<ttFont>
    <TTGlyph name="A" xMin="7" yMin="0" xMax="1311" yMax="1456">
      <contour>
        <pt x="888" y="283" on="1"/>
        <pt x="429" y="283" on="1"/>
        <pt x="347" y="0" on="1"/>
        <pt x="7" y="0" on="1"/>
        <pt x="477" y="1456" on="1"/>
        <pt x="840" y="1456" on="1"/>
        <pt x="1311" y="0" on="1"/>
        <pt x="971" y="0" on="1"/>
      </contour>
      <contour>
        <pt x="504" y="543" on="1"/>
        <pt x="813" y="543" on="1"/>
        <pt x="661" y="1064" on="1"/>
        <pt x="655" y="1064" on="1"/>
      </contour>
    </TTGlyph>
    <TTGlyph name="A.smcp" xMin="4" yMin="0" xMax="1267" yMax="1165">
      <contour>
        <pt x="848" y="176" on="1"/>
        <pt x="423" y="176" on="1"/>
        <pt x="363" y="0" on="1"/>
        <pt x="4" y="0" on="1"/>
        <pt x="446" y="1165" on="1"/>
        <pt x="826" y="1165" on="1"/>
        <pt x="1267" y="0" on="1"/>
        <pt x="909" y="0" on="1"/>
      </contour>
      <contour>
        <pt x="512" y="435" on="1"/>
        <pt x="758" y="435" on="1"/>
        <pt x="637" y="782" on="1"/>
        <pt x="631" y="782" on="1"/>
      </contour>
    </TTGlyph>
    <TTGlyph name="AE" xMin="16" yMin="0" xMax="1851" yMax="1456">
      <contour>
        <pt x="1851" y="0" on="1"/>
        <pt x="954" y="0" on="1"/>
        <pt x="940" y="329" on="1"/>
        <pt x="558" y="329" on="1"/>
        <pt x="406" y="0" on="1"/>
        <pt x="16" y="0" on="1"/>
        <pt x="751" y="1456" on="1"/>
        <pt x="1790" y="1456" on="1"/>
        <pt x="1790" y="1192" on="1"/>
        <pt x="1241" y="1192" on="1"/>
        <pt x="1254" y="876" on="1"/>
        <pt x="1709" y="876" on="1"/>
        <pt x="1709" y="612" on="1"/>
        <pt x="1265" y="612" on="1"/>
        <pt x="1280" y="264" on="1"/>
        <pt x="1851" y="264" on="1"/>
      </contour>
      <contour>
        <pt x="683" y="599" on="1"/>
        <pt x="929" y="599" on="1"/>
        <pt x="909" y="1072" on="1"/>
        <pt x="903" y="1073" on="1"/>
      </contour>
    </TTGlyph>
    <TTGlyph name="AEacute" xMin="16" yMin="0" xMax="1851" yMax="1827">
      <component glyphName="AE" x="0" y="0" flags="0x204"/>
      <component glyphName="acute" x="660" y="349" flags="0x4"/>
    </TTGlyph>
    <TTGlyph name="Aacute" xMin="7" yMin="0" xMax="1311" yMax="1827">
      <component glyphName="A" x="0" y="0" flags="0x204"/>
      <component glyphName="acute" x="374" y="349" flags="0x4"/>
    </TTGlyph>
    <TTGlyph name="Aacute.smcp" xMin="4" yMin="0" xMax="1267" yMax="1504">
      <component glyphName="A.smcp" x="0" y="0" flags="0x204"/>
      <component glyphName="acute" x="355" y="26" flags="0x4"/>
    </TTGlyph>
    <TTGlyph name="Abreve" xMin="7" yMin="0" xMax="1311" yMax="1908">
      <component glyphName="A" x="0" y="0" flags="0x204"/>
      <component glyphName="breve" x="184" y="452" flags="0x4"/>
    </TTGlyph>
    <TTGlyph name="Abreve.smcp" xMin="4" yMin="0" xMax="1267" yMax="1585">
      <component glyphName="A.smcp" x="0" y="0" flags="0x204"/>
      <component glyphName="breve" x="165" y="129" flags="0x4"/>
    </TTGlyph>
    <TTGlyph name="Acircumflex" xMin="7" yMin="0" xMax="1311" yMax="1853">
      <component glyphName="A" x="0" y="0" flags="0x204"/>
      <component glyphName="circumflex" x="131" y="335" flags="0x4"/>
    </TTGlyph>
    <TTGlyph name="Acircumflex.smcp" xMin="4" yMin="0" xMax="1267" yMax="1530">
      <component glyphName="A.smcp" x="0" y="0" flags="0x204"/>
      <component glyphName="circumflex" x="112" y="12" flags="0x4"/>
    </TTGlyph>
    <TTGlyph name="Adieresis" xMin="7" yMin="0" xMax="1311" yMax="1805">
      <component glyphName="A" x="0" y="0" flags="0x204"/>
      <component glyphName="dieresis" x="97" y="349" flags="0x4"/>
    </TTGlyph>
    <TTGlyph name="Adieresis.smcp" xMin="4" yMin="0" xMax="1267" yMax="1482">
      <component glyphName="A.smcp" x="0" y="0" flags="0x204"/>
      <component glyphName="dieresis" x="78" y="26" flags="0x4"/>
    </TTGlyph>
    <TTGlyph name="Agrave" xMin="7" yMin="0" xMax="1311" yMax="1825">
      <component glyphName="A" x="0" y="0" flags="0x204"/>
      <component glyphName="grave" x="196" y="347" flags="0x4"/>
    </TTGlyph>
    <TTGlyph name="Agrave.smcp" xMin="4" yMin="0" xMax="1267" yMax="1502">
      <component glyphName="A.smcp" x="0" y="0" flags="0x204"/>
      <component glyphName="grave" x="177" y="24" flags="0x4"/>
    </TTGlyph>
    <TTGlyph name="Alpha" xMin="7" yMin="0" xMax="1311" yMax="1456">
      <component glyphName="A" x="0" y="0" flags="0x204"/>
    </TTGlyph>
    <TTGlyph name="Alphatonos" xMin="7" yMin="0" xMax="1311" yMax="1618">
      <component glyphName="A" x="0" y="0" flags="0x204"/>
      <component glyphName="tonos" x="-226" y="0" flags="0x4"/>
    </TTGlyph>
    <TTGlyph name="Amacron" xMin="7" yMin="0" xMax="1311" yMax="1774">
      <component glyphName="A" x="0" y="0" flags="0x204"/>
      <component glyphName="macron" x="119" y="316" flags="0x4"/>
    </TTGlyph>
    <TTGlyph name="Amacron.smcp" xMin="4" yMin="0" xMax="1267" yMax="1453">
      <component glyphName="A.smcp" x="0" y="0" flags="0x204"/>
      <component glyphName="macron" x="100" y="-5" flags="0x4"/>
    </TTGlyph>
    <TTGlyph name="Aogonek" xMin="7" yMin="-417" xMax="1323" yMax="1456">
      <component glyphName="A" x="0" y="0" flags="0x204"/>
      <component glyphName="ogonek" x="784" y="0" flags="0x4"/>
    </TTGlyph>
    <TTGlyph name="Aogonek.smcp" xMin="4" yMin="-417" xMax="1279" yMax="1165">
      <component glyphName="A.smcp" x="0" y="0" flags="0x204"/>
      <component glyphName="ogonek" x="740" y="0" flags="0x4"/>
    </TTGlyph>
    <TTGlyph name="Aring" xMin="7" yMin="0" xMax="1311" yMax="1934">
      <component glyphName="A" x="0" y="0" flags="0x204"/>
      <component glyphName="ring" x="307" y="447" flags="0x4"/>
    </TTGlyph>
    <TTGlyph name="Aring.smcp" xMin="4" yMin="0" xMax="1267" yMax="1611">
      <component glyphName="A.smcp" x="0" y="0" flags="0x204"/>
      <component glyphName="ring" x="288" y="124" flags="0x4"/>
    </TTGlyph>
    <TTGlyph name="Aringacute" xMin="7" yMin="0" xMax="1311" yMax="2169">
      <component glyphName="A" x="0" y="0" flags="0x204"/>
      <component glyphName="ringacute" x="291" y="387" flags="0x4"/>
    </TTGlyph>
    <TTGlyph name="Aringacute.smcp" xMin="4" yMin="0" xMax="1267" yMax="1846">
      <component glyphName="A.smcp" x="0" y="0" flags="0x204"/>
      <component glyphName="ringacute" x="272" y="64" flags="0x4"/>
    </TTGlyph>
    <TTGlyph name="Atilde" xMin="7" yMin="0" xMax="1311" yMax="1912">
      <component glyphName="A" x="0" y="0" flags="0x204"/>
      <component glyphName="tilde" x="148" y="381" flags="0x4"/>
    </TTGlyph>
    <TTGlyph name="Atilde.smcp" xMin="4" yMin="0" xMax="1267" yMax="1589">
      <component glyphName="A.smcp" x="0" y="0" flags="0x204"/>
      <component glyphName="tilde" x="129" y="58" flags="0x4"/>
    </TTGlyph>
    <TTGlyph name="B" xMin="114" yMin="0" xMax="1239" yMax="1456">
      <contour>
        <pt x="114" y="0" on="1"/>
        <pt x="114" y="1456" on="1"/>
        <pt x="614" y="1456" on="1"/>
        <pt x="885" y="1456" on="0"/>
        <pt x="1189" y="1255" on="0"/>
        <pt x="1189" y="1056" on="1"/>
        <pt x="1189" y="952" on="0"/>
        <pt x="1091" y="790" on="0"/>
        <pt x="989" y="749" on="1"/>
        <pt x="1117" y="720" on="0"/>
        <pt x="1239" y="545" on="0"/>
        <pt x="1239" y="431" on="1"/>
        <pt x="1239" y="218" on="0"/>
        <pt x="953" y="0" on="0"/>
        <pt x="686" y="0" on="1"/>
      </contour>
      <contour>
        <pt x="453" y="625" on="1"/>
        <pt x="453" y="260" on="1"/>
        <pt x="686" y="260" on="1"/>
        <pt x="794" y="260" on="0"/>
        <pt x="902" y="345" on="0"/>
        <pt x="902" y="433" on="1"/>
        <pt x="902" y="528" on="0"/>
        <pt x="809" y="625" on="0"/>
        <pt x="705" y="625" on="1"/>
      </contour>
      <contour>
        <pt x="453" y="849" on="1"/>
        <pt x="621" y="849" on="1"/>
        <pt x="736" y="851" on="0"/>
        <pt x="850" y="936" on="0"/>
        <pt x="850" y="1018" on="1"/>
        <pt x="850" y="1111" on="0"/>
        <pt x="734" y="1196" on="0"/>
        <pt x="614" y="1196" on="1"/>
        <pt x="453" y="1196" on="1"/>
      </contour>
    </TTGlyph>
    <TTGlyph name="B.smcp" xMin="118" yMin="0" xMax="1140" yMax="1165">
      <contour>
        <pt x="118" y="0" on="1"/>
        <pt x="118" y="1165" on="1"/>
        <pt x="616" y="1165" on="1"/>
        <pt x="832" y="1165" on="0"/>
        <pt x="1076" y="1001" on="0"/>
        <pt x="1076" y="841" on="1"/>
        <pt x="1076" y="758" on="0"/>
        <pt x="966" y="628" on="0"/>
        <pt x="865" y="595" on="1"/>
        <pt x="1002" y="570" on="0"/>
        <pt x="1140" y="428" on="0"/>
        <pt x="1140" y="330" on="1"/>
        <pt x="1140" y="166" on="0"/>
        <pt x="908" y="0" on="0"/>
        <pt x="685" y="0" on="1"/>
      </contour>
      <contour>
        <pt x="455" y="483" on="1"/>
        <pt x="455" y="258" on="1"/>
        <pt x="685" y="258" on="1"/>
        <pt x="752" y="258" on="0"/>
        <pt x="804" y="305" on="0"/>
        <pt x="804" y="359" on="1"/>
        <pt x="804" y="424" on="0"/>
        <pt x="752" y="483" on="0"/>
        <pt x="685" y="483" on="1"/>
      </contour>
      <contour>
        <pt x="455" y="691" on="1"/>
        <pt x="616" y="691" on="1"/>
        <pt x="677" y="691" on="0"/>
        <pt x="739" y="740" on="0"/>
        <pt x="739" y="788" on="1"/>
        <pt x="739" y="850" on="0"/>
        <pt x="678" y="907" on="0"/>
        <pt x="616" y="907" on="1"/>
        <pt x="455" y="907" on="1"/>
      </contour>
    </TTGlyph>
    <TTGlyph name="Beta" xMin="114" yMin="0" xMax="1239" yMax="1456">
      <component glyphName="B" x="0" y="0" flags="0x204"/>
    </TTGlyph>
    <TTGlyph name="C" xMin="80" yMin="-21" xMax="1252" yMax="1477">
      <contour>
        <pt x="1248" y="511" on="1"/>
        <pt x="1250" y="505" on="1"/>
        <pt x="1240" y="249" on="0"/>
        <pt x="957" y="-21" on="0"/>
        <pt x="688" y="-21" on="1"/>
        <pt x="418" y="-21" on="0"/>
        <pt x="80" y="311" on="0"/>
        <pt x="80" y="576" on="1"/>
        <pt x="80" y="880" on="1"/>
        <pt x="80" y="1144" on="0"/>
        <pt x="405" y="1477" on="0"/>
        <pt x="665" y="1477" on="1"/>
        <pt x="941" y="1477" on="0"/>
        <pt x="1233" y="1199" on="0"/>
        <pt x="1252" y="943" on="1"/>
        <pt x="1250" y="937" on="1"/>
        <pt x="921" y="937" on="1"/>
        <pt x="914" y="1079" on="0"/>
        <pt x="801" y="1217" on="0"/>
        <pt x="665" y="1217" on="1"/>
        <pt x="550" y="1217" on="0"/>
        <pt x="418" y="1032" on="0"/>
        <pt x="418" y="882" on="1"/>
        <pt x="418" y="576" on="1"/>
        <pt x="418" y="425" on="0"/>
        <pt x="562" y="239" on="0"/>
        <pt x="688" y="239" on="1"/>
        <pt x="810" y="239" on="0"/>
        <pt x="912" y="369" on="0"/>
        <pt x="919" y="511" on="1"/>
      </contour>
    </TTGlyph>
    <TTGlyph name="C.smcp" xMin="87" yMin="-17" xMax="1092" yMax="1181">
      <contour>
        <pt x="1083" y="406" on="1"/>
        <pt x="1085" y="400" on="1"/>
        <pt x="1090" y="192" on="0"/>
        <pt x="844" y="-17" on="0"/>
        <pt x="599" y="-17" on="1"/>
        <pt x="364" y="-17" on="0"/>
        <pt x="87" y="246" on="0"/>
        <pt x="87" y="461" on="1"/>
        <pt x="87" y="704" on="1"/>
        <pt x="87" y="918" on="0"/>
        <pt x="364" y="1181" on="0"/>
        <pt x="599" y="1181" on="1"/>
        <pt x="843" y="1181" on="0"/>
        <pt x="1092" y="972" on="0"/>
        <pt x="1087" y="767" on="1"/>
        <pt x="1085" y="761" on="1"/>
        <pt x="758" y="761" on="1"/>
        <pt x="758" y="853" on="0"/>
        <pt x="695" y="924" on="0"/>
        <pt x="599" y="924" on="1"/>
        <pt x="508" y="924" on="0"/>
        <pt x="424" y="807" on="0"/>
        <pt x="424" y="705" on="1"/>
        <pt x="424" y="461" on="1"/>
        <pt x="424" y="359" on="0"/>
        <pt x="508" y="241" on="0"/>
        <pt x="599" y="241" on="1"/>
        <pt x="692" y="241" on="0"/>
        <pt x="754" y="313" on="0"/>
        <pt x="754" y="406" on="1"/>
      </contour>
    </TTGlyph>
    <TTGlyph name="Cacute" xMin="80" yMin="-21" xMax="1252" yMax="1848">
      <component glyphName="C" x="0" y="0" flags="0x204"/>
      <component glyphName="acute" x="398" y="370" flags="0x4"/>
    </TTGlyph>
    <TTGlyph name="Cacute.smcp" xMin="87" yMin="-17" xMax="1092" yMax="1520">
      <component glyphName="C.smcp" x="0" y="0" flags="0x204"/>
      <component glyphName="acute" x="316" y="42" flags="0x4"/>
    </TTGlyph>
    <TTGlyph name="Ccaron" xMin="80" yMin="-21" xMax="1252" yMax="1898">
      <component glyphName="C" x="0" y="0" flags="0x204"/>
      <component glyphName="caron" x="179" y="370" flags="0x4"/>
    </TTGlyph>
    <TTGlyph name="Ccaron.smcp" xMin="87" yMin="-17" xMax="1092" yMax="1570">
      <component glyphName="C.smcp" x="0" y="0" flags="0x204"/>
      <component glyphName="caron" x="97" y="42" flags="0x4"/>
    </TTGlyph>
    <TTGlyph name="Ccedilla" xMin="80" yMin="-472" xMax="1252" yMax="1477">
      <component glyphName="C" x="0" y="0" flags="0x204"/>
      <component glyphName="cedilla" x="411" y="0" flags="0x4"/>
    </TTGlyph>
    <TTGlyph name="Ccedilla.smcp" xMin="87" yMin="-472" xMax="1092" yMax="1181">
      <component glyphName="C.smcp" x="0" y="0" flags="0x204"/>
      <component glyphName="cedilla" x="332" y="0" flags="0x4"/>
    </TTGlyph>
    <TTGlyph name="Ccircumflex" xMin="80" yMin="-21" xMax="1252" yMax="1874">
      <component glyphName="C" x="0" y="0" flags="0x204"/>
      <component glyphName="circumflex" x="155" y="356" flags="0x4"/>
    </TTGlyph>
    <TTGlyph name="Ccircumflex.smcp" xMin="87" yMin="-17" xMax="1092" yMax="1546">
      <component glyphName="C.smcp" x="0" y="0" flags="0x204"/>
      <component glyphName="circumflex" x="73" y="28" flags="0x4"/>
    </TTGlyph>
    <TTGlyph name="Chi" xMin="14" yMin="0" xMax="1310" yMax="1456">
      <component glyphName="X" x="0" y="0" flags="0x204"/>
    </TTGlyph>
    <TTGlyph name="D" xMin="114" yMin="0" xMax="1243" yMax="1456">
      <contour>
        <pt x="114" y="0" on="1"/>
        <pt x="114" y="1456" on="1"/>
        <pt x="640" y="1456" on="1"/>
        <pt x="897" y="1456" on="0"/>
        <pt x="1243" y="1121" on="0"/>
        <pt x="1243" y="859" on="1"/>
        <pt x="1243" y="597" on="1"/>
        <pt x="1243" y="334" on="0"/>
        <pt x="897" y="0" on="0"/>
        <pt x="640" y="0" on="1"/>
      </contour>
      <contour>
        <pt x="453" y="1196" on="1"/>
        <pt x="453" y="260" on="1"/>
        <pt x="617" y="260" on="1"/>
        <pt x="752" y="260" on="0"/>
        <pt x="904" y="445" on="0"/>
        <pt x="904" y="597" on="1"/>
        <pt x="904" y="861" on="1"/>
        <pt x="904" y="1012" on="0"/>
        <pt x="752" y="1196" on="0"/>
        <pt x="617" y="1196" on="1"/>
      </contour>
    </TTGlyph>
    <TTGlyph name="D.smcp" xMin="118" yMin="0" xMax="1123" yMax="1165">
      <contour>
        <pt x="118" y="0" on="1"/>
        <pt x="118" y="1165" on="1"/>
        <pt x="595" y="1165" on="1"/>
        <pt x="826" y="1165" on="0"/>
        <pt x="1123" y="898" on="0"/>
        <pt x="1123" y="687" on="1"/>
        <pt x="1123" y="477" on="1"/>
        <pt x="1123" y="265" on="0"/>
        <pt x="826" y="0" on="0"/>
        <pt x="595" y="0" on="1"/>
      </contour>
      <contour>
        <pt x="455" y="907" on="1"/>
        <pt x="455" y="258" on="1"/>
        <pt x="595" y="258" on="1"/>
        <pt x="683" y="258" on="0"/>
        <pt x="785" y="378" on="0"/>
        <pt x="785" y="477" on="1"/>
        <pt x="785" y="688" on="1"/>
        <pt x="785" y="786" on="0"/>
        <pt x="684" y="907" on="0"/>
        <pt x="595" y="907" on="1"/>
      </contour>
    </TTGlyph>
    <TTGlyph name="Dcaron" xMin="114" yMin="0" xMax="1243" yMax="1877">
      <component glyphName="D" x="0" y="0" flags="0x204"/>
      <component glyphName="caron" x="87" y="349" flags="0x4"/>
    </TTGlyph>
    <TTGlyph name="Dcaron.smcp" xMin="101" yMin="0" xMax="1123" yMax="1554">
      <component glyphName="D.smcp" x="0" y="0" flags="0x204"/>
      <component glyphName="caron" x="23" y="26" flags="0x4"/>
    </TTGlyph>
    <TTGlyph name="Dcroat" xMin="25" yMin="0" xMax="1273" yMax="1456">
      <contour>
        <pt x="144" y="0" on="1"/>
        <pt x="144" y="647" on="1"/>
        <pt x="25" y="647" on="1"/>
        <pt x="25" y="838" on="1"/>
        <pt x="144" y="838" on="1"/>
        <pt x="144" y="1456" on="1"/>
        <pt x="670" y="1456" on="1"/>
        <pt x="927" y="1456" on="0"/>
        <pt x="1273" y="1121" on="0"/>
        <pt x="1273" y="859" on="1"/>
        <pt x="1273" y="597" on="1"/>
        <pt x="1273" y="334" on="0"/>
        <pt x="927" y="0" on="0"/>
        <pt x="670" y="0" on="1"/>
      </contour>
      <contour>
        <pt x="711" y="647" on="1"/>
        <pt x="483" y="647" on="1"/>
        <pt x="483" y="260" on="1"/>
        <pt x="647" y="260" on="1"/>
        <pt x="782" y="260" on="0"/>
        <pt x="934" y="445" on="0"/>
        <pt x="934" y="597" on="1"/>
        <pt x="934" y="861" on="1"/>
        <pt x="934" y="1012" on="0"/>
        <pt x="782" y="1196" on="0"/>
        <pt x="647" y="1196" on="1"/>
        <pt x="483" y="1196" on="1"/>
        <pt x="483" y="838" on="1"/>
        <pt x="711" y="838" on="1"/>
      </contour>
    </TTGlyph>
    <TTGlyph name="Dcroat.smcp" xMin="-45" yMin="0" xMax="1123" yMax="1165">
      <component glyphName="D.smcp" x="0" y="0" flags="0x204"/>
      <component glyphName="crossbar" x="-205" y="-150" flags="0x4"/>
    </TTGlyph>
    <TTGlyph name="Delta" xMin="18" yMin="0" xMax="1520" yMax="1456">
      <contour>
        <pt x="948" y="1456" on="1"/>
        <pt x="1520" y="0" on="1"/>
        <pt x="18" y="0" on="1"/>
        <pt x="585" y="1456" on="1"/>
      </contour>
      <contour>
        <pt x="469" y="260" on="1"/>
        <pt x="1067" y="260" on="1"/>
        <pt x="769" y="1061" on="1"/>
        <pt x="763" y="1061" on="1"/>
      </contour>
    </TTGlyph>
    <TTGlyph name="E" xMin="114" yMin="0" xMax="1128" yMax="1456">
      <contour>
        <pt x="1024" y="623" on="1"/>
        <pt x="453" y="623" on="1"/>
        <pt x="453" y="260" on="1"/>
        <pt x="1126" y="260" on="1"/>
        <pt x="1126" y="0" on="1"/>
        <pt x="114" y="0" on="1"/>
        <pt x="114" y="1456" on="1"/>
        <pt x="1128" y="1456" on="1"/>
        <pt x="1128" y="1196" on="1"/>
        <pt x="453" y="1196" on="1"/>
        <pt x="453" y="883" on="1"/>
        <pt x="1024" y="883" on="1"/>
      </contour>
    </TTGlyph>
    <TTGlyph name="E.smcp" xMin="118" yMin="0" xMax="988" yMax="1165">
      <contour>
        <pt x="902" y="473" on="1"/>
        <pt x="455" y="473" on="1"/>
        <pt x="455" y="258" on="1"/>
        <pt x="988" y="258" on="1"/>
        <pt x="988" y="0" on="1"/>
        <pt x="118" y="0" on="1"/>
        <pt x="118" y="1165" on="1"/>
        <pt x="988" y="1165" on="1"/>
        <pt x="988" y="907" on="1"/>
        <pt x="455" y="907" on="1"/>
        <pt x="455" y="732" on="1"/>
        <pt x="902" y="732" on="1"/>
      </contour>
    </TTGlyph>
    <TTGlyph name="Eacute" xMin="114" yMin="0" xMax="1128" yMax="1827">
      <component glyphName="E" x="0" y="0" flags="0x204"/>
      <component glyphName="acute" x="318" y="349" flags="0x4"/>
    </TTGlyph>
    <TTGlyph name="Eacute.smcp" xMin="118" yMin="0" xMax="988" yMax="1504">
      <component glyphName="E.smcp" x="0" y="0" flags="0x204"/>
      <component glyphName="acute" x="269" y="26" flags="0x4"/>
    </TTGlyph>
    <TTGlyph name="Ebreve" xMin="114" yMin="0" xMax="1128" yMax="1908">
      <component glyphName="E" x="0" y="0" flags="0x204"/>
      <component glyphName="breve" x="128" y="452" flags="0x4"/>
    </TTGlyph>
    <TTGlyph name="Ebreve.smcp" xMin="118" yMin="0" xMax="988" yMax="1585">
      <component glyphName="E.smcp" x="0" y="0" flags="0x204"/>
      <component glyphName="breve" x="79" y="129" flags="0x4"/>
    </TTGlyph>
    <TTGlyph name="Ecaron" xMin="114" yMin="0" xMax="1128" yMax="1877">
      <component glyphName="E" x="0" y="0" flags="0x204"/>
      <component glyphName="caron" x="99" y="349" flags="0x4"/>
    </TTGlyph>
    <TTGlyph name="Ecaron.smcp" xMin="118" yMin="0" xMax="988" yMax="1554">
      <component glyphName="E.smcp" x="0" y="0" flags="0x204"/>
      <component glyphName="caron" x="50" y="26" flags="0x4"/>
    </TTGlyph>
    <TTGlyph name="Ecircumflex" xMin="114" yMin="0" xMax="1128" yMax="1853">
      <component glyphName="E" x="0" y="0" flags="0x204"/>
      <component glyphName="circumflex" x="75" y="335" flags="0x4"/>
    </TTGlyph>
    <TTGlyph name="Ecircumflex.smcp" xMin="118" yMin="0" xMax="988" yMax="1530">
      <component glyphName="E.smcp" x="0" y="0" flags="0x204"/>
      <component glyphName="circumflex" x="26" y="12" flags="0x4"/>
    </TTGlyph>
    <TTGlyph name="Edieresis" xMin="114" yMin="0" xMax="1128" yMax="1805">
      <component glyphName="E" x="0" y="0" flags="0x204"/>
      <component glyphName="dieresis" x="41" y="349" flags="0x4"/>
    </TTGlyph>
    <TTGlyph name="Edieresis.smcp" xMin="118" yMin="0" xMax="988" yMax="1482">
      <component glyphName="E.smcp" x="0" y="0" flags="0x204"/>
      <component glyphName="dieresis" x="-6" y="26" flags="0x4"/>
    </TTGlyph>
    <TTGlyph name="Edotaccent" xMin="114" yMin="0" xMax="1128" yMax="1862">
      <component glyphName="E" x="0" y="0" flags="0x204"/>
      <component glyphName="dotaccent" x="274" y="387" flags="0x4"/>
    </TTGlyph>
    <TTGlyph name="Edotaccent.smcp" xMin="118" yMin="0" xMax="988" yMax="1539">
      <component glyphName="E.smcp" x="0" y="0" flags="0x204"/>
      <component glyphName="dotaccent" x="225" y="64" flags="0x4"/>
    </TTGlyph>
    <TTGlyph name="Egrave" xMin="114" yMin="0" xMax="1128" yMax="1825">
      <component glyphName="E" x="0" y="0" flags="0x204"/>
      <component glyphName="grave" x="140" y="347" flags="0x4"/>
    </TTGlyph>
    <TTGlyph name="Egrave.smcp" xMin="118" yMin="0" xMax="988" yMax="1502">
      <component glyphName="E.smcp" x="0" y="0" flags="0x204"/>
      <component glyphName="grave" x="91" y="24" flags="0x4"/>
    </TTGlyph>
    <TTGlyph name="Emacron" xMin="114" yMin="0" xMax="1128" yMax="1774">
      <component glyphName="E" x="0" y="0" flags="0x204"/>
      <component glyphName="macron" x="63" y="316" flags="0x4"/>
    </TTGlyph>
    <TTGlyph name="Emacron.smcp" xMin="118" yMin="0" xMax="988" yMax="1453">
      <component glyphName="E.smcp" x="0" y="0" flags="0x204"/>
      <component glyphName="macron" x="14" y="-5" flags="0x4"/>
    </TTGlyph>
    <TTGlyph name="Eng" xMin="117" yMin="-437" xMax="1331" yMax="1456">
      <contour>
        <pt x="1331" y="1456" on="1"/>
        <pt x="1331" y="-15" on="1"/>
        <pt x="1331" y="-217" on="0"/>
        <pt x="1115" y="-437" on="0"/>
        <pt x="922" y="-437" on="1"/>
        <pt x="877" y="-437" on="0"/>
        <pt x="803" y="-429" on="0"/>
        <pt x="762" y="-420" on="1"/>
        <pt x="776" y="-165" on="1"/>
        <pt x="804" y="-171" on="0"/>
        <pt x="844" y="-177" on="0"/>
        <pt x="876" y="-177" on="1"/>
        <pt x="932" y="-177" on="0"/>
        <pt x="994" y="-94" on="0"/>
        <pt x="994" y="-15" on="1"/>
        <pt x="994" y="0" on="1"/>
        <pt x="461" y="916" on="1"/>
        <pt x="455" y="914" on="1"/>
        <pt x="455" y="0" on="1"/>
        <pt x="117" y="0" on="1"/>
        <pt x="117" y="1456" on="1"/>
        <pt x="455" y="1456" on="1"/>
        <pt x="988" y="541" on="1"/>
        <pt x="994" y="543" on="1"/>
        <pt x="994" y="1456" on="1"/>
      </contour>
    </TTGlyph>
    <TTGlyph name="Eogonek" xMin="114" yMin="-417" xMax="1128" yMax="1456">
      <component glyphName="E" x="0" y="0" flags="0x204"/>
      <component glyphName="ogonek" x="268" y="0" flags="0x4"/>
    </TTGlyph>
    <TTGlyph name="Eogonek.smcp" xMin="118" yMin="-417" xMax="988" yMax="1165">
      <component glyphName="E.smcp" x="0" y="0" flags="0x204"/>
      <component glyphName="ogonek" x="231" y="0" flags="0x4"/>
    </TTGlyph>
    <TTGlyph name="Epsilon" xMin="114" yMin="0" xMax="1128" yMax="1456">
      <component glyphName="E" x="0" y="0" flags="0x204"/>
    </TTGlyph>
    <TTGlyph name="Epsilontonos" xMin="-191" yMin="0" xMax="1228" yMax="1620">
      <component glyphName="E" x="100" y="0" flags="0x4"/>
      <component glyphName="tonos" x="-451" y="2" flags="0x4"/>
    </TTGlyph>
    <TTGlyph name="Eta" xMin="114" yMin="0" xMax="1329" yMax="1456">
      <component glyphName="H" x="0" y="0" flags="0x204"/>
    </TTGlyph>
    <TTGlyph name="Etatonos" xMin="-154" yMin="0" xMax="1429" yMax="1616">
      <component glyphName="H" x="100" y="0" flags="0x4"/>
      <component glyphName="tonos" x="-414" y="-2" flags="0x4"/>
    </TTGlyph>
    <TTGlyph name="Eth" xMin="25" yMin="0" xMax="1273" yMax="1456">
      <contour>
        <pt x="144" y="0" on="1"/>
        <pt x="144" y="647" on="1"/>
        <pt x="25" y="647" on="1"/>
        <pt x="25" y="838" on="1"/>
        <pt x="144" y="838" on="1"/>
        <pt x="144" y="1456" on="1"/>
        <pt x="670" y="1456" on="1"/>
        <pt x="927" y="1456" on="0"/>
        <pt x="1273" y="1121" on="0"/>
        <pt x="1273" y="859" on="1"/>
        <pt x="1273" y="597" on="1"/>
        <pt x="1273" y="334" on="0"/>
        <pt x="927" y="0" on="0"/>
        <pt x="670" y="0" on="1"/>
      </contour>
      <contour>
        <pt x="711" y="647" on="1"/>
        <pt x="483" y="647" on="1"/>
        <pt x="483" y="260" on="1"/>
        <pt x="647" y="260" on="1"/>
        <pt x="782" y="260" on="0"/>
        <pt x="934" y="445" on="0"/>
        <pt x="934" y="597" on="1"/>
        <pt x="934" y="861" on="1"/>
        <pt x="934" y="1012" on="0"/>
        <pt x="782" y="1196" on="0"/>
        <pt x="647" y="1196" on="1"/>
        <pt x="483" y="1196" on="1"/>
        <pt x="483" y="838" on="1"/>
        <pt x="711" y="838" on="1"/>
      </contour>
    </TTGlyph>
    <TTGlyph name="Eth.smcp" xMin="-45" yMin="0" xMax="1123" yMax="1165">
      <component glyphName="D.smcp" x="0" y="0" flags="0x204"/>
      <component glyphName="crossbar" x="-205" y="-150" flags="0x4"/>
    </TTGlyph>
    <TTGlyph name="Euro" xMin="67" yMin="-21" xMax="1016" yMax="1477">
      <contour>
        <pt x="948" y="442" on="1"/>
        <pt x="552" y="442" on="1"/>
        <pt x="552" y="428" on="1"/>
        <pt x="552" y="349" on="0"/>
        <pt x="667" y="239" on="0"/>
        <pt x="775" y="239" on="1"/>
        <pt x="832" y="239" on="0"/>
        <pt x="943" y="255" on="0"/>
        <pt x="995" y="272" on="1"/>
        <pt x="1016" y="10" on="1"/>
        <pt x="959" y="-5" on="0"/>
        <pt x="837" y="-21" on="0"/>
        <pt x="775" y="-21" on="1"/>
        <pt x="523" y="-21" on="0"/>
        <pt x="213" y="242" on="0"/>
        <pt x="213" y="428" on="1"/>
        <pt x="213" y="442" on="1"/>
        <pt x="67" y="442" on="1"/>
        <pt x="67" y="652" on="1"/>
        <pt x="213" y="652" on="1"/>
        <pt x="213" y="767" on="1"/>
        <pt x="67" y="767" on="1"/>
        <pt x="67" y="977" on="1"/>
        <pt x="213" y="977" on="1"/>
        <pt x="213" y="990" on="1"/>
        <pt x="213" y="1192" on="0"/>
        <pt x="522" y="1477" on="0"/>
        <pt x="773" y="1477" on="1"/>
        <pt x="833" y="1477" on="0"/>
        <pt x="948" y="1461" on="0"/>
        <pt x="1016" y="1446" on="1"/>
        <pt x="995" y="1182" on="1"/>
        <pt x="942" y="1198" on="0"/>
        <pt x="829" y="1217" on="0"/>
        <pt x="773" y="1217" on="1"/>
        <pt x="668" y="1217" on="0"/>
        <pt x="552" y="1082" on="0"/>
        <pt x="552" y="992" on="1"/>
        <pt x="552" y="977" on="1"/>
        <pt x="948" y="977" on="1"/>
        <pt x="948" y="767" on="1"/>
        <pt x="552" y="767" on="1"/>
        <pt x="552" y="652" on="1"/>
        <pt x="948" y="652" on="1"/>
      </contour>
    </TTGlyph>
    <TTGlyph name="F" xMin="114" yMin="0" xMax="1138" yMax="1456">
      <contour>
        <pt x="1036" y="586" on="1"/>
        <pt x="453" y="586" on="1"/>
        <pt x="453" y="0" on="1"/>
        <pt x="114" y="0" on="1"/>
        <pt x="114" y="1456" on="1"/>
        <pt x="1138" y="1456" on="1"/>
        <pt x="1138" y="1196" on="1"/>
        <pt x="453" y="1196" on="1"/>
        <pt x="453" y="846" on="1"/>
        <pt x="1036" y="846" on="1"/>
      </contour>
    </TTGlyph>
    <TTGlyph name="F.smcp" xMin="118" yMin="0" xMax="1019" yMax="1165">
      <contour>
        <pt x="932" y="443" on="1"/>
        <pt x="455" y="443" on="1"/>
        <pt x="455" y="0" on="1"/>
        <pt x="118" y="0" on="1"/>
        <pt x="118" y="1165" on="1"/>
        <pt x="1019" y="1165" on="1"/>
        <pt x="1019" y="907" on="1"/>
        <pt x="455" y="907" on="1"/>
        <pt x="455" y="702" on="1"/>
        <pt x="932" y="702" on="1"/>
      </contour>
    </TTGlyph>
    <TTGlyph name="G" xMin="88" yMin="-21" xMax="1264" yMax="1477">
      <contour>
        <pt x="1264" y="201" on="1"/>
        <pt x="1190" y="113" on="0"/>
        <pt x="908" y="-21" on="0"/>
        <pt x="695" y="-21" on="1"/>
        <pt x="425" y="-21" on="0"/>
        <pt x="88" y="311" on="0"/>
        <pt x="88" y="576" on="1"/>
        <pt x="88" y="880" on="1"/>
        <pt x="88" y="1143" on="0"/>
        <pt x="417" y="1477" on="0"/>
        <pt x="676" y="1477" on="1"/>
        <pt x="957" y="1477" on="0"/>
        <pt x="1237" y="1217" on="0"/>
        <pt x="1256" y="992" on="1"/>
        <pt x="1254" y="986" on="1"/>
        <pt x="937" y="986" on="1"/>
        <pt x="920" y="1101" on="0"/>
        <pt x="805" y="1217" on="0"/>
        <pt x="687" y="1217" on="1"/>
        <pt x="569" y="1217" on="0"/>
        <pt x="425" y="1030" on="0"/>
        <pt x="425" y="882" on="1"/>
        <pt x="425" y="576" on="1"/>
        <pt x="425" y="424" on="0"/>
        <pt x="567" y="239" on="0"/>
        <pt x="695" y="239" on="1"/>
        <pt x="788" y="239" on="0"/>
        <pt x="894" y="269" on="0"/>
        <pt x="925" y="294" on="1"/>
        <pt x="925" y="524" on="1"/>
        <pt x="696" y="524" on="1"/>
        <pt x="696" y="748" on="1"/>
        <pt x="1264" y="748" on="1"/>
      </contour>
    </TTGlyph>
    <TTGlyph name="G.smcp" xMin="87" yMin="-17" xMax="1160" yMax="1181">
      <contour>
        <pt x="1160" y="163" on="1"/>
        <pt x="1083" y="84" on="0"/>
        <pt x="836" y="-17" on="0"/>
        <pt x="634" y="-17" on="1"/>
        <pt x="392" y="-17" on="0"/>
        <pt x="87" y="249" on="0"/>
        <pt x="87" y="461" on="1"/>
        <pt x="87" y="704" on="1"/>
        <pt x="87" y="915" on="0"/>
        <pt x="383" y="1181" on="0"/>
        <pt x="615" y="1181" on="1"/>
        <pt x="856" y="1181" on="0"/>
        <pt x="1127" y="988" on="0"/>
        <pt x="1122" y="798" on="1"/>
        <pt x="1121" y="792" on="1"/>
        <pt x="793" y="792" on="1"/>
        <pt x="793" y="865" on="0"/>
        <pt x="718" y="924" on="0"/>
        <pt x="615" y="924" on="1"/>
        <pt x="524" y="924" on="0"/>
        <pt x="424" y="803" on="0"/>
        <pt x="424" y="705" on="1"/>
        <pt x="424" y="461" on="1"/>
        <pt x="424" y="361" on="0"/>
        <pt x="533" y="241" on="0"/>
        <pt x="634" y="241" on="1"/>
        <pt x="713" y="241" on="0"/>
        <pt x="793" y="257" on="0"/>
        <pt x="822" y="274" on="1"/>
        <pt x="822" y="420" on="1"/>
        <pt x="622" y="420" on="1"/>
        <pt x="622" y="632" on="1"/>
        <pt x="1160" y="632" on="1"/>
      </contour>
    </TTGlyph>
    <TTGlyph name="Gamma" xMin="114" yMin="0" xMax="1090" yMax="1456">
      <contour>
        <pt x="1090" y="1196" on="1"/>
        <pt x="453" y="1196" on="1"/>
        <pt x="453" y="0" on="1"/>
        <pt x="114" y="0" on="1"/>
        <pt x="114" y="1456" on="1"/>
        <pt x="1090" y="1456" on="1"/>
      </contour>
    </TTGlyph>
    <TTGlyph name="Gbreve" xMin="88" yMin="-21" xMax="1264" yMax="1929">
      <component glyphName="G" x="0" y="0" flags="0x204"/>
      <component glyphName="breve" x="214" y="473" flags="0x4"/>
    </TTGlyph>
    <TTGlyph name="Gbreve.smcp" xMin="87" yMin="-17" xMax="1160" yMax="1601">
      <component glyphName="G.smcp" x="0" y="0" flags="0x204"/>
      <component glyphName="breve" x="152" y="145" flags="0x4"/>
    </TTGlyph>
    <TTGlyph name="Gcircumflex" xMin="88" yMin="-21" xMax="1264" yMax="1874">
      <component glyphName="G" x="0" y="0" flags="0x204"/>
      <component glyphName="circumflex" x="161" y="356" flags="0x4"/>
    </TTGlyph>
    <TTGlyph name="Gcircumflex.smcp" xMin="87" yMin="-17" xMax="1160" yMax="1546">
      <component glyphName="G.smcp" x="0" y="0" flags="0x204"/>
      <component glyphName="circumflex" x="99" y="28" flags="0x4"/>
    </TTGlyph>
    <TTGlyph name="Gcommaaccent" xMin="88" yMin="-506" xMax="1264" yMax="1477">
      <component glyphName="G" x="0" y="0" flags="0x204"/>
      <component glyphName="commaaccent" x="490" y="-385" flags="0x4"/>
    </TTGlyph>
    <TTGlyph name="Gcommaaccent.smcp" xMin="87" yMin="-506" xMax="1160" yMax="1181">
      <component glyphName="G.smcp" x="0" y="0" flags="0x204"/>
      <component glyphName="commaaccent" x="426" y="-385" flags="0x4"/>
    </TTGlyph>
    <TTGlyph name="H" xMin="114" yMin="0" xMax="1329" yMax="1456">
      <contour>
        <pt x="1329" y="0" on="1"/>
        <pt x="992" y="0" on="1"/>
        <pt x="992" y="586" on="1"/>
        <pt x="453" y="586" on="1"/>
        <pt x="453" y="0" on="1"/>
        <pt x="114" y="0" on="1"/>
        <pt x="114" y="1456" on="1"/>
        <pt x="453" y="1456" on="1"/>
        <pt x="453" y="846" on="1"/>
        <pt x="992" y="846" on="1"/>
        <pt x="992" y="1456" on="1"/>
        <pt x="1329" y="1456" on="1"/>
      </contour>
    </TTGlyph>
    <TTGlyph name="H.smcp" xMin="118" yMin="0" xMax="1212" yMax="1165">
      <contour>
        <pt x="1212" y="0" on="1"/>
        <pt x="874" y="0" on="1"/>
        <pt x="874" y="443" on="1"/>
        <pt x="455" y="443" on="1"/>
        <pt x="455" y="0" on="1"/>
        <pt x="118" y="0" on="1"/>
        <pt x="118" y="1165" on="1"/>
        <pt x="455" y="1165" on="1"/>
        <pt x="455" y="702" on="1"/>
        <pt x="874" y="702" on="1"/>
        <pt x="874" y="1165" on="1"/>
        <pt x="1212" y="1165" on="1"/>
      </contour>
    </TTGlyph>
    <TTGlyph name="Hbar" xMin="9" yMin="0" xMax="1444" yMax="1456">
      <contour>
        <pt x="1329" y="1213" on="1"/>
        <pt x="1444" y="1213" on="1"/>
        <pt x="1444" y="1030" on="1"/>
        <pt x="1329" y="1030" on="1"/>
        <pt x="1329" y="0" on="1"/>
        <pt x="992" y="0" on="1"/>
        <pt x="992" y="586" on="1"/>
        <pt x="453" y="586" on="1"/>
        <pt x="453" y="0" on="1"/>
        <pt x="114" y="0" on="1"/>
        <pt x="114" y="1030" on="1"/>
        <pt x="9" y="1030" on="1"/>
        <pt x="9" y="1213" on="1"/>
        <pt x="114" y="1213" on="1"/>
        <pt x="114" y="1456" on="1"/>
        <pt x="453" y="1456" on="1"/>
        <pt x="453" y="1213" on="1"/>
        <pt x="992" y="1213" on="1"/>
        <pt x="992" y="1456" on="1"/>
        <pt x="1329" y="1456" on="1"/>
      </contour>
      <contour>
        <pt x="453" y="846" on="1"/>
        <pt x="992" y="846" on="1"/>
        <pt x="992" y="1030" on="1"/>
        <pt x="453" y="1030" on="1"/>
      </contour>
    </TTGlyph>
    <TTGlyph name="Hcircumflex" xMin="114" yMin="0" xMax="1329" yMax="1853">
      <component glyphName="H" x="0" y="0" flags="0x204"/>
      <component glyphName="circumflex" x="207" y="335" flags="0x4"/>
    </TTGlyph>
    <TTGlyph name="Hcircumflex.smcp" xMin="118" yMin="0" xMax="1212" yMax="1530">
      <component glyphName="H.smcp" x="0" y="0" flags="0x204"/>
      <component glyphName="circumflex" x="138" y="12" flags="0x4"/>
    </TTGlyph>
    <TTGlyph name="I" xMin="137" yMin="0" xMax="474" yMax="1456">
      <contour>
        <pt x="474" y="0" on="1"/>
        <pt x="137" y="0" on="1"/>
        <pt x="137" y="1456" on="1"/>
        <pt x="474" y="1456" on="1"/>
      </contour>
    </TTGlyph>
    <TTGlyph name="I.smcp" xMin="118" yMin="0" xMax="456" yMax="1165">
      <contour>
        <pt x="456" y="0" on="1"/>
        <pt x="118" y="0" on="1"/>
        <pt x="118" y="1165" on="1"/>
        <pt x="456" y="1165" on="1"/>
      </contour>
    </TTGlyph>
    <TTGlyph name="IJ" xMin="137" yMin="-21" xMax="1685" yMax="1456">
      <component glyphName="I" x="0" y="0" flags="0x4"/>
      <component glyphName="J" x="611" y="0" flags="0x4"/>
    </TTGlyph>
    <TTGlyph name="Iacute" xMin="128" yMin="0" xMax="684" yMax="1827">
      <component glyphName="I" x="0" y="0" flags="0x204"/>
      <component glyphName="acute" x="32" y="349" flags="0x4"/>
    </TTGlyph>
    <TTGlyph name="Iacute.smcp" xMin="110" yMin="0" xMax="666" yMax="1504">
      <component glyphName="I.smcp" x="0" y="0" flags="0x204"/>
      <component glyphName="acute" x="14" y="26" flags="0x4"/>
    </TTGlyph>
    <TTGlyph name="Ibreve" xMin="-61" yMin="0" xMax="676" yMax="1908">
      <component glyphName="I" x="0" y="0" flags="0x204"/>
      <component glyphName="breve" x="-156" y="452" flags="0x4"/>
    </TTGlyph>
    <TTGlyph name="Ibreve.smcp" xMin="-79" yMin="0" xMax="658" yMax="1585">
      <component glyphName="I.smcp" x="0" y="0" flags="0x204"/>
      <component glyphName="breve" x="-174" y="129" flags="0x4"/>
    </TTGlyph>
    <TTGlyph name="Icircumflex" xMin="-89" yMin="0" xMax="709" yMax="1853">
      <component glyphName="I" x="0" y="0" flags="0x204"/>
      <component glyphName="circumflex" x="-209" y="335" flags="0x4"/>
    </TTGlyph>
    <TTGlyph name="Icircumflex.smcp" xMin="-107" yMin="0" xMax="691" yMax="1530">
      <component glyphName="I.smcp" x="0" y="0" flags="0x204"/>
      <component glyphName="circumflex" x="-227" y="12" flags="0x4"/>
    </TTGlyph>
    <TTGlyph name="Idieresis" xMin="-95" yMin="0" xMax="710" yMax="1805">
      <component glyphName="I" x="0" y="0" flags="0x204"/>
      <component glyphName="dieresis" x="-243" y="349" flags="0x4"/>
    </TTGlyph>
    <TTGlyph name="Idieresis.smcp" xMin="-113" yMin="0" xMax="692" yMax="1482">
      <component glyphName="I.smcp" x="0" y="0" flags="0x204"/>
      <component glyphName="dieresis" x="-261" y="26" flags="0x4"/>
    </TTGlyph>
    <TTGlyph name="Idotaccent" xMin="128" yMin="0" xMax="475" yMax="1862">
      <component glyphName="I" x="0" y="0" flags="0x204"/>
      <component glyphName="dotaccent" x="-10" y="387" flags="0x4"/>
    </TTGlyph>
    <TTGlyph name="Idotaccent.smcp" xMin="110" yMin="0" xMax="457" yMax="1539">
      <component glyphName="I.smcp" x="0" y="0" flags="0x204"/>
      <component glyphName="dotaccent" x="-28" y="64" flags="0x4"/>
    </TTGlyph>
    <TTGlyph name="Igrave" xMin="-70" yMin="0" xMax="487" yMax="1825">
      <component glyphName="I" x="0" y="0" flags="0x204"/>
      <component glyphName="grave" x="-144" y="347" flags="0x4"/>
    </TTGlyph>
    <TTGlyph name="Igrave.smcp" xMin="-88" yMin="0" xMax="469" yMax="1502">
      <component glyphName="I.smcp" x="0" y="0" flags="0x204"/>
      <component glyphName="grave" x="-162" y="24" flags="0x4"/>
    </TTGlyph>
    <TTGlyph name="Imacron" xMin="-60" yMin="0" xMax="674" yMax="1774">
      <component glyphName="I" x="0" y="0" flags="0x204"/>
      <component glyphName="macron" x="-221" y="316" flags="0x4"/>
    </TTGlyph>
    <TTGlyph name="Imacron.smcp" xMin="-78" yMin="0" xMax="656" yMax="1453">
      <component glyphName="I.smcp" x="0" y="0" flags="0x204"/>
      <component glyphName="macron" x="-239" y="-5" flags="0x4"/>
    </TTGlyph>
    <TTGlyph name="Iogonek" xMin="38" yMin="-417" xMax="487" yMax="1456">
      <component glyphName="I" x="0" y="0" flags="0x204"/>
      <component glyphName="ogonek" x="-52" y="0" flags="0x4"/>
    </TTGlyph>
    <TTGlyph name="Iogonek.smcp" xMin="20" yMin="-417" xMax="469" yMax="1165">
      <component glyphName="I.smcp" x="0" y="0" flags="0x204"/>
      <component glyphName="ogonek" x="-70" y="0" flags="0x4"/>
    </TTGlyph>
    <TTGlyph name="Iota" xMin="137" yMin="0" xMax="474" yMax="1456">
      <component glyphName="I" x="0" y="0" flags="0x204"/>
    </TTGlyph>
    <TTGlyph name="Iotadieresis" xMin="-95" yMin="0" xMax="710" yMax="1805">
      <component glyphName="I" x="0" y="0" flags="0x204"/>
      <component glyphName="dieresis" x="-243" y="349" flags="0x4"/>
    </TTGlyph>
    <TTGlyph name="Iotatonos" xMin="-143" yMin="0" xMax="574" yMax="1620">
      <component glyphName="I" x="100" y="0" flags="0x4"/>
      <component glyphName="tonos" x="-403" y="2" flags="0x4"/>
    </TTGlyph>
    <TTGlyph name="Itilde" xMin="-81" yMin="0" xMax="695" yMax="1912">
      <component glyphName="I" x="0" y="0" flags="0x204"/>
      <component glyphName="tilde" x="-192" y="381" flags="0x4"/>
    </TTGlyph>
    <TTGlyph name="Itilde.smcp" xMin="-99" yMin="0" xMax="677" yMax="1589">
      <component glyphName="I.smcp" x="0" y="0" flags="0x204"/>
      <component glyphName="tilde" x="-210" y="58" flags="0x4"/>
    </TTGlyph>
    <TTGlyph name="J" xMin="56" yMin="-21" xMax="1074" yMax="1456">
      <contour>
        <pt x="737" y="1456" on="1"/>
        <pt x="1074" y="1456" on="1"/>
        <pt x="1074" y="457" on="1"/>
        <pt x="1074" y="237" on="0"/>
        <pt x="785" y="-21" on="0"/>
        <pt x="568" y="-21" on="1"/>
        <pt x="331" y="-21" on="0"/>
        <pt x="56" y="207" on="0"/>
        <pt x="61" y="430" on="1"/>
        <pt x="63" y="436" on="1"/>
        <pt x="393" y="436" on="1"/>
        <pt x="393" y="330" on="0"/>
        <pt x="491" y="239" on="0"/>
        <pt x="568" y="239" on="1"/>
        <pt x="637" y="239" on="0"/>
        <pt x="737" y="353" on="0"/>
        <pt x="737" y="457" on="1"/>
      </contour>
    </TTGlyph>
    <TTGlyph name="J.smcp" xMin="11" yMin="-21" xMax="952" yMax="1165">
      <contour>
        <pt x="613" y="1165" on="1"/>
        <pt x="952" y="1165" on="1"/>
        <pt x="952" y="399" on="1"/>
        <pt x="952" y="209" on="0"/>
        <pt x="692" y="-21" on="0"/>
        <pt x="488" y="-21" on="1"/>
        <pt x="269" y="-21" on="0"/>
        <pt x="11" y="185" on="0"/>
        <pt x="17" y="377" on="1"/>
        <pt x="19" y="383" on="1"/>
        <pt x="348" y="383" on="1"/>
        <pt x="348" y="310" on="0"/>
        <pt x="432" y="238" on="0"/>
        <pt x="488" y="238" on="1"/>
        <pt x="543" y="238" on="0"/>
        <pt x="613" y="324" on="0"/>
        <pt x="613" y="399" on="1"/>
      </contour>
    </TTGlyph>
    <TTGlyph name="Jcircumflex" xMin="56" yMin="-21" xMax="1285" yMax="1853">
      <component glyphName="J" x="0" y="0" flags="0x204"/>
      <component glyphName="circumflex" x="367" y="335" flags="0x4"/>
    </TTGlyph>
    <TTGlyph name="Jcircumflex.smcp" xMin="11" yMin="-21" xMax="1176" yMax="1535">
      <component glyphName="J.smcp" x="0" y="0" flags="0x204"/>
      <component glyphName="circumflex" x="258" y="17" flags="0x4"/>
    </TTGlyph>
    <TTGlyph name="K" xMin="114" yMin="0" xMax="1347" yMax="1456">
      <contour>
        <pt x="609" y="584" on="1"/>
        <pt x="453" y="584" on="1"/>
        <pt x="453" y="0" on="1"/>
        <pt x="114" y="0" on="1"/>
        <pt x="114" y="1456" on="1"/>
        <pt x="453" y="1456" on="1"/>
        <pt x="453" y="886" on="1"/>
        <pt x="568" y="886" on="1"/>
        <pt x="888" y="1456" on="1"/>
        <pt x="1308" y="1456" on="1"/>
        <pt x="857" y="797" on="1"/>
        <pt x="1347" y="0" on="1"/>
        <pt x="935" y="0" on="1"/>
      </contour>
    </TTGlyph>
    <TTGlyph name="K.smcp" xMin="118" yMin="0" xMax="1165" yMax="1165">
      <contour>
        <pt x="567" y="419" on="1"/>
        <pt x="455" y="419" on="1"/>
        <pt x="455" y="0" on="1"/>
        <pt x="118" y="0" on="1"/>
        <pt x="118" y="1165" on="1"/>
        <pt x="455" y="1165" on="1"/>
        <pt x="455" y="734" on="1"/>
        <pt x="545" y="734" on="1"/>
        <pt x="724" y="1165" on="1"/>
        <pt x="1156" y="1165" on="1"/>
        <pt x="856" y="624" on="1"/>
        <pt x="1165" y="0" on="1"/>
        <pt x="731" y="0" on="1"/>
      </contour>
    </TTGlyph>
    <TTGlyph name="Kappa" xMin="114" yMin="0" xMax="1347" yMax="1456">
      <component glyphName="K" x="0" y="0" flags="0x204"/>
    </TTGlyph>
    <TTGlyph name="Kcommaaccent" xMin="114" yMin="-496" xMax="1347" yMax="1456">
      <component glyphName="K" x="0" y="0" flags="0x204"/>
      <component glyphName="commaaccent" x="440" y="-375" flags="0x4"/>
    </TTGlyph>
    <TTGlyph name="Kcommaaccent.smcp" xMin="118" yMin="-498" xMax="1165" yMax="1165">
      <component glyphName="K.smcp" x="0" y="0" flags="0x204"/>
      <component glyphName="commaaccent" x="359" y="-377" flags="0x4"/>
    </TTGlyph>
    <TTGlyph name="L" xMin="114" yMin="0" xMax="1080" yMax="1456">
      <contour>
        <pt x="453" y="260" on="1"/>
        <pt x="1080" y="260" on="1"/>
        <pt x="1080" y="0" on="1"/>
        <pt x="114" y="0" on="1"/>
        <pt x="114" y="1456" on="1"/>
        <pt x="453" y="1456" on="1"/>
      </contour>
    </TTGlyph>
    <TTGlyph name="L.smcp" xMin="118" yMin="0" xMax="918" yMax="1165">
      <contour>
        <pt x="455" y="258" on="1"/>
        <pt x="918" y="258" on="1"/>
        <pt x="918" y="0" on="1"/>
        <pt x="118" y="0" on="1"/>
        <pt x="118" y="1165" on="1"/>
        <pt x="455" y="1165" on="1"/>
      </contour>
    </TTGlyph>
    <TTGlyph name="Lacute" xMin="111" yMin="0" xMax="1080" yMax="1827">
      <component glyphName="L" x="0" y="0" flags="0x204"/>
      <component glyphName="acute" x="15" y="349" flags="0x4"/>
    </TTGlyph>
    <TTGlyph name="Lacute.smcp" xMin="94" yMin="0" xMax="918" yMax="1504">
      <component glyphName="L.smcp" x="0" y="0" flags="0x204"/>
      <component glyphName="acute" x="-2" y="26" flags="0x4"/>
    </TTGlyph>
    <TTGlyph name="Lambda" xMin="5" yMin="0" xMax="1314" yMax="1456">
      <contour>
        <pt x="361" y="0" on="1"/>
        <pt x="5" y="0" on="1"/>
        <pt x="478" y="1456" on="1"/>
        <pt x="841" y="1456" on="1"/>
        <pt x="1314" y="0" on="1"/>
        <pt x="959" y="0" on="1"/>
        <pt x="683" y="1061" on="1"/>
        <pt x="663" y="1147" on="1"/>
        <pt x="657" y="1147" on="1"/>
        <pt x="638" y="1065" on="1"/>
      </contour>
    </TTGlyph>
    <TTGlyph name="Lcaron" xMin="114" yMin="0" xMax="1080" yMax="1460">
      <component glyphName="L" x="0" y="0" flags="0x204"/>
      <component glyphName="commaaccent" x="590" y="1175" flags="0x4"/>
    </TTGlyph>
    <TTGlyph name="Lcaron.smcp" xMin="118" yMin="0" xMax="918" yMax="1168">
      <component glyphName="L.smcp" x="0" y="0" flags="0x204"/>
      <component glyphName="commaaccent" x="549" y="883" flags="0x4"/>
    </TTGlyph>
    <TTGlyph name="Lcommaaccent" xMin="114" yMin="-496" xMax="1080" yMax="1456">
      <component glyphName="L" x="0" y="0" flags="0x204"/>
      <component glyphName="commaaccent" x="386" y="-375" flags="0x4"/>
    </TTGlyph>
    <TTGlyph name="Lcommaaccent.smcp" xMin="118" yMin="-498" xMax="918" yMax="1165">
      <component glyphName="L.smcp" x="0" y="0" flags="0x204"/>
      <component glyphName="commaaccent" x="288" y="-377" flags="0x4"/>
    </TTGlyph>
    <TTGlyph name="Ldot" xMin="114" yMin="0" xMax="1080" yMax="1456">
      <component glyphName="L" x="0" y="0" flags="0x204"/>
      <component glyphName="dotaccent" x="421" y="-537" flags="0x4"/>
    </TTGlyph>
    <TTGlyph name="Ldot.smcp" xMin="118" yMin="0" xMax="918" yMax="1165">
      <component glyphName="L.smcp" x="0" y="0" flags="0x204"/>
      <component glyphName="dotaccent" x="389" y="-707" flags="0x4"/>
    </TTGlyph>
    <TTGlyph name="Lslash" xMin="-3" yMin="0" xMax="1071" yMax="1456">
      <contour>
        <pt x="444" y="902" on="1"/>
        <pt x="678" y="967" on="1"/>
        <pt x="678" y="759" on="1"/>
        <pt x="444" y="694" on="1"/>
        <pt x="444" y="260" on="1"/>
        <pt x="1071" y="260" on="1"/>
        <pt x="1071" y="0" on="1"/>
        <pt x="105" y="0" on="1"/>
        <pt x="105" y="601" on="1"/>
        <pt x="-3" y="572" on="1"/>
        <pt x="-3" y="780" on="1"/>
        <pt x="105" y="809" on="1"/>
        <pt x="105" y="1456" on="1"/>
        <pt x="444" y="1456" on="1"/>
      </contour>
    </TTGlyph>
    <TTGlyph name="M" xMin="114" yMin="0" xMax="1666" yMax="1456">
      <contour>
        <pt x="558" y="1456" on="1"/>
        <pt x="884" y="437" on="1"/>
        <pt x="890" y="437" on="1"/>
        <pt x="1220" y="1456" on="1"/>
        <pt x="1666" y="1456" on="1"/>
        <pt x="1666" y="0" on="1"/>
        <pt x="1327" y="0" on="1"/>
        <pt x="1327" y="361" on="1"/>
        <pt x="1359" y="1026" on="1"/>
        <pt x="1353" y="1027" on="1"/>
        <pt x="1002" y="0" on="1"/>
        <pt x="774" y="0" on="1"/>
        <pt x="427" y="1018" on="1"/>
        <pt x="421" y="1017" on="1"/>
        <pt x="453" y="361" on="1"/>
        <pt x="453" y="0" on="1"/>
        <pt x="114" y="0" on="1"/>
        <pt x="114" y="1456" on="1"/>
      </contour>
    </TTGlyph>
    <TTGlyph name="M.smcp" xMin="118" yMin="0" xMax="1441" yMax="1165">
      <contour>
        <pt x="770" y="382" on="1"/>
        <pt x="776" y="382" on="1"/>
        <pt x="1018" y="1165" on="1"/>
        <pt x="1441" y="1165" on="1"/>
        <pt x="1441" y="0" on="1"/>
        <pt x="1104" y="0" on="1"/>
        <pt x="1104" y="629" on="1"/>
        <pt x="1098" y="630" on="1"/>
        <pt x="886" y="0" on="1"/>
        <pt x="661" y="0" on="1"/>
        <pt x="461" y="594" on="1"/>
        <pt x="455" y="593" on="1"/>
        <pt x="455" y="0" on="1"/>
        <pt x="118" y="0" on="1"/>
        <pt x="118" y="1165" on="1"/>
        <pt x="531" y="1165" on="1"/>
      </contour>
    </TTGlyph>
    <TTGlyph name="Mu" xMin="114" yMin="0" xMax="1666" yMax="1456">
      <component glyphName="M" x="0" y="0" flags="0x204"/>
    </TTGlyph>
    <TTGlyph name="N" xMin="114" yMin="0" xMax="1329" yMax="1456">
      <contour>
        <pt x="1329" y="0" on="1"/>
        <pt x="992" y="0" on="1"/>
        <pt x="459" y="928" on="1"/>
        <pt x="453" y="926" on="1"/>
        <pt x="453" y="0" on="1"/>
        <pt x="114" y="0" on="1"/>
        <pt x="114" y="1456" on="1"/>
        <pt x="453" y="1456" on="1"/>
        <pt x="986" y="528" on="1"/>
        <pt x="992" y="530" on="1"/>
        <pt x="992" y="1456" on="1"/>
        <pt x="1329" y="1456" on="1"/>
      </contour>
    </TTGlyph>
    <TTGlyph name="N.smcp" xMin="118" yMin="0" xMax="1187" yMax="1165">
      <contour>
        <pt x="1187" y="0" on="1"/>
        <pt x="849" y="0" on="1"/>
        <pt x="461" y="641" on="1"/>
        <pt x="455" y="640" on="1"/>
        <pt x="455" y="0" on="1"/>
        <pt x="118" y="0" on="1"/>
        <pt x="118" y="1165" on="1"/>
        <pt x="455" y="1165" on="1"/>
        <pt x="843" y="526" on="1"/>
        <pt x="849" y="527" on="1"/>
        <pt x="849" y="1165" on="1"/>
        <pt x="1187" y="1165" on="1"/>
      </contour>
    </TTGlyph>
    <TTGlyph name="Nacute" xMin="114" yMin="0" xMax="1329" yMax="1827">
      <component glyphName="N" x="0" y="0" flags="0x204"/>
      <component glyphName="acute" x="449" y="349" flags="0x4"/>
    </TTGlyph>
    <TTGlyph name="Nacute.smcp" xMin="118" yMin="0" xMax="1187" yMax="1504">
      <component glyphName="N.smcp" x="0" y="0" flags="0x204"/>
      <component glyphName="acute" x="366" y="26" flags="0x4"/>
    </TTGlyph>
    <TTGlyph name="Ncaron" xMin="114" yMin="0" xMax="1329" yMax="1877">
      <component glyphName="N" x="0" y="0" flags="0x204"/>
      <component glyphName="caron" x="230" y="349" flags="0x4"/>
    </TTGlyph>
    <TTGlyph name="Ncaron.smcp" xMin="118" yMin="0" xMax="1187" yMax="1554">
      <component glyphName="N.smcp" x="0" y="0" flags="0x204"/>
      <component glyphName="caron" x="147" y="26" flags="0x4"/>
    </TTGlyph>
    <TTGlyph name="Ncommaaccent" xMin="114" yMin="-496" xMax="1329" yMax="1456">
      <component glyphName="N" x="0" y="0" flags="0x204"/>
      <component glyphName="commaaccent" x="511" y="-375" flags="0x4"/>
    </TTGlyph>
    <TTGlyph name="Ncommaaccent.smcp" xMin="118" yMin="-498" xMax="1187" yMax="1165">
      <component glyphName="N.smcp" x="0" y="0" flags="0x204"/>
      <component glyphName="commaaccent" x="428" y="-377" flags="0x4"/>
    </TTGlyph>
    <TTGlyph name="Ntilde" xMin="114" yMin="0" xMax="1329" yMax="1912">
      <component glyphName="N" x="0" y="0" flags="0x204"/>
      <component glyphName="tilde" x="223" y="381" flags="0x4"/>
    </TTGlyph>
    <TTGlyph name="Ntilde.smcp" xMin="118" yMin="0" xMax="1187" yMax="1589">
      <component glyphName="N.smcp" x="0" y="0" flags="0x204"/>
      <component glyphName="tilde" x="140" y="58" flags="0x4"/>
    </TTGlyph>
    <TTGlyph name="Nu" xMin="114" yMin="0" xMax="1329" yMax="1456">
      <component glyphName="N" x="0" y="0" flags="0x204"/>
    </TTGlyph>
    <TTGlyph name="O" xMin="81" yMin="-21" xMax="1318" yMax="1477">
      <contour>
        <pt x="1318" y="597" on="1"/>
        <pt x="1318" y="328" on="0"/>
        <pt x="977" y="-21" on="0"/>
        <pt x="702" y="-21" on="1"/>
        <pt x="425" y="-21" on="0"/>
        <pt x="81" y="328" on="0"/>
        <pt x="81" y="597" on="1"/>
        <pt x="81" y="859" on="1"/>
        <pt x="81" y="1127" on="0"/>
        <pt x="424" y="1477" on="0"/>
        <pt x="700" y="1477" on="1"/>
        <pt x="974" y="1477" on="0"/>
        <pt x="1318" y="1127" on="0"/>
        <pt x="1318" y="859" on="1"/>
      </contour>
      <contour>
        <pt x="981" y="861" on="1"/>
        <pt x="981" y="1017" on="0"/>
        <pt x="834" y="1217" on="0"/>
        <pt x="700" y="1217" on="1"/>
        <pt x="563" y="1217" on="0"/>
        <pt x="418" y="1018" on="0"/>
        <pt x="418" y="861" on="1"/>
        <pt x="418" y="597" on="1"/>
        <pt x="418" y="439" on="0"/>
        <pt x="565" y="239" on="0"/>
        <pt x="702" y="239" on="1"/>
        <pt x="835" y="239" on="0"/>
        <pt x="981" y="439" on="0"/>
        <pt x="981" y="597" on="1"/>
      </contour>
    </TTGlyph>
    <TTGlyph name="O.smcp" xMin="81" yMin="-21" xMax="1140" yMax="1181">
      <contour>
        <pt x="1140" y="461" on="1"/>
        <pt x="1140" y="248" on="0"/>
        <pt x="845" y="-21" on="0"/>
        <pt x="611" y="-21" on="1"/>
        <pt x="378" y="-21" on="0"/>
        <pt x="81" y="248" on="0"/>
        <pt x="81" y="461" on="1"/>
        <pt x="81" y="704" on="1"/>
        <pt x="81" y="915" on="0"/>
        <pt x="376" y="1181" on="0"/>
        <pt x="610" y="1181" on="1"/>
        <pt x="844" y="1181" on="0"/>
        <pt x="1140" y="915" on="0"/>
        <pt x="1140" y="704" on="1"/>
      </contour>
      <contour>
        <pt x="803" y="705" on="1"/>
        <pt x="803" y="794" on="0"/>
        <pt x="698" y="924" on="0"/>
        <pt x="610" y="924" on="1"/>
        <pt x="519" y="924" on="0"/>
        <pt x="418" y="795" on="0"/>
        <pt x="418" y="705" on="1"/>
        <pt x="418" y="461" on="1"/>
        <pt x="418" y="370" on="0"/>
        <pt x="520" y="238" on="0"/>
        <pt x="611" y="238" on="1"/>
        <pt x="699" y="238" on="0"/>
        <pt x="803" y="371" on="0"/>
        <pt x="803" y="461" on="1"/>
      </contour>
    </TTGlyph>
    <TTGlyph name="OE" xMin="93" yMin="-21" xMax="1933" yMax="1477">
      <contour>
        <pt x="1931" y="0" on="1"/>
        <pt x="1010" y="0" on="1"/>
        <pt x="918" y="-10" on="0"/>
        <pt x="789" y="-21" on="0"/>
        <pt x="722" y="-21" on="1"/>
        <pt x="442" y="-21" on="0"/>
        <pt x="93" y="311" on="0"/>
        <pt x="93" y="576" on="1"/>
        <pt x="93" y="880" on="1"/>
        <pt x="93" y="1145" on="0"/>
        <pt x="440" y="1477" on="0"/>
        <pt x="720" y="1477" on="1"/>
        <pt x="789" y="1477" on="0"/>
        <pt x="931" y="1465" on="0"/>
        <pt x="1010" y="1456" on="1"/>
        <pt x="1933" y="1456" on="1"/>
        <pt x="1933" y="1196" on="1"/>
        <pt x="1258" y="1196" on="1"/>
        <pt x="1258" y="883" on="1"/>
        <pt x="1829" y="883" on="1"/>
        <pt x="1829" y="623" on="1"/>
        <pt x="1258" y="623" on="1"/>
        <pt x="1258" y="260" on="1"/>
        <pt x="1931" y="260" on="1"/>
      </contour>
      <contour>
        <pt x="722" y="239" on="1"/>
        <pt x="771" y="239" on="0"/>
        <pt x="870" y="245" on="0"/>
        <pt x="919" y="252" on="1"/>
        <pt x="919" y="1203" on="1"/>
        <pt x="867" y="1209" on="0"/>
        <pt x="768" y="1217" on="0"/>
        <pt x="720" y="1217" on="1"/>
        <pt x="582" y="1217" on="0"/>
        <pt x="430" y="1046" on="0"/>
        <pt x="430" y="882" on="1"/>
        <pt x="430" y="576" on="1"/>
        <pt x="430" y="411" on="0"/>
        <pt x="584" y="239" on="0"/>
      </contour>
    </TTGlyph>
    <TTGlyph name="Oacute" xMin="81" yMin="-21" xMax="1318" yMax="1848">
      <component glyphName="O" x="0" y="0" flags="0x204"/>
      <component glyphName="acute" x="427" y="370" flags="0x4"/>
    </TTGlyph>
    <TTGlyph name="Oacute.smcp" xMin="81" yMin="-21" xMax="1140" yMax="1525">
      <component glyphName="O.smcp" x="0" y="0" flags="0x204"/>
      <component glyphName="acute" x="325" y="47" flags="0x4"/>
    </TTGlyph>
    <TTGlyph name="Obreve" xMin="81" yMin="-21" xMax="1318" yMax="1929">
      <component glyphName="O" x="0" y="0" flags="0x204"/>
      <component glyphName="breve" x="237" y="473" flags="0x4"/>
    </TTGlyph>
    <TTGlyph name="Obreve.smcp" xMin="81" yMin="-21" xMax="1140" yMax="1606">
      <component glyphName="O.smcp" x="0" y="0" flags="0x204"/>
      <component glyphName="breve" x="135" y="150" flags="0x4"/>
    </TTGlyph>
    <TTGlyph name="Ocircumflex" xMin="81" yMin="-21" xMax="1318" yMax="1874">
      <component glyphName="O" x="0" y="0" flags="0x204"/>
      <component glyphName="circumflex" x="184" y="356" flags="0x4"/>
    </TTGlyph>
    <TTGlyph name="Ocircumflex.smcp" xMin="81" yMin="-21" xMax="1140" yMax="1551">
      <component glyphName="O.smcp" x="0" y="0" flags="0x204"/>
      <component glyphName="circumflex" x="82" y="33" flags="0x4"/>
    </TTGlyph>
    <TTGlyph name="Odieresis" xMin="81" yMin="-21" xMax="1318" yMax="1826">
      <component glyphName="O" x="0" y="0" flags="0x204"/>
      <component glyphName="dieresis" x="150" y="370" flags="0x4"/>
    </TTGlyph>
    <TTGlyph name="Odieresis.smcp" xMin="81" yMin="-21" xMax="1140" yMax="1503">
      <component glyphName="O.smcp" x="0" y="0" flags="0x204"/>
      <component glyphName="dieresis" x="48" y="47" flags="0x4"/>
    </TTGlyph>
    <TTGlyph name="Ograve" xMin="81" yMin="-21" xMax="1318" yMax="1846">
      <component glyphName="O" x="0" y="0" flags="0x204"/>
      <component glyphName="grave" x="249" y="368" flags="0x4"/>
    </TTGlyph>
    <TTGlyph name="Ograve.smcp" xMin="81" yMin="-21" xMax="1140" yMax="1523">
      <component glyphName="O.smcp" x="0" y="0" flags="0x204"/>
      <component glyphName="grave" x="147" y="45" flags="0x4"/>
    </TTGlyph>
    <TTGlyph name="Ohorn" xMin="90" yMin="-21" xMax="1576" yMax="1596">
      <contour>
        <pt x="1327" y="597" on="1"/>
        <pt x="1327" y="328" on="0"/>
        <pt x="986" y="-21" on="0"/>
        <pt x="711" y="-21" on="1"/>
        <pt x="434" y="-21" on="0"/>
        <pt x="90" y="328" on="0"/>
        <pt x="90" y="597" on="1"/>
        <pt x="90" y="859" on="1"/>
        <pt x="90" y="1127" on="0"/>
        <pt x="433" y="1477" on="0"/>
        <pt x="709" y="1477" on="1"/>
        <pt x="849" y="1477" on="0"/>
        <pt x="1084" y="1378" on="0"/>
        <pt x="1167" y="1289" on="1"/>
        <pt x="1258" y="1323" on="0"/>
        <pt x="1352" y="1480" on="0"/>
        <pt x="1352" y="1596" on="1"/>
        <pt x="1576" y="1596" on="1"/>
        <pt x="1576" y="1408" on="0"/>
        <pt x="1427" y="1151" on="0"/>
        <pt x="1288" y="1091" on="1"/>
        <pt x="1307" y="1036" on="0"/>
        <pt x="1327" y="920" on="0"/>
        <pt x="1327" y="859" on="1"/>
      </contour>
      <contour>
        <pt x="990" y="861" on="1"/>
        <pt x="990" y="1017" on="0"/>
        <pt x="843" y="1217" on="0"/>
        <pt x="709" y="1217" on="1"/>
        <pt x="572" y="1217" on="0"/>
        <pt x="427" y="1018" on="0"/>
        <pt x="427" y="861" on="1"/>
        <pt x="427" y="597" on="1"/>
        <pt x="427" y="439" on="0"/>
        <pt x="574" y="239" on="0"/>
        <pt x="711" y="239" on="1"/>
        <pt x="844" y="239" on="0"/>
        <pt x="990" y="439" on="0"/>
        <pt x="990" y="597" on="1"/>
      </contour>
    </TTGlyph>
    <TTGlyph name="Ohungarumlaut" xMin="81" yMin="-21" xMax="1318" yMax="1888">
      <component glyphName="O" x="0" y="0" flags="0x204"/>
      <component glyphName="hungarumlaut" x="192" y="370" flags="0x4"/>
    </TTGlyph>
    <TTGlyph name="Ohungarumlaut.smcp" xMin="81" yMin="-21" xMax="1180" yMax="1565">
      <component glyphName="O.smcp" x="0" y="0" flags="0x204"/>
      <component glyphName="hungarumlaut" x="90" y="47" flags="0x4"/>
    </TTGlyph>
    <TTGlyph name="Omacron" xMin="81" yMin="-21" xMax="1318" yMax="1795">
      <component glyphName="O" x="0" y="0" flags="0x204"/>
      <component glyphName="macron" x="172" y="337" flags="0x4"/>
    </TTGlyph>
    <TTGlyph name="Omacron.smcp" xMin="81" yMin="-21" xMax="1140" yMax="1472">
      <component glyphName="O.smcp" x="0" y="0" flags="0x204"/>
      <component glyphName="macron" x="70" y="14" flags="0x4"/>
    </TTGlyph>
    <TTGlyph name="Omega" xMin="100" yMin="0" xMax="1266" yMax="1477">
      <contour>
        <pt x="735" y="268" on="1"/>
        <pt x="803" y="308" on="0"/>
        <pt x="883" y="558" on="0"/>
        <pt x="883" y="788" on="1"/>
        <pt x="883" y="869" on="1"/>
        <pt x="883" y="1037" on="0"/>
        <pt x="777" y="1213" on="0"/>
        <pt x="682" y="1213" on="1"/>
        <pt x="588" y="1213" on="0"/>
        <pt x="484" y="1036" on="0"/>
        <pt x="484" y="869" on="1"/>
        <pt x="484" y="788" on="1"/>
        <pt x="484" y="556" on="0"/>
        <pt x="565" y="307" on="0"/>
        <pt x="637" y="268" on="1"/>
        <pt x="637" y="0" on="1"/>
        <pt x="130" y="0" on="1"/>
        <pt x="130" y="264" on="1"/>
        <pt x="380" y="264" on="1"/>
        <pt x="255" y="351" on="0"/>
        <pt x="100" y="626" on="0"/>
        <pt x="100" y="788" on="1"/>
        <pt x="100" y="867" on="1"/>
        <pt x="100" y="1135" on="0"/>
        <pt x="423" y="1477" on="0"/>
        <pt x="682" y="1477" on="1"/>
        <pt x="940" y="1477" on="0"/>
        <pt x="1266" y="1134" on="0"/>
        <pt x="1266" y="867" on="1"/>
        <pt x="1266" y="788" on="1"/>
        <pt x="1266" y="626" on="0"/>
        <pt x="1110" y="351" on="0"/>
        <pt x="987" y="264" on="1"/>
        <pt x="1244" y="264" on="1"/>
        <pt x="1244" y="0" on="1"/>
        <pt x="735" y="0" on="1"/>
      </contour>
    </TTGlyph>
    <TTGlyph name="Omegatonos" xMin="-68" yMin="0" xMax="1286" yMax="1618">
      <component glyphName="Omega" x="20" y="0" flags="0x4"/>
      <component glyphName="tonos" x="-328" y="0" flags="0x4"/>
    </TTGlyph>
    <TTGlyph name="Omicron" xMin="81" yMin="-21" xMax="1318" yMax="1477">
      <component glyphName="O" x="0" y="0" flags="0x204"/>
    </TTGlyph>
    <TTGlyph name="Omicrontonos" xMin="-56" yMin="-21" xMax="1338" yMax="1618">
      <component glyphName="O" x="20" y="0" flags="0x4"/>
      <component glyphName="tonos" x="-316" y="0" flags="0x4"/>
    </TTGlyph>
    <TTGlyph name="Oslash" xMin="89" yMin="-95" xMax="1326" yMax="1518">
      <contour>
        <pt x="1326" y="597" on="1"/>
        <pt x="1326" y="328" on="0"/>
        <pt x="985" y="-21" on="0"/>
        <pt x="710" y="-21" on="1"/>
        <pt x="632" y="-21" on="0"/>
        <pt x="490" y="9" on="0"/>
        <pt x="428" y="38" on="1"/>
        <pt x="351" y="-95" on="1"/>
        <pt x="211" y="-95" on="1"/>
        <pt x="323" y="99" on="1"/>
        <pt x="211" y="182" on="0"/>
        <pt x="89" y="441" on="0"/>
        <pt x="89" y="597" on="1"/>
        <pt x="89" y="859" on="1"/>
        <pt x="89" y="1127" on="0"/>
        <pt x="432" y="1477" on="0"/>
        <pt x="708" y="1477" on="1"/>
        <pt x="809" y="1477" on="0"/>
        <pt x="988" y="1425" on="0"/>
        <pt x="1062" y="1377" on="1"/>
        <pt x="1144" y="1518" on="1"/>
        <pt x="1284" y="1518" on="1"/>
        <pt x="1157" y="1299" on="1"/>
        <pt x="1238" y="1215" on="0"/>
        <pt x="1326" y="990" on="0"/>
        <pt x="1326" y="859" on="1"/>
      </contour>
      <contour>
        <pt x="426" y="597" on="1"/>
        <pt x="426" y="531" on="0"/>
        <pt x="452" y="417" on="0"/>
        <pt x="477" y="377" on="1"/>
        <pt x="483" y="376" on="1"/>
        <pt x="913" y="1120" on="1"/>
        <pt x="876" y="1166" on="0"/>
        <pt x="773" y="1217" on="0"/>
        <pt x="708" y="1217" on="1"/>
        <pt x="571" y="1217" on="0"/>
        <pt x="426" y="1018" on="0"/>
        <pt x="426" y="861" on="1"/>
      </contour>
      <contour>
        <pt x="989" y="861" on="1"/>
        <pt x="989" y="892" on="0"/>
        <pt x="982" y="953" on="0"/>
        <pt x="976" y="975" on="1"/>
        <pt x="970" y="976" on="1"/>
        <pt x="566" y="278" on="1"/>
        <pt x="596" y="258" on="0"/>
        <pt x="668" y="239" on="0"/>
        <pt x="710" y="239" on="1"/>
        <pt x="843" y="239" on="0"/>
        <pt x="989" y="439" on="0"/>
        <pt x="989" y="597" on="1"/>
      </contour>
    </TTGlyph>
    <TTGlyph name="Oslashacute" xMin="89" yMin="-95" xMax="1326" yMax="1889">
      <component glyphName="Oslash" x="0" y="0" flags="0x204"/>
      <component glyphName="acute" x="448" y="411" flags="0x4"/>
    </TTGlyph>
    <TTGlyph name="Otilde" xMin="81" yMin="-21" xMax="1318" yMax="1933">
      <component glyphName="O" x="0" y="0" flags="0x204"/>
      <component glyphName="tilde" x="201" y="402" flags="0x4"/>
    </TTGlyph>
    <TTGlyph name="Otilde.smcp" xMin="81" yMin="-21" xMax="1140" yMax="1610">
      <component glyphName="O.smcp" x="0" y="0" flags="0x204"/>
      <component glyphName="tilde" x="99" y="79" flags="0x4"/>
    </TTGlyph>
    <TTGlyph name="P" xMin="114" yMin="0" xMax="1268" yMax="1456">
      <contour>
        <pt x="453" y="499" on="1"/>
        <pt x="453" y="0" on="1"/>
        <pt x="114" y="0" on="1"/>
        <pt x="114" y="1456" on="1"/>
        <pt x="705" y="1456" on="1"/>
        <pt x="964" y="1456" on="0"/>
        <pt x="1268" y="1191" on="0"/>
        <pt x="1268" y="977" on="1"/>
        <pt x="1268" y="762" on="0"/>
        <pt x="964" y="499" on="0"/>
        <pt x="705" y="499" on="1"/>
      </contour>
      <contour>
        <pt x="453" y="759" on="1"/>
        <pt x="705" y="759" on="1"/>
        <pt x="815" y="759" on="0"/>
        <pt x="930" y="880" on="0"/>
        <pt x="930" y="975" on="1"/>
        <pt x="930" y="1072" on="0"/>
        <pt x="815" y="1196" on="0"/>
        <pt x="705" y="1196" on="1"/>
        <pt x="453" y="1196" on="1"/>
      </contour>
    </TTGlyph>
    <TTGlyph name="P.smcp" xMin="118" yMin="0" xMax="1157" yMax="1165">
      <contour>
        <pt x="455" y="337" on="1"/>
        <pt x="455" y="0" on="1"/>
        <pt x="118" y="0" on="1"/>
        <pt x="118" y="1165" on="1"/>
        <pt x="639" y="1165" on="1"/>
        <pt x="870" y="1165" on="0"/>
        <pt x="1157" y="932" on="0"/>
        <pt x="1157" y="751" on="1"/>
        <pt x="1157" y="569" on="0"/>
        <pt x="870" y="337" on="0"/>
        <pt x="639" y="337" on="1"/>
      </contour>
      <contour>
        <pt x="455" y="596" on="1"/>
        <pt x="639" y="596" on="1"/>
        <pt x="720" y="596" on="0"/>
        <pt x="821" y="685" on="0"/>
        <pt x="821" y="749" on="1"/>
        <pt x="821" y="813" on="0"/>
        <pt x="720" y="907" on="0"/>
        <pt x="639" y="907" on="1"/>
        <pt x="455" y="907" on="1"/>
      </contour>
    </TTGlyph>
    <TTGlyph name="Phi" xMin="73" yMin="0" xMax="1560" yMax="1456">
      <contour>
        <pt x="988" y="1291" on="1"/>
        <pt x="1247" y="1278" on="0"/>
        <pt x="1560" y="970" on="0"/>
        <pt x="1560" y="719" on="1"/>
        <pt x="1560" y="475" on="0"/>
        <pt x="1247" y="176" on="0"/>
        <pt x="988" y="165" on="1"/>
        <pt x="988" y="0" on="1"/>
        <pt x="650" y="0" on="1"/>
        <pt x="650" y="165" on="1"/>
        <pt x="389" y="174" on="0"/>
        <pt x="73" y="472" on="0"/>
        <pt x="73" y="717" on="1"/>
        <pt x="73" y="969" on="0"/>
        <pt x="389" y="1279" on="0"/>
        <pt x="650" y="1291" on="1"/>
        <pt x="650" y="1456" on="1"/>
        <pt x="988" y="1456" on="1"/>
      </contour>
      <contour>
        <pt x="404" y="717" on="1"/>
        <pt x="404" y="592" on="0"/>
        <pt x="534" y="457" on="0"/>
        <pt x="644" y="453" on="1"/>
        <pt x="650" y="455" on="1"/>
        <pt x="650" y="999" on="1"/>
        <pt x="644" y="1001" on="1"/>
        <pt x="534" y="996" on="0"/>
        <pt x="404" y="850" on="0"/>
      </contour>
      <contour>
        <pt x="1230" y="719" on="1"/>
        <pt x="1230" y="851" on="0"/>
        <pt x="1101" y="996" on="0"/>
        <pt x="994" y="1001" on="1"/>
        <pt x="988" y="999" on="1"/>
        <pt x="988" y="455" on="1"/>
        <pt x="994" y="453" on="1"/>
        <pt x="1101" y="458" on="0"/>
        <pt x="1230" y="595" on="0"/>
      </contour>
    </TTGlyph>
    <TTGlyph name="Pi" xMin="114" yMin="0" xMax="1329" yMax="1456">
      <contour>
        <pt x="1329" y="0" on="1"/>
        <pt x="991" y="0" on="1"/>
        <pt x="991" y="1196" on="1"/>
        <pt x="453" y="1196" on="1"/>
        <pt x="453" y="0" on="1"/>
        <pt x="114" y="0" on="1"/>
        <pt x="114" y="1456" on="1"/>
        <pt x="1329" y="1456" on="1"/>
      </contour>
    </TTGlyph>
    <TTGlyph name="Psi" xMin="41" yMin="0" xMax="1479" yMax="1456">
      <contour>
        <pt x="938" y="632" on="1"/>
        <pt x="944" y="630" on="1"/>
        <pt x="1045" y="643" on="0"/>
        <pt x="1140" y="810" on="0"/>
        <pt x="1140" y="969" on="1"/>
        <pt x="1140" y="1456" on="1"/>
        <pt x="1479" y="1456" on="1"/>
        <pt x="1479" y="969" on="1"/>
        <pt x="1479" y="701" on="0"/>
        <pt x="1190" y="383" on="0"/>
        <pt x="938" y="358" on="1"/>
        <pt x="938" y="0" on="1"/>
        <pt x="601" y="0" on="1"/>
        <pt x="601" y="356" on="1"/>
        <pt x="339" y="376" on="0"/>
        <pt x="41" y="695" on="0"/>
        <pt x="41" y="969" on="1"/>
        <pt x="41" y="1456" on="1"/>
        <pt x="378" y="1456" on="1"/>
        <pt x="378" y="969" on="1"/>
        <pt x="378" y="817" on="0"/>
        <pt x="488" y="647" on="0"/>
        <pt x="595" y="631" on="1"/>
        <pt x="601" y="633" on="1"/>
        <pt x="601" y="1456" on="1"/>
        <pt x="938" y="1456" on="1"/>
      </contour>
    </TTGlyph>
    <TTGlyph name="Q" xMin="89" yMin="-235" xMax="1414" yMax="1477">
      <contour>
        <pt x="1326" y="597" on="1"/>
        <pt x="1326" y="470" on="0"/>
        <pt x="1245" y="250" on="0"/>
        <pt x="1170" y="168" on="1"/>
        <pt x="1414" y="-68" on="1"/>
        <pt x="1208" y="-235" on="1"/>
        <pt x="947" y="20" on="1"/>
        <pt x="892" y="0" on="0"/>
        <pt x="773" y="-21" on="0"/>
        <pt x="710" y="-21" on="1"/>
        <pt x="433" y="-21" on="0"/>
        <pt x="89" y="328" on="0"/>
        <pt x="89" y="597" on="1"/>
        <pt x="89" y="859" on="1"/>
        <pt x="89" y="1127" on="0"/>
        <pt x="432" y="1477" on="0"/>
        <pt x="708" y="1477" on="1"/>
        <pt x="982" y="1477" on="0"/>
        <pt x="1326" y="1127" on="0"/>
        <pt x="1326" y="859" on="1"/>
      </contour>
      <contour>
        <pt x="989" y="861" on="1"/>
        <pt x="989" y="1017" on="0"/>
        <pt x="842" y="1217" on="0"/>
        <pt x="708" y="1217" on="1"/>
        <pt x="571" y="1217" on="0"/>
        <pt x="426" y="1018" on="0"/>
        <pt x="426" y="861" on="1"/>
        <pt x="426" y="597" on="1"/>
        <pt x="426" y="439" on="0"/>
        <pt x="573" y="239" on="0"/>
        <pt x="710" y="239" on="1"/>
        <pt x="843" y="239" on="0"/>
        <pt x="989" y="439" on="0"/>
        <pt x="989" y="597" on="1"/>
      </contour>
    </TTGlyph>
    <TTGlyph name="Q.smcp" xMin="87" yMin="-150" xMax="1156" yMax="1181">
      <contour>
        <pt x="1146" y="461" on="1"/>
        <pt x="1146" y="365" on="0"/>
        <pt x="1082" y="201" on="0"/>
        <pt x="1023" y="138" on="1"/>
        <pt x="1156" y="2" on="1"/>
        <pt x="945" y="-150" on="1"/>
        <pt x="794" y="3" on="1"/>
        <pt x="752" y="-8" on="0"/>
        <pt x="663" y="-21" on="0"/>
        <pt x="617" y="-21" on="1"/>
        <pt x="383" y="-21" on="0"/>
        <pt x="87" y="248" on="0"/>
        <pt x="87" y="461" on="1"/>
        <pt x="87" y="704" on="1"/>
        <pt x="87" y="915" on="0"/>
        <pt x="381" y="1181" on="0"/>
        <pt x="616" y="1181" on="1"/>
        <pt x="849" y="1181" on="0"/>
        <pt x="1146" y="915" on="0"/>
        <pt x="1146" y="704" on="1"/>
      </contour>
      <contour>
        <pt x="809" y="705" on="1"/>
        <pt x="809" y="794" on="0"/>
        <pt x="704" y="924" on="0"/>
        <pt x="616" y="924" on="1"/>
        <pt x="524" y="924" on="0"/>
        <pt x="424" y="795" on="0"/>
        <pt x="424" y="705" on="1"/>
        <pt x="424" y="461" on="1"/>
        <pt x="424" y="370" on="0"/>
        <pt x="525" y="238" on="0"/>
        <pt x="617" y="238" on="1"/>
        <pt x="705" y="238" on="0"/>
        <pt x="809" y="371" on="0"/>
        <pt x="809" y="461" on="1"/>
      </contour>
    </TTGlyph>
    <TTGlyph name="R" xMin="114" yMin="0" xMax="1315" yMax="1456">
      <contour>
        <pt x="453" y="558" on="1"/>
        <pt x="453" y="0" on="1"/>
        <pt x="114" y="0" on="1"/>
        <pt x="114" y="1456" on="1"/>
        <pt x="674" y="1456" on="1"/>
        <pt x="927" y="1456" on="0"/>
        <pt x="1223" y="1222" on="0"/>
        <pt x="1223" y="1019" on="1"/>
        <pt x="1223" y="906" on="0"/>
        <pt x="1104" y="744" on="0"/>
        <pt x="988" y="693" on="1"/>
        <pt x="1122" y="655" on="0"/>
        <pt x="1239" y="478" on="0"/>
        <pt x="1239" y="346" on="1"/>
        <pt x="1239" y="254" on="1"/>
        <pt x="1239" y="197" on="0"/>
        <pt x="1273" y="51" on="0"/>
        <pt x="1315" y="20" on="1"/>
        <pt x="1315" y="0" on="1"/>
        <pt x="967" y="0" on="1"/>
        <pt x="927" y="31" on="0"/>
        <pt x="902" y="189" on="0"/>
        <pt x="902" y="256" on="1"/>
        <pt x="902" y="344" on="1"/>
        <pt x="902" y="448" on="0"/>
        <pt x="792" y="558" on="0"/>
        <pt x="686" y="558" on="1"/>
      </contour>
      <contour>
        <pt x="453" y="818" on="1"/>
        <pt x="676" y="818" on="1"/>
        <pt x="778" y="818" on="0"/>
        <pt x="886" y="911" on="0"/>
        <pt x="886" y="998" on="1"/>
        <pt x="886" y="1087" on="0"/>
        <pt x="775" y="1196" on="0"/>
        <pt x="674" y="1196" on="1"/>
        <pt x="453" y="1196" on="1"/>
      </contour>
    </TTGlyph>
    <TTGlyph name="R.smcp" xMin="118" yMin="0" xMax="1117" yMax="1165">
      <contour>
        <pt x="455" y="387" on="1"/>
        <pt x="455" y="0" on="1"/>
        <pt x="118" y="0" on="1"/>
        <pt x="118" y="1165" on="1"/>
        <pt x="580" y="1165" on="1"/>
        <pt x="800" y="1165" on="0"/>
        <pt x="1068" y="970" on="0"/>
        <pt x="1068" y="808" on="1"/>
        <pt x="1068" y="709" on="0"/>
        <pt x="964" y="562" on="0"/>
        <pt x="863" y="516" on="1"/>
        <pt x="982" y="486" on="0"/>
        <pt x="1088" y="342" on="0"/>
        <pt x="1088" y="237" on="1"/>
        <pt x="1088" y="172" on="1"/>
        <pt x="1088" y="140" on="0"/>
        <pt x="1100" y="30" on="0"/>
        <pt x="1117" y="12" on="1"/>
        <pt x="1117" y="0" on="1"/>
        <pt x="768" y="0" on="1"/>
        <pt x="757" y="17" on="0"/>
        <pt x="751" y="124" on="0"/>
        <pt x="751" y="173" on="1"/>
        <pt x="751" y="236" on="1"/>
        <pt x="751" y="312" on="0"/>
        <pt x="663" y="387" on="0"/>
        <pt x="577" y="387" on="1"/>
      </contour>
      <contour>
        <pt x="455" y="646" on="1"/>
        <pt x="580" y="646" on="1"/>
        <pt x="647" y="646" on="0"/>
        <pt x="730" y="719" on="0"/>
        <pt x="730" y="780" on="1"/>
        <pt x="730" y="831" on="0"/>
        <pt x="645" y="907" on="0"/>
        <pt x="580" y="907" on="1"/>
        <pt x="455" y="907" on="1"/>
      </contour>
    </TTGlyph>
    <TTGlyph name="Racute" xMin="114" yMin="0" xMax="1315" yMax="1827">
      <component glyphName="R" x="0" y="0" flags="0x204"/>
      <component glyphName="acute" x="362" y="349" flags="0x4"/>
    </TTGlyph>
    <TTGlyph name="Racute.smcp" xMin="118" yMin="0" xMax="1117" yMax="1504">
      <component glyphName="R.smcp" x="0" y="0" flags="0x204"/>
      <component glyphName="acute" x="282" y="26" flags="0x4"/>
    </TTGlyph>
    <TTGlyph name="Rcaron" xMin="114" yMin="0" xMax="1315" yMax="1877">
      <component glyphName="R" x="0" y="0" flags="0x204"/>
      <component glyphName="caron" x="143" y="349" flags="0x4"/>
    </TTGlyph>
    <TTGlyph name="Rcaron.smcp" xMin="118" yMin="0" xMax="1117" yMax="1554">
      <component glyphName="R.smcp" x="0" y="0" flags="0x204"/>
      <component glyphName="caron" x="63" y="26" flags="0x4"/>
    </TTGlyph>
    <TTGlyph name="Rcommaaccent" xMin="114" yMin="-496" xMax="1315" yMax="1456">
      <component glyphName="R" x="0" y="0" flags="0x204"/>
      <component glyphName="commaaccent" x="424" y="-375" flags="0x4"/>
    </TTGlyph>
    <TTGlyph name="Rcommaaccent.smcp" xMin="118" yMin="-498" xMax="1117" yMax="1165">
      <component glyphName="R.smcp" x="0" y="0" flags="0x204"/>
      <component glyphName="commaaccent" x="344" y="-377" flags="0x4"/>
    </TTGlyph>
    <TTGlyph name="Rho" xMin="114" yMin="0" xMax="1268" yMax="1456">
      <component glyphName="P" x="0" y="0" flags="0x204"/>
    </TTGlyph>
    <TTGlyph name="S" xMin="69" yMin="-21" xMax="1225" yMax="1477">
      <contour>
        <pt x="887" y="386" on="1"/>
        <pt x="887" y="463" on="0"/>
        <pt x="785" y="547" on="0"/>
        <pt x="653" y="594" on="1"/>
        <pt x="377" y="681" on="0"/>
        <pt x="111" y="880" on="0"/>
        <pt x="111" y="1068" on="1"/>
        <pt x="111" y="1251" on="0"/>
        <pt x="428" y="1477" on="0"/>
        <pt x="672" y="1477" on="1"/>
        <pt x="914" y="1477" on="0"/>
        <pt x="1223" y="1228" on="0"/>
        <pt x="1218" y="1032" on="1"/>
        <pt x="1216" y="1026" on="1"/>
        <pt x="888" y="1026" on="1"/>
        <pt x="888" y="1113" on="0"/>
        <pt x="770" y="1222" on="0"/>
        <pt x="666" y="1222" on="1"/>
        <pt x="564" y="1222" on="0"/>
        <pt x="448" y="1132" on="0"/>
        <pt x="448" y="1066" on="1"/>
        <pt x="448" y="1002" on="0"/>
        <pt x="565" y="925" on="0"/>
        <pt x="726" y="867" on="1"/>
        <pt x="974" y="793" on="0"/>
        <pt x="1225" y="577" on="0"/>
        <pt x="1225" y="388" on="1"/>
        <pt x="1225" y="196" on="0"/>
        <pt x="926" y="-21" on="0"/>
        <pt x="679" y="-21" on="1"/>
        <pt x="431" y="-21" on="0"/>
        <pt x="69" y="228" on="0"/>
        <pt x="74" y="462" on="1"/>
        <pt x="76" y="468" on="1"/>
        <pt x="405" y="468" on="1"/>
        <pt x="405" y="342" on="0"/>
        <pt x="541" y="234" on="0"/>
        <pt x="679" y="234" on="1"/>
        <pt x="784" y="234" on="0"/>
        <pt x="887" y="318" on="0"/>
      </contour>
    </TTGlyph>
    <TTGlyph name="S.smcp" xMin="53" yMin="-21" xMax="1064" yMax="1182">
      <contour>
        <pt x="728" y="332" on="1"/>
        <pt x="728" y="378" on="0"/>
        <pt x="646" y="442" on="0"/>
        <pt x="540" y="463" on="1"/>
        <pt x="307" y="501" on="0"/>
        <pt x="101" y="663" on="0"/>
        <pt x="101" y="831" on="1"/>
        <pt x="101" y="977" on="0"/>
        <pt x="353" y="1182" on="0"/>
        <pt x="566" y="1182" on="1"/>
        <pt x="790" y="1182" on="0"/>
        <pt x="1042" y="978" on="0"/>
        <pt x="1037" y="810" on="1"/>
        <pt x="1035" y="804" on="1"/>
        <pt x="707" y="804" on="1"/>
        <pt x="707" y="866" on="0"/>
        <pt x="647" y="925" on="0"/>
        <pt x="566" y="925" on="1"/>
        <pt x="495" y="925" on="0"/>
        <pt x="436" y="873" on="0"/>
        <pt x="436" y="833" on="1"/>
        <pt x="436" y="782" on="0"/>
        <pt x="512" y="720" on="0"/>
        <pt x="636" y="698" on="1"/>
        <pt x="851" y="662" on="0"/>
        <pt x="1064" y="498" on="0"/>
        <pt x="1064" y="337" on="1"/>
        <pt x="1064" y="181" on="0"/>
        <pt x="792" y="-21" on="0"/>
        <pt x="572" y="-21" on="1"/>
        <pt x="321" y="-21" on="0"/>
        <pt x="53" y="192" on="0"/>
        <pt x="60" y="359" on="1"/>
        <pt x="62" y="365" on="1"/>
        <pt x="390" y="365" on="1"/>
        <pt x="393" y="293" on="0"/>
        <pt x="481" y="237" on="0"/>
        <pt x="572" y="237" on="1"/>
        <pt x="658" y="237" on="0"/>
        <pt x="728" y="288" on="0"/>
      </contour>
    </TTGlyph>
    <TTGlyph name="Sacute" xMin="69" yMin="-21" xMax="1225" yMax="1848">
      <component glyphName="S" x="0" y="0" flags="0x204"/>
      <component glyphName="acute" x="384" y="370" flags="0x4"/>
    </TTGlyph>
    <TTGlyph name="Sacute.smcp" xMin="53" yMin="-21" xMax="1064" yMax="1526">
      <component glyphName="S.smcp" x="0" y="0" flags="0x204"/>
      <component glyphName="acute" x="277" y="48" flags="0x4"/>
    </TTGlyph>
    <TTGlyph name="Scaron" xMin="69" yMin="-21" xMax="1225" yMax="1898">
      <component glyphName="S" x="0" y="0" flags="0x204"/>
      <component glyphName="caron" x="165" y="370" flags="0x4"/>
    </TTGlyph>
    <TTGlyph name="Scaron.smcp" xMin="53" yMin="-21" xMax="1064" yMax="1576">
      <component glyphName="S.smcp" x="0" y="0" flags="0x204"/>
      <component glyphName="caron" x="58" y="48" flags="0x4"/>
    </TTGlyph>
    <TTGlyph name="Scedilla" xMin="69" yMin="-480" xMax="1225" yMax="1477">
      <component glyphName="S" x="0" y="0" flags="0x204"/>
      <component glyphName="cedilla" x="441" y="-8" flags="0x4"/>
    </TTGlyph>
    <TTGlyph name="Scedilla.smcp" xMin="53" yMin="-478" xMax="1064" yMax="1182">
      <component glyphName="S.smcp" x="0" y="0" flags="0x204"/>
      <component glyphName="cedilla" x="308" y="-6" flags="0x4"/>
    </TTGlyph>
    <TTGlyph name="Scircumflex" xMin="69" yMin="-21" xMax="1225" yMax="1874">
      <component glyphName="S" x="0" y="0" flags="0x204"/>
      <component glyphName="circumflex" x="141" y="356" flags="0x4"/>
    </TTGlyph>
    <TTGlyph name="Scircumflex.smcp" xMin="53" yMin="-21" xMax="1064" yMax="1552">
      <component glyphName="S.smcp" x="0" y="0" flags="0x204"/>
      <component glyphName="circumflex" x="34" y="34" flags="0x4"/>
    </TTGlyph>
    <TTGlyph name="Sigma" xMin="73" yMin="0" xMax="1109" yMax="1456">
      <contour>
        <pt x="855" y="731" on="1"/>
        <pt x="530" y="260" on="1"/>
        <pt x="1109" y="260" on="1"/>
        <pt x="1109" y="0" on="1"/>
        <pt x="73" y="0" on="1"/>
        <pt x="73" y="152" on="1"/>
        <pt x="498" y="738" on="1"/>
        <pt x="73" y="1306" on="1"/>
        <pt x="73" y="1456" on="1"/>
        <pt x="1094" y="1456" on="1"/>
        <pt x="1094" y="1196" on="1"/>
        <pt x="535" y="1196" on="1"/>
        <pt x="855" y="745" on="1"/>
      </contour>
    </TTGlyph>
    <TTGlyph name="T" xMin="26" yMin="0" xMax="1130" yMax="1456">
      <contour>
        <pt x="1130" y="1196" on="1"/>
        <pt x="746" y="1196" on="1"/>
        <pt x="746" y="0" on="1"/>
        <pt x="407" y="0" on="1"/>
        <pt x="407" y="1196" on="1"/>
        <pt x="26" y="1196" on="1"/>
        <pt x="26" y="1456" on="1"/>
        <pt x="1130" y="1456" on="1"/>
      </contour>
    </TTGlyph>
    <TTGlyph name="T.smcp" xMin="37" yMin="0" xMax="1053" yMax="1165">
      <contour>
        <pt x="1053" y="907" on="1"/>
        <pt x="712" y="907" on="1"/>
        <pt x="712" y="0" on="1"/>
        <pt x="373" y="0" on="1"/>
        <pt x="373" y="907" on="1"/>
        <pt x="37" y="907" on="1"/>
        <pt x="37" y="1165" on="1"/>
        <pt x="1053" y="1165" on="1"/>
      </contour>
    </TTGlyph>
    <TTGlyph name="Tau" xMin="26" yMin="0" xMax="1130" yMax="1456">
      <component glyphName="T" x="0" y="0" flags="0x204"/>
    </TTGlyph>
    <TTGlyph name="Tbar" xMin="26" yMin="0" xMax="1130" yMax="1456">
      <contour>
        <pt x="931" y="723" on="1"/>
        <pt x="746" y="723" on="1"/>
        <pt x="746" y="0" on="1"/>
        <pt x="407" y="0" on="1"/>
        <pt x="407" y="723" on="1"/>
        <pt x="245" y="723" on="1"/>
        <pt x="245" y="914" on="1"/>
        <pt x="407" y="914" on="1"/>
        <pt x="407" y="1196" on="1"/>
        <pt x="26" y="1196" on="1"/>
        <pt x="26" y="1456" on="1"/>
        <pt x="1130" y="1456" on="1"/>
        <pt x="1130" y="1196" on="1"/>
        <pt x="746" y="1196" on="1"/>
        <pt x="746" y="914" on="1"/>
        <pt x="931" y="914" on="1"/>
      </contour>
    </TTGlyph>
    <TTGlyph name="Tbar.smcp" xMin="37" yMin="0" xMax="1053" yMax="1165">
      <component glyphName="T.smcp" x="0" y="0" flags="0x204"/>
      <component glyphName="crossbar" x="48" y="-89" flags="0x4"/>
    </TTGlyph>
    <TTGlyph name="Tcaron" xMin="26" yMin="0" xMax="1130" yMax="1877">
      <component glyphName="T" x="0" y="0" flags="0x204"/>
      <component glyphName="caron" x="87" y="349" flags="0x4"/>
    </TTGlyph>
    <TTGlyph name="Tcaron.smcp" xMin="37" yMin="0" xMax="1053" yMax="1554">
      <component glyphName="T.smcp" x="0" y="0" flags="0x204"/>
      <component glyphName="caron" x="49" y="26" flags="0x4"/>
    </TTGlyph>
    <TTGlyph name="Tcommaaccent.smcp" xMin="37" yMin="-498" xMax="1053" yMax="1165">
      <component glyphName="T.smcp" x="0" y="0" flags="0x204"/>
      <component glyphName="commaaccent" x="330" y="-377" flags="0x4"/>
    </TTGlyph>
    <TTGlyph name="Theta" xMin="76" yMin="-21" xMax="1313" yMax="1477">
      <contour>
        <pt x="870" y="589" on="1"/>
        <pt x="555" y="589" on="1"/>
        <pt x="555" y="848" on="1"/>
        <pt x="870" y="848" on="1"/>
      </contour>
      <contour>
        <pt x="1313" y="597" on="1"/>
        <pt x="1313" y="328" on="0"/>
        <pt x="972" y="-21" on="0"/>
        <pt x="697" y="-21" on="1"/>
        <pt x="420" y="-21" on="0"/>
        <pt x="76" y="328" on="0"/>
        <pt x="76" y="597" on="1"/>
        <pt x="76" y="859" on="1"/>
        <pt x="76" y="1127" on="0"/>
        <pt x="419" y="1477" on="0"/>
        <pt x="695" y="1477" on="1"/>
        <pt x="969" y="1477" on="0"/>
        <pt x="1313" y="1127" on="0"/>
        <pt x="1313" y="859" on="1"/>
      </contour>
      <contour>
        <pt x="976" y="861" on="1"/>
        <pt x="976" y="1017" on="0"/>
        <pt x="829" y="1217" on="0"/>
        <pt x="695" y="1217" on="1"/>
        <pt x="558" y="1217" on="0"/>
        <pt x="413" y="1018" on="0"/>
        <pt x="413" y="861" on="1"/>
        <pt x="413" y="597" on="1"/>
        <pt x="413" y="439" on="0"/>
        <pt x="560" y="239" on="0"/>
        <pt x="697" y="239" on="1"/>
        <pt x="830" y="239" on="0"/>
        <pt x="976" y="439" on="0"/>
        <pt x="976" y="597" on="1"/>
      </contour>
    </TTGlyph>
    <TTGlyph name="Thorn" xMin="116" yMin="0" xMax="1214" yMax="1456">
      <contour>
        <pt x="455" y="1456" on="1"/>
        <pt x="455" y="1198" on="1"/>
        <pt x="653" y="1198" on="1"/>
        <pt x="919" y="1198" on="0"/>
        <pt x="1214" y="945" on="0"/>
        <pt x="1214" y="738" on="1"/>
        <pt x="1214" y="531" on="0"/>
        <pt x="918" y="278" on="0"/>
        <pt x="653" y="278" on="1"/>
        <pt x="455" y="278" on="1"/>
        <pt x="455" y="0" on="1"/>
        <pt x="116" y="0" on="1"/>
        <pt x="116" y="1456" on="1"/>
      </contour>
      <contour>
        <pt x="455" y="938" on="1"/>
        <pt x="455" y="538" on="1"/>
        <pt x="653" y="538" on="1"/>
        <pt x="765" y="538" on="0"/>
        <pt x="875" y="650" on="0"/>
        <pt x="875" y="736" on="1"/>
        <pt x="875" y="823" on="0"/>
        <pt x="765" y="938" on="0"/>
        <pt x="653" y="938" on="1"/>
      </contour>
    </TTGlyph>
    <TTGlyph name="U" xMin="107" yMin="-21" xMax="1309" yMax="1456">
      <contour>
        <pt x="1309" y="1456" on="1"/>
        <pt x="1309" y="502" on="1"/>
        <pt x="1309" y="253" on="0"/>
        <pt x="978" y="-21" on="0"/>
        <pt x="710" y="-21" on="1"/>
        <pt x="439" y="-21" on="0"/>
        <pt x="107" y="253" on="0"/>
        <pt x="107" y="502" on="1"/>
        <pt x="107" y="1456" on="1"/>
        <pt x="446" y="1456" on="1"/>
        <pt x="446" y="502" on="1"/>
        <pt x="446" y="368" on="0"/>
        <pt x="584" y="239" on="0"/>
        <pt x="710" y="239" on="1"/>
        <pt x="835" y="239" on="0"/>
        <pt x="970" y="367" on="0"/>
        <pt x="970" y="502" on="1"/>
        <pt x="970" y="1456" on="1"/>
      </contour>
    </TTGlyph>
    <TTGlyph name="U.smcp" xMin="102" yMin="-21" xMax="1163" yMax="1165">
      <contour>
        <pt x="1163" y="1165" on="1"/>
        <pt x="1163" y="422" on="1"/>
        <pt x="1163" y="214" on="0"/>
        <pt x="875" y="-21" on="0"/>
        <pt x="633" y="-21" on="1"/>
        <pt x="390" y="-21" on="0"/>
        <pt x="102" y="214" on="0"/>
        <pt x="102" y="422" on="1"/>
        <pt x="102" y="1165" on="1"/>
        <pt x="439" y="1165" on="1"/>
        <pt x="439" y="422" on="1"/>
        <pt x="439" y="328" on="0"/>
        <pt x="534" y="238" on="0"/>
        <pt x="633" y="238" on="1"/>
        <pt x="733" y="238" on="0"/>
        <pt x="823" y="327" on="0"/>
        <pt x="823" y="422" on="1"/>
        <pt x="823" y="1165" on="1"/>
      </contour>
    </TTGlyph>
    <TTGlyph name="Uacute" xMin="107" yMin="-21" xMax="1309" yMax="1827">
      <component glyphName="U" x="0" y="0" flags="0x204"/>
      <component glyphName="acute" x="435" y="349" flags="0x4"/>
    </TTGlyph>
    <TTGlyph name="Uacute.smcp" xMin="102" yMin="-21" xMax="1163" yMax="1509">
      <component glyphName="U.smcp" x="0" y="0" flags="0x204"/>
      <component glyphName="acute" x="346" y="31" flags="0x4"/>
    </TTGlyph>
    <TTGlyph name="Ubreve" xMin="107" yMin="-21" xMax="1309" yMax="1908">
      <component glyphName="U" x="0" y="0" flags="0x204"/>
      <component glyphName="breve" x="245" y="452" flags="0x4"/>
    </TTGlyph>
    <TTGlyph name="Ubreve.smcp" xMin="102" yMin="-21" xMax="1163" yMax="1590">
      <component glyphName="U.smcp" x="0" y="0" flags="0x204"/>
      <component glyphName="breve" x="156" y="134" flags="0x4"/>
    </TTGlyph>
    <TTGlyph name="Ucircumflex" xMin="107" yMin="-21" xMax="1309" yMax="1853">
      <component glyphName="U" x="0" y="0" flags="0x204"/>
      <component glyphName="circumflex" x="192" y="335" flags="0x4"/>
    </TTGlyph>
    <TTGlyph name="Ucircumflex.smcp" xMin="102" yMin="-21" xMax="1163" yMax="1535">
      <component glyphName="U.smcp" x="0" y="0" flags="0x204"/>
      <component glyphName="circumflex" x="103" y="17" flags="0x4"/>
    </TTGlyph>
    <TTGlyph name="Udieresis" xMin="107" yMin="-21" xMax="1309" yMax="1805">
      <component glyphName="U" x="0" y="0" flags="0x204"/>
      <component glyphName="dieresis" x="158" y="349" flags="0x4"/>
    </TTGlyph>
    <TTGlyph name="Udieresis.smcp" xMin="102" yMin="-21" xMax="1163" yMax="1487">
      <component glyphName="U.smcp" x="0" y="0" flags="0x204"/>
      <component glyphName="dieresis" x="69" y="31" flags="0x4"/>
    </TTGlyph>
    <TTGlyph name="Ugrave" xMin="107" yMin="-21" xMax="1309" yMax="1825">
      <component glyphName="U" x="0" y="0" flags="0x204"/>
      <component glyphName="grave" x="257" y="347" flags="0x4"/>
    </TTGlyph>
    <TTGlyph name="Ugrave.smcp" xMin="102" yMin="-21" xMax="1163" yMax="1507">
      <component glyphName="U.smcp" x="0" y="0" flags="0x204"/>
      <component glyphName="grave" x="168" y="29" flags="0x4"/>
    </TTGlyph>
    <TTGlyph name="Uhorn" xMin="107" yMin="-21" xMax="1683" yMax="1616">
      <contour>
        <pt x="1309" y="1456" on="1"/>
        <pt x="1309" y="1272" on="1"/>
        <pt x="1315" y="1271" on="1"/>
        <pt x="1401" y="1288" on="0"/>
        <pt x="1460" y="1455" on="0"/>
        <pt x="1460" y="1616" on="1"/>
        <pt x="1683" y="1616" on="1"/>
        <pt x="1683" y="1366" on="0"/>
        <pt x="1508" y="1092" on="0"/>
        <pt x="1309" y="1067" on="1"/>
        <pt x="1309" y="502" on="1"/>
        <pt x="1309" y="253" on="0"/>
        <pt x="978" y="-21" on="0"/>
        <pt x="710" y="-21" on="1"/>
        <pt x="439" y="-21" on="0"/>
        <pt x="107" y="253" on="0"/>
        <pt x="107" y="502" on="1"/>
        <pt x="107" y="1456" on="1"/>
        <pt x="446" y="1456" on="1"/>
        <pt x="446" y="502" on="1"/>
        <pt x="446" y="368" on="0"/>
        <pt x="584" y="239" on="0"/>
        <pt x="710" y="239" on="1"/>
        <pt x="835" y="239" on="0"/>
        <pt x="970" y="367" on="0"/>
        <pt x="970" y="502" on="1"/>
        <pt x="970" y="1456" on="1"/>
      </contour>
    </TTGlyph>
    <TTGlyph name="Uhungarumlaut" xMin="107" yMin="-21" xMax="1309" yMax="1867">
      <component glyphName="U" x="0" y="0" flags="0x204"/>
      <component glyphName="hungarumlaut" x="200" y="349" flags="0x4"/>
    </TTGlyph>
    <TTGlyph name="Uhungarumlaut.smcp" xMin="102" yMin="-21" xMax="1201" yMax="1549">
      <component glyphName="U.smcp" x="0" y="0" flags="0x204"/>
      <component glyphName="hungarumlaut" x="111" y="31" flags="0x4"/>
    </TTGlyph>
    <TTGlyph name="Umacron" xMin="107" yMin="-21" xMax="1309" yMax="1774">
      <component glyphName="U" x="0" y="0" flags="0x204"/>
      <component glyphName="macron" x="180" y="316" flags="0x4"/>
    </TTGlyph>
    <TTGlyph name="Umacron.smcp" xMin="102" yMin="-21" xMax="1163" yMax="1458">
      <component glyphName="U.smcp" x="0" y="0" flags="0x204"/>
      <component glyphName="macron" x="91" y="0" flags="0x4"/>
    </TTGlyph>
    <TTGlyph name="Uogonek" xMin="107" yMin="-417" xMax="1309" yMax="1456">
      <component glyphName="U" x="0" y="0" flags="0x204"/>
      <component glyphName="ogonek" x="394" y="0" flags="0x4"/>
    </TTGlyph>
    <TTGlyph name="Uogonek.smcp" xMin="102" yMin="-417" xMax="1163" yMax="1165">
      <component glyphName="U.smcp" x="0" y="0" flags="0x204"/>
      <component glyphName="ogonek" x="321" y="0" flags="0x4"/>
    </TTGlyph>
    <TTGlyph name="Upsilon" xMin="-3" yMin="0" xMax="1314" yMax="1456">
      <component glyphName="Y" x="0" y="0" flags="0x204"/>
    </TTGlyph>
    <TTGlyph name="Upsilondieresis" xMin="-3" yMin="0" xMax="1314" yMax="1805">
      <component glyphName="Y" x="0" y="0" flags="0x204"/>
      <component glyphName="dieresis" x="114" y="349" flags="0x4"/>
    </TTGlyph>
    <TTGlyph name="Upsilontonos" xMin="-227" yMin="0" xMax="1414" yMax="1618">
      <component glyphName="Y" x="100" y="0" flags="0x4"/>
      <component glyphName="tonos" x="-487" y="0" flags="0x4"/>
    </TTGlyph>
    <TTGlyph name="Uring" xMin="107" yMin="-21" xMax="1309" yMax="1934">
      <component glyphName="U" x="0" y="0" flags="0x204"/>
      <component glyphName="ring" x="368" y="447" flags="0x4"/>
    </TTGlyph>
    <TTGlyph name="Uring.smcp" xMin="102" yMin="-21" xMax="1163" yMax="1616">
      <component glyphName="U.smcp" x="0" y="0" flags="0x204"/>
      <component glyphName="ring" x="279" y="129" flags="0x4"/>
    </TTGlyph>
    <TTGlyph name="Utilde" xMin="107" yMin="-21" xMax="1309" yMax="1912">
      <component glyphName="U" x="0" y="0" flags="0x204"/>
      <component glyphName="tilde" x="209" y="381" flags="0x4"/>
    </TTGlyph>
    <TTGlyph name="Utilde.smcp" xMin="102" yMin="-21" xMax="1163" yMax="1594">
      <component glyphName="U.smcp" x="0" y="0" flags="0x204"/>
      <component glyphName="tilde" x="120" y="63" flags="0x4"/>
    </TTGlyph>
    <TTGlyph name="V" xMin="-1" yMin="0" xMax="1306" yMax="1456">
      <contour>
        <pt x="637" y="395" on="1"/>
        <pt x="647" y="342" on="1"/>
        <pt x="653" y="342" on="1"/>
        <pt x="663" y="391" on="1"/>
        <pt x="952" y="1456" on="1"/>
        <pt x="1306" y="1456" on="1"/>
        <pt x="834" y="0" on="1"/>
        <pt x="469" y="0" on="1"/>
        <pt x="-1" y="1456" on="1"/>
        <pt x="352" y="1456" on="1"/>
      </contour>
    </TTGlyph>
    <TTGlyph name="V.smcp" xMin="4" yMin="0" xMax="1177" yMax="1165">
      <contour>
        <pt x="586" y="316" on="1"/>
        <pt x="589" y="299" on="1"/>
        <pt x="591" y="310" on="1"/>
        <pt x="826" y="1165" on="1"/>
        <pt x="1177" y="1165" on="1"/>
        <pt x="781" y="0" on="1"/>
        <pt x="400" y="0" on="1"/>
        <pt x="4" y="1165" on="1"/>
        <pt x="356" y="1165" on="1"/>
      </contour>
    </TTGlyph>
    <TTGlyph name="W" xMin="10" yMin="0" xMax="1809" yMax="1456">
      <contour>
        <pt x="1285" y="501" on="1"/>
        <pt x="1291" y="501" on="1"/>
        <pt x="1482" y="1456" on="1"/>
        <pt x="1809" y="1456" on="1"/>
        <pt x="1475" y="0" on="1"/>
        <pt x="1157" y="0" on="1"/>
        <pt x="912" y="898" on="1"/>
        <pt x="906" y="898" on="1"/>
        <pt x="663" y="0" on="1"/>
        <pt x="345" y="0" on="1"/>
        <pt x="10" y="1456" on="1"/>
        <pt x="338" y="1456" on="1"/>
        <pt x="529" y="501" on="1"/>
        <pt x="535" y="501" on="1"/>
        <pt x="792" y="1456" on="1"/>
        <pt x="1027" y="1456" on="1"/>
      </contour>
    </TTGlyph>
    <TTGlyph name="W.smcp" xMin="29" yMin="0" xMax="1546" yMax="1165">
      <contour>
        <pt x="1078" y="536" on="1"/>
        <pt x="1084" y="536" on="1"/>
        <pt x="1195" y="1165" on="1"/>
        <pt x="1546" y="1165" on="1"/>
        <pt x="1281" y="0" on="1"/>
        <pt x="946" y="0" on="1"/>
        <pt x="787" y="597" on="1"/>
        <pt x="781" y="597" on="1"/>
        <pt x="628" y="0" on="1"/>
        <pt x="293" y="0" on="1"/>
        <pt x="29" y="1165" on="1"/>
        <pt x="379" y="1165" on="1"/>
        <pt x="488" y="532" on="1"/>
        <pt x="494" y="532" on="1"/>
        <pt x="653" y="1165" on="1"/>
        <pt x="921" y="1165" on="1"/>
      </contour>
    </TTGlyph>
    <TTGlyph name="Wacute" xMin="10" yMin="0" xMax="1809" yMax="1827">
      <component glyphName="W" x="0" y="0" flags="0x204"/>
      <component glyphName="acute" x="637" y="349" flags="0x4"/>
    </TTGlyph>
    <TTGlyph name="Wcircumflex" xMin="10" yMin="0" xMax="1809" yMax="1853">
      <component glyphName="W" x="0" y="0" flags="0x204"/>
      <component glyphName="circumflex" x="394" y="335" flags="0x4"/>
    </TTGlyph>
    <TTGlyph name="Wcircumflex.smcp" xMin="29" yMin="0" xMax="1546" yMax="1530">
      <component glyphName="W.smcp" x="0" y="0" flags="0x204"/>
      <component glyphName="circumflex" x="269" y="12" flags="0x4"/>
    </TTGlyph>
    <TTGlyph name="Wdieresis" xMin="10" yMin="0" xMax="1809" yMax="1805">
      <component glyphName="W" x="0" y="0" flags="0x204"/>
      <component glyphName="dieresis" x="360" y="349" flags="0x4"/>
    </TTGlyph>
    <TTGlyph name="Wgrave" xMin="10" yMin="0" xMax="1809" yMax="1825">
      <component glyphName="W" x="0" y="0" flags="0x204"/>
      <component glyphName="grave" x="459" y="347" flags="0x4"/>
    </TTGlyph>
    <TTGlyph name="X" xMin="14" yMin="0" xMax="1310" yMax="1456">
      <contour>
        <pt x="648" y="965" on="1"/>
        <pt x="888" y="1456" on="1"/>
        <pt x="1278" y="1456" on="1"/>
        <pt x="861" y="734" on="1"/>
        <pt x="1310" y="0" on="1"/>
        <pt x="900" y="0" on="1"/>
        <pt x="652" y="501" on="1"/>
        <pt x="404" y="0" on="1"/>
        <pt x="14" y="0" on="1"/>
        <pt x="442" y="734" on="1"/>
        <pt x="25" y="1456" on="1"/>
        <pt x="412" y="1456" on="1"/>
      </contour>
    </TTGlyph>
    <TTGlyph name="X.smcp" xMin="20" yMin="0" xMax="1135" yMax="1165">
      <contour>
        <pt x="572" y="811" on="1"/>
        <pt x="578" y="811" on="1"/>
        <pt x="741" y="1165" on="1"/>
        <pt x="1128" y="1165" on="1"/>
        <pt x="791" y="588" on="1"/>
        <pt x="1135" y="0" on="1"/>
        <pt x="751" y="0" on="1"/>
        <pt x="581" y="364" on="1"/>
        <pt x="575" y="364" on="1"/>
        <pt x="406" y="0" on="1"/>
        <pt x="20" y="0" on="1"/>
        <pt x="366" y="588" on="1"/>
        <pt x="29" y="1165" on="1"/>
        <pt x="413" y="1165" on="1"/>
      </contour>
    </TTGlyph>
    <TTGlyph name="Xi" xMin="85" yMin="0" xMax="1088" yMax="1456">
      <contour>
        <pt x="85" y="260" on="1"/>
        <pt x="1088" y="260" on="1"/>
        <pt x="1088" y="0" on="1"/>
        <pt x="85" y="0" on="1"/>
      </contour>
      <contour>
        <pt x="212" y="856" on="1"/>
        <pt x="964" y="856" on="1"/>
        <pt x="964" y="608" on="1"/>
        <pt x="212" y="608" on="1"/>
      </contour>
      <contour>
        <pt x="118" y="1456" on="1"/>
        <pt x="1033" y="1456" on="1"/>
        <pt x="1033" y="1196" on="1"/>
        <pt x="118" y="1196" on="1"/>
      </contour>
    </TTGlyph>
    <TTGlyph name="Y" xMin="-3" yMin="0" xMax="1314" yMax="1456">
      <contour>
        <pt x="651" y="820" on="1"/>
        <pt x="657" y="820" on="1"/>
        <pt x="947" y="1456" on="1"/>
        <pt x="1314" y="1456" on="1"/>
        <pt x="819" y="512" on="1"/>
        <pt x="819" y="0" on="1"/>
        <pt x="482" y="0" on="1"/>
        <pt x="482" y="529" on="1"/>
        <pt x="-3" y="1456" on="1"/>
        <pt x="362" y="1456" on="1"/>
      </contour>
    </TTGlyph>
    <TTGlyph name="Y.smcp" xMin="-3" yMin="0" xMax="1100" yMax="1165">
      <contour>
        <pt x="545" y="705" on="1"/>
        <pt x="551" y="705" on="1"/>
        <pt x="738" y="1165" on="1"/>
        <pt x="1100" y="1165" on="1"/>
        <pt x="714" y="412" on="1"/>
        <pt x="714" y="0" on="1"/>
        <pt x="376" y="0" on="1"/>
        <pt x="376" y="424" on="1"/>
        <pt x="-3" y="1165" on="1"/>
        <pt x="358" y="1165" on="1"/>
      </contour>
    </TTGlyph>
    <TTGlyph name="Yacute" xMin="-3" yMin="0" xMax="1314" yMax="1827">
      <component glyphName="Y" x="0" y="0" flags="0x204"/>
      <component glyphName="acute" x="391" y="349" flags="0x4"/>
    </TTGlyph>
    <TTGlyph name="Yacute.smcp" xMin="-3" yMin="0" xMax="1100" yMax="1504">
      <component glyphName="Y.smcp" x="0" y="0" flags="0x204"/>
      <component glyphName="acute" x="282" y="26" flags="0x4"/>
    </TTGlyph>
    <TTGlyph name="Ycircumflex" xMin="-3" yMin="0" xMax="1314" yMax="1853">
      <component glyphName="Y" x="0" y="0" flags="0x204"/>
      <component glyphName="circumflex" x="148" y="335" flags="0x4"/>
    </TTGlyph>
    <TTGlyph name="Ycircumflex.smcp" xMin="-3" yMin="0" xMax="1100" yMax="1530">
      <component glyphName="Y.smcp" x="0" y="0" flags="0x204"/>
      <component glyphName="circumflex" x="39" y="12" flags="0x4"/>
    </TTGlyph>
    <TTGlyph name="Ydieresis" xMin="-3" yMin="0" xMax="1314" yMax="1805">
      <component glyphName="Y" x="0" y="0" flags="0x204"/>
      <component glyphName="dieresis" x="114" y="349" flags="0x4"/>
    </TTGlyph>
    <TTGlyph name="Ydieresis.smcp" xMin="-3" yMin="0" xMax="1100" yMax="1482">
      <component glyphName="Y.smcp" x="0" y="0" flags="0x204"/>
      <component glyphName="dieresis" x="5" y="26" flags="0x4"/>
    </TTGlyph>
    <TTGlyph name="Ygrave" xMin="-3" yMin="0" xMax="1314" yMax="1825">
      <component glyphName="Y" x="0" y="0" flags="0x204"/>
      <component glyphName="grave" x="213" y="347" flags="0x4"/>
    </TTGlyph>
    <TTGlyph name="Z" xMin="64" yMin="0" xMax="1146" yMax="1456">
      <contour>
        <pt x="483" y="260" on="1"/>
        <pt x="1146" y="260" on="1"/>
        <pt x="1146" y="0" on="1"/>
        <pt x="67" y="0" on="1"/>
        <pt x="67" y="152" on="1"/>
        <pt x="718" y="1196" on="1"/>
        <pt x="64" y="1196" on="1"/>
        <pt x="64" y="1456" on="1"/>
        <pt x="1137" y="1456" on="1"/>
        <pt x="1137" y="1310" on="1"/>
      </contour>
    </TTGlyph>
    <TTGlyph name="Z.smcp" xMin="63" yMin="0" xMax="1046" yMax="1165">
      <contour>
        <pt x="505" y="258" on="1"/>
        <pt x="1045" y="258" on="1"/>
        <pt x="1045" y="0" on="1"/>
        <pt x="63" y="0" on="1"/>
        <pt x="63" y="122" on="1"/>
        <pt x="602" y="907" on="1"/>
        <pt x="96" y="907" on="1"/>
        <pt x="96" y="1165" on="1"/>
        <pt x="1046" y="1165" on="1"/>
        <pt x="1046" y="1048" on="1"/>
      </contour>
    </TTGlyph>
    <TTGlyph name="Zacute" xMin="64" yMin="0" xMax="1146" yMax="1830">
      <component glyphName="Z" x="0" y="0" flags="0x204"/>
      <component glyphName="acute" x="324" y="352" flags="0x4"/>
    </TTGlyph>
    <TTGlyph name="Zacute.smcp" xMin="63" yMin="0" xMax="1046" yMax="1507">
      <component glyphName="Z.smcp" x="0" y="0" flags="0x204"/>
      <component glyphName="acute" x="309" y="29" flags="0x4"/>
    </TTGlyph>
    <TTGlyph name="Zcaron" xMin="64" yMin="0" xMax="1146" yMax="1880">
      <component glyphName="Z" x="0" y="0" flags="0x204"/>
      <component glyphName="caron" x="105" y="352" flags="0x4"/>
    </TTGlyph>
    <TTGlyph name="Zcaron.smcp" xMin="63" yMin="0" xMax="1046" yMax="1557">
      <component glyphName="Z.smcp" x="0" y="0" flags="0x204"/>
      <component glyphName="caron" x="90" y="29" flags="0x4"/>
    </TTGlyph>
    <TTGlyph name="Zdotaccent" xMin="64" yMin="0" xMax="1146" yMax="1865">
      <component glyphName="Z" x="0" y="0" flags="0x204"/>
      <component glyphName="dotaccent" x="280" y="390" flags="0x4"/>
    </TTGlyph>
    <TTGlyph name="Zdotaccent.smcp" xMin="63" yMin="0" xMax="1046" yMax="1542">
      <component glyphName="Z.smcp" x="0" y="0" flags="0x204"/>
      <component glyphName="dotaccent" x="265" y="67" flags="0x4"/>
    </TTGlyph>
    <TTGlyph name="Zeta" xMin="64" yMin="0" xMax="1146" yMax="1456">
      <component glyphName="Z" x="0" y="0" flags="0x204"/>
    </TTGlyph>
    <TTGlyph name="a" xMin="45" yMin="-21" xMax="1052" yMax="1102">
      <contour>
        <pt x="718" y="1" on="1"/>
        <pt x="704" y="27" on="0"/>
        <pt x="681" y="91" on="0"/>
        <pt x="673" y="125" on="1"/>
        <pt x="625" y="58" on="0"/>
        <pt x="489" y="-21" on="0"/>
        <pt x="392" y="-21" on="1"/>
        <pt x="238" y="-21" on="0"/>
        <pt x="45" y="157" on="0"/>
        <pt x="45" y="305" on="1"/>
        <pt x="45" y="466" on="0"/>
        <pt x="286" y="641" on="0"/>
        <pt x="532" y="641" on="1"/>
        <pt x="655" y="641" on="1"/>
        <pt x="655" y="718" on="1"/>
        <pt x="655" y="787" on="0"/>
        <pt x="590" y="861" on="0"/>
        <pt x="522" y="861" on="1"/>
        <pt x="464" y="861" on="0"/>
        <pt x="407" y="806" on="0"/>
        <pt x="407" y="748" on="1"/>
        <pt x="80" y="749" on="1"/>
        <pt x="78" y="755" on="1"/>
        <pt x="71" y="903" on="0"/>
        <pt x="331" y="1102" on="0"/>
        <pt x="545" y="1102" on="1"/>
        <pt x="745" y="1102" on="0"/>
        <pt x="994" y="902" on="0"/>
        <pt x="994" y="716" on="1"/>
        <pt x="994" y="308" on="1"/>
        <pt x="994" y="221" on="0"/>
        <pt x="1023" y="73" on="0"/>
        <pt x="1052" y="0" on="1"/>
      </contour>
      <contour>
        <pt x="495" y="220" on="1"/>
        <pt x="545" y="220" on="0"/>
        <pt x="629" y="260" on="0"/>
        <pt x="655" y="292" on="1"/>
        <pt x="655" y="461" on="1"/>
        <pt x="535" y="461" on="1"/>
        <pt x="455" y="461" on="0"/>
        <pt x="382" y="383" on="0"/>
        <pt x="382" y="323" on="1"/>
        <pt x="382" y="277" on="0"/>
        <pt x="445" y="220" on="0"/>
      </contour>
    </TTGlyph>
    <TTGlyph name="aacute" xMin="45" yMin="-21" xMax="1052" yMax="1505">
      <component glyphName="a" x="0" y="0" flags="0x204"/>
      <component glyphName="acute" x="265" y="27" flags="0x4"/>
    </TTGlyph>
    <TTGlyph name="abreve" xMin="45" yMin="-21" xMax="1052" yMax="1586">
      <component glyphName="a" x="0" y="0" flags="0x204"/>
      <component glyphName="breve" x="75" y="130" flags="0x4"/>
    </TTGlyph>
    <TTGlyph name="acircumflex" xMin="45" yMin="-21" xMax="1052" yMax="1531">
      <component glyphName="a" x="0" y="0" flags="0x204"/>
      <component glyphName="circumflex" x="22" y="13" flags="0x4"/>
    </TTGlyph>
    <TTGlyph name="acute" xMin="96" yMin="1212" xMax="652" yMax="1478">
      <contour>
        <pt x="302" y="1478" on="1"/>
        <pt x="650" y="1478" on="1"/>
        <pt x="652" y="1472" on="1"/>
        <pt x="372" y="1212" on="1"/>
        <pt x="96" y="1212" on="1"/>
      </contour>
    </TTGlyph>
    <TTGlyph name="acutecomb" xMin="-836" yMin="1199" xMax="-443" yMax="1492">
      <contour>
        <pt x="-697" y="1492" on="1"/>
        <pt x="-443" y="1492" on="1"/>
        <pt x="-637" y="1199" on="1"/>
        <pt x="-836" y="1199" on="1"/>
      </contour>
    </TTGlyph>
    <TTGlyph name="adieresis" xMin="45" yMin="-21" xMax="1052" yMax="1483">
      <component glyphName="a" x="0" y="0" flags="0x204"/>
      <component glyphName="dieresis" x="-10" y="27" flags="0x4"/>
    </TTGlyph>
    <TTGlyph name="ae" xMin="41" yMin="-21" xMax="1685" yMax="1102">
      <contour>
        <pt x="1238" y="-21" on="1"/>
        <pt x="1113" y="-21" on="0"/>
        <pt x="916" y="54" on="0"/>
        <pt x="848" y="124" on="1"/>
        <pt x="788" y="60" on="0"/>
        <pt x="594" y="-21" on="0"/>
        <pt x="464" y="-21" on="1"/>
        <pt x="261" y="-21" on="0"/>
        <pt x="41" y="164" on="0"/>
        <pt x="41" y="324" on="1"/>
        <pt x="41" y="483" on="0"/>
        <pt x="306" y="655" on="0"/>
        <pt x="560" y="655" on="1"/>
        <pt x="718" y="655" on="1"/>
        <pt x="718" y="701" on="1"/>
        <pt x="718" y="767" on="0"/>
        <pt x="648" y="842" on="0"/>
        <pt x="584" y="842" on="1"/>
        <pt x="514" y="842" on="0"/>
        <pt x="435" y="784" on="0"/>
        <pt x="435" y="740" on="1"/>
        <pt x="107" y="758" on="1"/>
        <pt x="106" y="764" on="1"/>
        <pt x="99" y="911" on="0"/>
        <pt x="366" y="1102" on="0"/>
        <pt x="588" y="1102" on="1"/>
        <pt x="685" y="1102" on="0"/>
        <pt x="849" y="1057" on="0"/>
        <pt x="910" y="1013" on="1"/>
        <pt x="971" y="1056" on="0"/>
        <pt x="1130" y="1102" on="0"/>
        <pt x="1227" y="1102" on="1"/>
        <pt x="1438" y="1102" on="0"/>
        <pt x="1685" y="837" on="0"/>
        <pt x="1685" y="612" on="1"/>
        <pt x="1685" y="435" on="1"/>
        <pt x="1066" y="435" on="1"/>
        <pt x="1064" y="429" on="1"/>
        <pt x="1068" y="341" on="0"/>
        <pt x="1175" y="239" on="0"/>
        <pt x="1284" y="239" on="1"/>
        <pt x="1372" y="239" on="0"/>
        <pt x="1493" y="271" on="0"/>
        <pt x="1569" y="306" on="1"/>
        <pt x="1650" y="100" on="1"/>
        <pt x="1584" y="49" on="0"/>
        <pt x="1359" y="-21" on="0"/>
      </contour>
      <contour>
        <pt x="528" y="211" on="1"/>
        <pt x="577" y="211" on="0"/>
        <pt x="684" y="259" on="0"/>
        <pt x="718" y="293" on="1"/>
        <pt x="718" y="434" on="1"/>
        <pt x="717" y="438" on="0"/>
        <pt x="717" y="445" on="0"/>
        <pt x="717" y="451" on="1"/>
        <pt x="562" y="451" on="1"/>
        <pt x="475" y="451" on="0"/>
        <pt x="378" y="374" on="0"/>
        <pt x="378" y="320" on="1"/>
        <pt x="378" y="268" on="0"/>
        <pt x="452" y="211" on="0"/>
      </contour>
      <contour>
        <pt x="1227" y="842" on="1"/>
        <pt x="1141" y="842" on="0"/>
        <pt x="1066" y="741" on="0"/>
        <pt x="1062" y="651" on="1"/>
        <pt x="1064" y="646" on="1"/>
        <pt x="1356" y="646" on="1"/>
        <pt x="1356" y="672" on="1"/>
        <pt x="1356" y="752" on="0"/>
        <pt x="1288" y="842" on="0"/>
      </contour>
    </TTGlyph>
    <TTGlyph name="aeacute" xMin="41" yMin="-21" xMax="1685" yMax="1506">
      <component glyphName="ae" x="0" y="0" flags="0x204"/>
      <component glyphName="acute" x="590" y="28" flags="0x4"/>
    </TTGlyph>
    <TTGlyph name="agrave" xMin="45" yMin="-21" xMax="1052" yMax="1503">
      <component glyphName="a" x="0" y="0" flags="0x204"/>
      <component glyphName="grave" x="87" y="25" flags="0x4"/>
    </TTGlyph>
    <TTGlyph name="alpha" xMin="60" yMin="-21" xMax="1152" yMax="1102">
      <contour>
        <pt x="1041" y="1081" on="1"/>
        <pt x="1041" y="370" on="1"/>
        <pt x="1041" y="299" on="0"/>
        <pt x="1073" y="241" on="0"/>
        <pt x="1110" y="241" on="1"/>
        <pt x="1116" y="241" on="0"/>
        <pt x="1123" y="242" on="0"/>
        <pt x="1126" y="244" on="1"/>
        <pt x="1152" y="0" on="1"/>
        <pt x="1120" y="-12" on="0"/>
        <pt x="1065" y="-21" on="0"/>
        <pt x="1027" y="-21" on="1"/>
        <pt x="926" y="-21" on="0"/>
        <pt x="781" y="64" on="0"/>
        <pt x="744" y="149" on="1"/>
        <pt x="698" y="66" on="0"/>
        <pt x="569" y="-21" on="0"/>
        <pt x="481" y="-21" on="1"/>
        <pt x="281" y="-21" on="0"/>
        <pt x="60" y="275" on="0"/>
        <pt x="60" y="518" on="1"/>
        <pt x="60" y="539" on="1"/>
        <pt x="60" y="792" on="0"/>
        <pt x="281" y="1102" on="0"/>
        <pt x="483" y="1102" on="1"/>
        <pt x="560" y="1102" on="0"/>
        <pt x="679" y="1027" on="0"/>
        <pt x="723" y="958" on="1"/>
        <pt x="746" y="1081" on="1"/>
      </contour>
      <contour>
        <pt x="399" y="518" on="1"/>
        <pt x="399" y="385" on="0"/>
        <pt x="475" y="239" on="0"/>
        <pt x="566" y="239" on="1"/>
        <pt x="614" y="239" on="0"/>
        <pt x="683" y="272" on="0"/>
        <pt x="705" y="306" on="1"/>
        <pt x="703" y="319" on="0"/>
        <pt x="703" y="347" on="0"/>
        <pt x="703" y="370" on="1"/>
        <pt x="703" y="769" on="1"/>
        <pt x="680" y="804" on="0"/>
        <pt x="613" y="842" on="0"/>
        <pt x="568" y="842" on="1"/>
        <pt x="479" y="842" on="0"/>
        <pt x="399" y="676" on="0"/>
        <pt x="399" y="539" on="1"/>
      </contour>
    </TTGlyph>
    <TTGlyph name="alpha.alt" xMin="60" yMin="-21" xMax="1115" yMax="1102">
      <contour>
        <pt x="803" y="138" on="1"/>
        <pt x="751" y="61" on="0"/>
        <pt x="604" y="-21" on="0"/>
        <pt x="504" y="-21" on="1"/>
        <pt x="293" y="-21" on="0"/>
        <pt x="60" y="275" on="0"/>
        <pt x="60" y="518" on="1"/>
        <pt x="60" y="539" on="1"/>
        <pt x="60" y="792" on="0"/>
        <pt x="293" y="1102" on="0"/>
        <pt x="506" y="1102" on="1"/>
        <pt x="602" y="1102" on="0"/>
        <pt x="746" y="1018" on="0"/>
        <pt x="798" y="941" on="1"/>
        <pt x="818" y="1082" on="1"/>
        <pt x="1108" y="1082" on="1"/>
        <pt x="1000" y="540" on="1"/>
        <pt x="1115" y="0" on="1"/>
        <pt x="825" y="0" on="1"/>
      </contour>
      <contour>
        <pt x="399" y="518" on="1"/>
        <pt x="399" y="385" on="0"/>
        <pt x="475" y="239" on="0"/>
        <pt x="566" y="239" on="1"/>
        <pt x="658" y="239" on="0"/>
        <pt x="744" y="378" on="0"/>
        <pt x="740" y="483" on="1"/>
        <pt x="740" y="562" on="1"/>
        <pt x="743" y="683" on="0"/>
        <pt x="659" y="842" on="0"/>
        <pt x="568" y="842" on="1"/>
        <pt x="479" y="842" on="0"/>
        <pt x="399" y="676" on="0"/>
        <pt x="399" y="539" on="1"/>
      </contour>
    </TTGlyph>
    <TTGlyph name="alphatonos" xMin="60" yMin="-21" xMax="1152" yMax="1539">
      <component glyphName="alpha" x="0" y="0" flags="0x204"/>
      <component glyphName="tonos" x="216" y="-79" flags="0x4"/>
    </TTGlyph>
    <TTGlyph name="amacron" xMin="45" yMin="-21" xMax="1052" yMax="1454">
      <component glyphName="a" x="0" y="0" flags="0x204"/>
      <component glyphName="macron" x="10" y="-4" flags="0x4"/>
    </TTGlyph>
    <TTGlyph name="ampersand" xMin="60" yMin="-21" xMax="1345" yMax="1477">
      <contour>
        <pt x="315" y="767" on="1"/>
        <pt x="251" y="857" on="0"/>
        <pt x="188" y="1007" on="0"/>
        <pt x="188" y="1084" on="1"/>
        <pt x="188" y="1258" on="0"/>
        <pt x="414" y="1477" on="0"/>
        <pt x="600" y="1477" on="1"/>
        <pt x="759" y="1477" on="0"/>
        <pt x="958" y="1273" on="0"/>
        <pt x="958" y="1127" on="1"/>
        <pt x="958" y="1029" on="0"/>
        <pt x="867" y="861" on="0"/>
        <pt x="789" y="805" on="1"/>
        <pt x="702" y="744" on="1"/>
        <pt x="946" y="464" on="1"/>
        <pt x="981" y="520" on="0"/>
        <pt x="1019" y="654" on="0"/>
        <pt x="1019" y="728" on="1"/>
        <pt x="1257" y="728" on="1"/>
        <pt x="1257" y="586" on="0"/>
        <pt x="1194" y="350" on="0"/>
        <pt x="1125" y="258" on="1"/>
        <pt x="1345" y="5" on="1"/>
        <pt x="1343" y="0" on="1"/>
        <pt x="974" y="0" on="1"/>
        <pt x="900" y="84" on="1"/>
        <pt x="813" y="30" on="0"/>
        <pt x="640" y="-21" on="0"/>
        <pt x="536" y="-21" on="1"/>
        <pt x="318" y="-21" on="0"/>
        <pt x="60" y="207" on="0"/>
        <pt x="60" y="391" on="1"/>
        <pt x="60" y="507" on="0"/>
        <pt x="183" y="670" on="0"/>
        <pt x="312" y="765" on="1"/>
      </contour>
      <contour>
        <pt x="559" y="239" on="1"/>
        <pt x="602" y="239" on="0"/>
        <pt x="689" y="257" on="0"/>
        <pt x="731" y="276" on="1"/>
        <pt x="464" y="578" on="1"/>
        <pt x="455" y="572" on="1"/>
        <pt x="424" y="534" on="0"/>
        <pt x="399" y="459" on="0"/>
        <pt x="399" y="414" on="1"/>
        <pt x="399" y="337" on="0"/>
        <pt x="492" y="239" on="0"/>
      </contour>
      <contour>
        <pt x="480" y="1088" on="1"/>
        <pt x="480" y="1049" on="0"/>
        <pt x="518" y="968" on="0"/>
        <pt x="556" y="920" on="1"/>
        <pt x="616" y="958" on="1"/>
        <pt x="672" y="994" on="0"/>
        <pt x="710" y="1062" on="0"/>
        <pt x="710" y="1103" on="1"/>
        <pt x="710" y="1147" on="0"/>
        <pt x="649" y="1217" on="0"/>
        <pt x="599" y="1217" on="1"/>
        <pt x="542" y="1217" on="0"/>
        <pt x="480" y="1143" on="0"/>
      </contour>
    </TTGlyph>
    <TTGlyph name="anoteleia" xMin="158" yMin="539" xMax="496" yMax="823">
      <component glyphName="periodcentered" x="0" y="0" flags="0x4"/>
    </TTGlyph>
    <TTGlyph name="aogonek" xMin="45" yMin="-417" xMax="1063" yMax="1102">
      <component glyphName="a" x="0" y="0" flags="0x204"/>
      <component glyphName="ogonek" x="524" y="0" flags="0x4"/>
    </TTGlyph>
    <TTGlyph name="approxequal" xMin="101" yMin="217" xMax="1090" yMax="1027">
      <contour>
        <pt x="111" y="877" on="1"/>
        <pt x="158" y="945" on="0"/>
        <pt x="282" y="1023" on="0"/>
        <pt x="347" y="1023" on="1"/>
        <pt x="418" y="1025" on="0"/>
        <pt x="522" y="990" on="0"/>
        <pt x="603" y="950" on="1"/>
        <pt x="674" y="914" on="0"/>
        <pt x="776" y="881" on="0"/>
        <pt x="844" y="881" on="1"/>
        <pt x="908" y="881" on="0"/>
        <pt x="1032" y="958" on="0"/>
        <pt x="1080" y="1027" on="1"/>
        <pt x="1090" y="797" on="1"/>
        <pt x="1042" y="728" on="0"/>
        <pt x="918" y="651" on="0"/>
        <pt x="854" y="651" on="1"/>
        <pt x="786" y="651" on="0"/>
        <pt x="684" y="684" on="0"/>
        <pt x="613" y="720" on="1"/>
        <pt x="532" y="760" on="0"/>
        <pt x="428" y="795" on="0"/>
        <pt x="357" y="793" on="1"/>
        <pt x="292" y="793" on="0"/>
        <pt x="168" y="715" on="0"/>
        <pt x="121" y="647" on="1"/>
      </contour>
      <contour>
        <pt x="101" y="447" on="1"/>
        <pt x="148" y="515" on="0"/>
        <pt x="272" y="593" on="0"/>
        <pt x="337" y="593" on="1"/>
        <pt x="408" y="595" on="0"/>
        <pt x="512" y="560" on="0"/>
        <pt x="593" y="520" on="1"/>
        <pt x="664" y="484" on="0"/>
        <pt x="766" y="451" on="0"/>
        <pt x="834" y="451" on="1"/>
        <pt x="898" y="451" on="0"/>
        <pt x="1022" y="528" on="0"/>
        <pt x="1070" y="597" on="1"/>
        <pt x="1080" y="367" on="1"/>
        <pt x="1032" y="298" on="0"/>
        <pt x="908" y="221" on="0"/>
        <pt x="844" y="221" on="1"/>
        <pt x="776" y="221" on="0"/>
        <pt x="674" y="254" on="0"/>
        <pt x="603" y="290" on="1"/>
        <pt x="522" y="330" on="0"/>
        <pt x="418" y="365" on="0"/>
        <pt x="347" y="363" on="1"/>
        <pt x="282" y="363" on="0"/>
        <pt x="158" y="285" on="0"/>
        <pt x="111" y="217" on="1"/>
      </contour>
    </TTGlyph>
    <TTGlyph name="aring" xMin="45" yMin="-21" xMax="1052" yMax="1612">
      <component glyphName="a" x="0" y="0" flags="0x204"/>
      <component glyphName="ring" x="198" y="125" flags="0x4"/>
    </TTGlyph>
    <TTGlyph name="aringacute" xMin="45" yMin="-21" xMax="1052" yMax="1847">
      <component glyphName="a" x="0" y="0" flags="0x204"/>
      <component glyphName="ringacute" x="182" y="65" flags="0x4"/>
    </TTGlyph>
    <TTGlyph name="asciicircum" xMin="36" yMin="729" xMax="884" yMax="1456">
      <contour>
        <pt x="289" y="729" on="1"/>
        <pt x="36" y="729" on="1"/>
        <pt x="335" y="1456" on="1"/>
        <pt x="584" y="1456" on="1"/>
        <pt x="884" y="729" on="1"/>
        <pt x="630" y="729" on="1"/>
        <pt x="465" y="1142" on="1"/>
        <pt x="461" y="1160" on="1"/>
        <pt x="455" y="1160" on="1"/>
        <pt x="451" y="1142" on="1"/>
      </contour>
    </TTGlyph>
    <TTGlyph name="asciitilde" xMin="94" yMin="367" xMax="1197" yMax="836">
      <contour>
        <pt x="1197" y="769" on="1"/>
        <pt x="1197" y="594" on="0"/>
        <pt x="1020" y="367" on="0"/>
        <pt x="882" y="367" on="1"/>
        <pt x="799" y="367" on="0"/>
        <pt x="657" y="428" on="0"/>
        <pt x="582" y="497" on="1"/>
        <pt x="535" y="540" on="0"/>
        <pt x="470" y="576" on="0"/>
        <pt x="429" y="576" on="1"/>
        <pt x="386" y="576" on="0"/>
        <pt x="325" y="476" on="0"/>
        <pt x="325" y="405" on="1"/>
        <pt x="94" y="435" on="1"/>
        <pt x="94" y="610" on="0"/>
        <pt x="268" y="836" on="0"/>
        <pt x="407" y="836" on="1"/>
        <pt x="488" y="836" on="0"/>
        <pt x="638" y="771" on="0"/>
        <pt x="710" y="707" on="1"/>
        <pt x="753" y="665" on="0"/>
        <pt x="820" y="628" on="0"/>
        <pt x="859" y="628" on="1"/>
        <pt x="902" y="628" on="0"/>
        <pt x="965" y="728" on="0"/>
        <pt x="965" y="800" on="1"/>
      </contour>
    </TTGlyph>
    <TTGlyph name="asterisk" xMin="26" yMin="565" xMax="889" yMax="1456">
      <contour>
        <pt x="332" y="958" on="1"/>
        <pt x="26" y="1048" on="1"/>
        <pt x="87" y="1236" on="1"/>
        <pt x="385" y="1106" on="1"/>
        <pt x="363" y="1456" on="1"/>
        <pt x="563" y="1456" on="1"/>
        <pt x="538" y="1099" on="1"/>
        <pt x="829" y="1226" on="1"/>
        <pt x="889" y="1036" on="1"/>
        <pt x="580" y="946" on="1"/>
        <pt x="785" y="682" on="1"/>
        <pt x="624" y="565" on="1"/>
        <pt x="451" y="858" on="1"/>
        <pt x="280" y="575" on="1"/>
        <pt x="118" y="687" on="1"/>
      </contour>
    </TTGlyph>
    <TTGlyph name="at" xMin="26" yMin="-453" xMax="1745" yMax="1410">
      <contour>
        <pt x="1729" y="520" on="1"/>
        <pt x="1720" y="300" on="0"/>
        <pt x="1474" y="-21" on="0"/>
        <pt x="1230" y="-21" on="1"/>
        <pt x="1149" y="-21" on="0"/>
        <pt x="1031" y="70" on="0"/>
        <pt x="1007" y="153" on="1"/>
        <pt x="966" y="68" on="0"/>
        <pt x="841" y="-17" on="0"/>
        <pt x="757" y="-17" on="1"/>
        <pt x="608" y="-17" on="0"/>
        <pt x="450" y="220" on="0"/>
        <pt x="471" y="416" on="1"/>
        <pt x="497" y="667" on="0"/>
        <pt x="738" y="969" on="0"/>
        <pt x="910" y="969" on="1"/>
        <pt x="1031" y="969" on="0"/>
        <pt x="1178" y="917" on="0"/>
        <pt x="1266" y="863" on="1"/>
        <pt x="1263" y="859" on="1"/>
        <pt x="1268" y="859" on="1"/>
        <pt x="1217" y="293" on="1"/>
        <pt x="1212" y="206" on="0"/>
        <pt x="1245" y="141" on="0"/>
        <pt x="1273" y="141" on="1"/>
        <pt x="1385" y="141" on="0"/>
        <pt x="1520" y="356" on="0"/>
        <pt x="1528" y="520" on="1"/>
        <pt x="1544" y="859" on="0"/>
        <pt x="1246" y="1238" on="0"/>
        <pt x="935" y="1238" on="1"/>
        <pt x="633" y="1238" on="0"/>
        <pt x="277" y="830" on="0"/>
        <pt x="262" y="478" on="1"/>
        <pt x="245" y="135" on="0"/>
        <pt x="568" y="-263" on="0"/>
        <pt x="870" y="-263" on="1"/>
        <pt x="954" y="-263" on="0"/>
        <pt x="1135" y="-226" on="0"/>
        <pt x="1201" y="-198" on="1"/>
        <pt x="1239" y="-364" on="1"/>
        <pt x="1172" y="-406" on="0"/>
        <pt x="965" y="-453" on="0"/>
        <pt x="866" y="-453" on="1"/>
        <pt x="462" y="-453" on="0"/>
        <pt x="26" y="45" on="0"/>
        <pt x="43" y="478" on="1"/>
        <pt x="61" y="907" on="0"/>
        <pt x="541" y="1410" on="0"/>
        <pt x="939" y="1410" on="1"/>
        <pt x="1330" y="1410" on="0"/>
        <pt x="1745" y="934" on="0"/>
      </contour>
      <contour>
        <pt x="719" y="416" on="1"/>
        <pt x="710" y="296" on="0"/>
        <pt x="763" y="173" on="0"/>
        <pt x="823" y="173" on="1"/>
        <pt x="877" y="173" on="0"/>
        <pt x="962" y="233" on="0"/>
        <pt x="994" y="314" on="1"/>
        <pt x="1034" y="766" on="1"/>
        <pt x="1012" y="771" on="0"/>
        <pt x="970" y="778" on="0"/>
        <pt x="949" y="778" on="1"/>
        <pt x="845" y="778" on="0"/>
        <pt x="736" y="597" on="0"/>
      </contour>
    </TTGlyph>
    <TTGlyph name="atilde" xMin="45" yMin="-21" xMax="1052" yMax="1590">
      <component glyphName="a" x="0" y="0" flags="0x204"/>
      <component glyphName="tilde" x="39" y="59" flags="0x4"/>
    </TTGlyph>
    <TTGlyph name="b" xMin="96" yMin="-21" xMax="1098" yMax="1560">
      <contour>
        <pt x="1098" y="518" on="1"/>
        <pt x="1098" y="271" on="0"/>
        <pt x="886" y="-21" on="0"/>
        <pt x="678" y="-21" on="1"/>
        <pt x="589" y="-21" on="0"/>
        <pt x="457" y="56" on="0"/>
        <pt x="411" y="128" on="1"/>
        <pt x="389" y="0" on="1"/>
        <pt x="96" y="0" on="1"/>
        <pt x="96" y="1560" on="1"/>
        <pt x="434" y="1560" on="1"/>
        <pt x="434" y="977" on="1"/>
        <pt x="479" y="1037" on="0"/>
        <pt x="598" y="1102" on="0"/>
        <pt x="676" y="1102" on="1"/>
        <pt x="885" y="1102" on="0"/>
        <pt x="1098" y="796" on="0"/>
        <pt x="1098" y="539" on="1"/>
      </contour>
      <contour>
        <pt x="761" y="539" on="1"/>
        <pt x="761" y="683" on="0"/>
        <pt x="689" y="842" on="0"/>
        <pt x="591" y="842" on="1"/>
        <pt x="536" y="842" on="0"/>
        <pt x="457" y="801" on="0"/>
        <pt x="434" y="762" on="1"/>
        <pt x="434" y="308" on="1"/>
        <pt x="458" y="273" on="0"/>
        <pt x="536" y="239" on="0"/>
        <pt x="593" y="239" on="1"/>
        <pt x="693" y="239" on="0"/>
        <pt x="761" y="378" on="0"/>
        <pt x="761" y="518" on="1"/>
      </contour>
    </TTGlyph>
    <TTGlyph name="backslash" xMin="-16" yMin="-125" xMax="930" yMax="1456">
      <contour>
        <pt x="-16" y="1456" on="1"/>
        <pt x="322" y="1456" on="1"/>
        <pt x="930" y="-125" on="1"/>
        <pt x="591" y="-125" on="1"/>
      </contour>
    </TTGlyph>
    <TTGlyph name="bar" xMin="172" yMin="-270" xMax="356" yMax="1456">
      <contour>
        <pt x="356" y="-270" on="1"/>
        <pt x="172" y="-270" on="1"/>
        <pt x="172" y="1456" on="1"/>
        <pt x="356" y="1456" on="1"/>
      </contour>
    </TTGlyph>
    <TTGlyph name="beta" xMin="134" yMin="-415" xMax="1188" yMax="1477">
      <contour>
        <pt x="637" y="1477" on="1"/>
        <pt x="862" y="1477" on="0"/>
        <pt x="1125" y="1272" on="0"/>
        <pt x="1125" y="1082" on="1"/>
        <pt x="1125" y="979" on="0"/>
        <pt x="1023" y="811" on="0"/>
        <pt x="932" y="762" on="1"/>
        <pt x="1055" y="719" on="0"/>
        <pt x="1188" y="538" on="0"/>
        <pt x="1188" y="408" on="1"/>
        <pt x="1188" y="203" on="0"/>
        <pt x="956" y="-21" on="0"/>
        <pt x="746" y="-21" on="1"/>
        <pt x="675" y="-21" on="0"/>
        <pt x="532" y="14" on="0"/>
        <pt x="471" y="50" on="1"/>
        <pt x="471" y="-415" on="1"/>
        <pt x="134" y="-415" on="1"/>
        <pt x="134" y="1018" on="1"/>
        <pt x="134" y="1226" on="0"/>
        <pt x="422" y="1477" on="0"/>
      </contour>
      <contour>
        <pt x="633" y="857" on="1"/>
        <pt x="713" y="857" on="0"/>
        <pt x="788" y="954" on="0"/>
        <pt x="788" y="1051" on="1"/>
        <pt x="788" y="1121" on="0"/>
        <pt x="710" y="1217" on="0"/>
        <pt x="637" y="1217" on="1"/>
        <pt x="562" y="1217" on="0"/>
        <pt x="471" y="1110" on="0"/>
        <pt x="471" y="1018" on="1"/>
        <pt x="471" y="280" on="1"/>
        <pt x="506" y="260" on="0"/>
        <pt x="601" y="239" on="0"/>
        <pt x="658" y="239" on="1"/>
        <pt x="746" y="239" on="0"/>
        <pt x="851" y="339" on="0"/>
        <pt x="851" y="415" on="1"/>
        <pt x="851" y="523" on="0"/>
        <pt x="749" y="626" on="0"/>
        <pt x="649" y="626" on="1"/>
        <pt x="577" y="626" on="1"/>
        <pt x="577" y="857" on="1"/>
      </contour>
    </TTGlyph>
    <TTGlyph name="braceleft" xMin="40" yMin="-360" xMax="625" yMax="1597">
      <contour>
        <pt x="562" y="-360" on="1"/>
        <pt x="367" y="-305" on="0"/>
        <pt x="202" y="-65" on="0"/>
        <pt x="202" y="106" on="1"/>
        <pt x="202" y="309" on="1"/>
        <pt x="202" y="401" on="0"/>
        <pt x="122" y="505" on="0"/>
        <pt x="40" y="505" on="1"/>
        <pt x="40" y="732" on="1"/>
        <pt x="122" y="732" on="0"/>
        <pt x="202" y="835" on="0"/>
        <pt x="202" y="929" on="1"/>
        <pt x="202" y="1132" on="1"/>
        <pt x="202" y="1303" on="0"/>
        <pt x="367" y="1542" on="0"/>
        <pt x="562" y="1597" on="1"/>
        <pt x="625" y="1421" on="1"/>
        <pt x="552" y="1392" on="0"/>
        <pt x="494" y="1244" on="0"/>
        <pt x="494" y="1132" on="1"/>
        <pt x="494" y="929" on="1"/>
        <pt x="494" y="825" on="0"/>
        <pt x="402" y="664" on="0"/>
        <pt x="309" y="619" on="1"/>
        <pt x="402" y="572" on="0"/>
        <pt x="494" y="411" on="0"/>
        <pt x="494" y="309" on="1"/>
        <pt x="494" y="106" on="1"/>
        <pt x="494" y="-6" on="0"/>
        <pt x="552" y="-154" on="0"/>
        <pt x="625" y="-183" on="1"/>
      </contour>
    </TTGlyph>
    <TTGlyph name="braceright" xMin="41" yMin="-360" xMax="626" yMax="1597">
      <contour>
        <pt x="41" y="-183" on="1"/>
        <pt x="113" y="-154" on="0"/>
        <pt x="172" y="-6" on="0"/>
        <pt x="172" y="106" on="1"/>
        <pt x="172" y="309" on="1"/>
        <pt x="172" y="412" on="0"/>
        <pt x="263" y="573" on="0"/>
        <pt x="358" y="619" on="1"/>
        <pt x="263" y="664" on="0"/>
        <pt x="172" y="825" on="0"/>
        <pt x="172" y="929" on="1"/>
        <pt x="172" y="1132" on="1"/>
        <pt x="172" y="1244" on="0"/>
        <pt x="113" y="1392" on="0"/>
        <pt x="41" y="1421" on="1"/>
        <pt x="104" y="1597" on="1"/>
        <pt x="298" y="1542" on="0"/>
        <pt x="464" y="1303" on="0"/>
        <pt x="464" y="1132" on="1"/>
        <pt x="464" y="929" on="1"/>
        <pt x="464" y="835" on="0"/>
        <pt x="543" y="732" on="0"/>
        <pt x="626" y="732" on="1"/>
        <pt x="626" y="505" on="1"/>
        <pt x="543" y="505" on="0"/>
        <pt x="464" y="401" on="0"/>
        <pt x="464" y="309" on="1"/>
        <pt x="464" y="106" on="1"/>
        <pt x="464" y="-65" on="0"/>
        <pt x="298" y="-305" on="0"/>
        <pt x="104" y="-360" on="1"/>
      </contour>
    </TTGlyph>
    <TTGlyph name="bracketleft" xMin="108" yMin="-349" xMax="564" yMax="1706">
      <contour>
        <pt x="564" y="1460" on="1"/>
        <pt x="446" y="1460" on="1"/>
        <pt x="446" y="-104" on="1"/>
        <pt x="564" y="-104" on="1"/>
        <pt x="564" y="-349" on="1"/>
        <pt x="108" y="-349" on="1"/>
        <pt x="108" y="1706" on="1"/>
        <pt x="564" y="1706" on="1"/>
      </contour>
    </TTGlyph>
    <TTGlyph name="bracketright" xMin="14" yMin="-349" xMax="470" yMax="1706">
      <contour>
        <pt x="14" y="1706" on="1"/>
        <pt x="470" y="1706" on="1"/>
        <pt x="470" y="-349" on="1"/>
        <pt x="14" y="-349" on="1"/>
        <pt x="14" y="-104" on="1"/>
        <pt x="133" y="-104" on="1"/>
        <pt x="133" y="1460" on="1"/>
        <pt x="14" y="1460" on="1"/>
      </contour>
    </TTGlyph>
    <TTGlyph name="breve" xMin="95" yMin="1149" xMax="832" yMax="1456">
      <contour>
        <pt x="825" y="1456" on="1"/>
        <pt x="827" y="1450" on="1"/>
        <pt x="832" y="1317" on="0"/>
        <pt x="632" y="1149" on="0"/>
        <pt x="464" y="1149" on="1"/>
        <pt x="295" y="1149" on="0"/>
        <pt x="95" y="1317" on="0"/>
        <pt x="101" y="1450" on="1"/>
        <pt x="103" y="1456" on="1"/>
        <pt x="346" y="1456" on="1"/>
        <pt x="346" y="1409" on="0"/>
        <pt x="403" y="1349" on="0"/>
        <pt x="464" y="1349" on="1"/>
        <pt x="524" y="1349" on="0"/>
        <pt x="581" y="1409" on="0"/>
        <pt x="581" y="1456" on="1"/>
      </contour>
    </TTGlyph>
    <TTGlyph name="breveacutecomb" xMin="95" yMin="1194" xMax="830" yMax="1685">
      <contour>
        <pt x="822" y="1456" on="1"/>
        <pt x="824" y="1450" on="1"/>
        <pt x="830" y="1337" on="0"/>
        <pt x="631" y="1194" on="0"/>
        <pt x="463" y="1194" on="1"/>
        <pt x="294" y="1194" on="0"/>
        <pt x="95" y="1337" on="0"/>
        <pt x="102" y="1450" on="1"/>
        <pt x="104" y="1456" on="1"/>
        <pt x="346" y="1456" on="1"/>
        <pt x="346" y="1416" on="0"/>
        <pt x="402" y="1364" on="0"/>
        <pt x="463" y="1364" on="1"/>
        <pt x="522" y="1364" on="0"/>
        <pt x="579" y="1416" on="0"/>
        <pt x="579" y="1456" on="1"/>
      </contour>
      <contour>
        <pt x="503" y="1685" on="1"/>
        <pt x="731" y="1685" on="1"/>
        <pt x="734" y="1679" on="1"/>
        <pt x="558" y="1501" on="1"/>
        <pt x="372" y="1501" on="1"/>
      </contour>
    </TTGlyph>
    <TTGlyph name="brevegravecomb" xMin="95" yMin="1194" xMax="830" yMax="1748">
      <contour>
        <pt x="621" y="1524" on="1"/>
        <pt x="359" y="1524" on="1"/>
        <pt x="161" y="1743" on="1"/>
        <pt x="163" y="1748" on="1"/>
        <pt x="456" y="1748" on="1"/>
      </contour>
      <contour>
        <pt x="822" y="1456" on="1"/>
        <pt x="824" y="1450" on="1"/>
        <pt x="830" y="1337" on="0"/>
        <pt x="631" y="1194" on="0"/>
        <pt x="463" y="1194" on="1"/>
        <pt x="294" y="1194" on="0"/>
        <pt x="95" y="1337" on="0"/>
        <pt x="102" y="1450" on="1"/>
        <pt x="104" y="1456" on="1"/>
        <pt x="346" y="1456" on="1"/>
        <pt x="346" y="1416" on="0"/>
        <pt x="402" y="1364" on="0"/>
        <pt x="463" y="1364" on="1"/>
        <pt x="522" y="1364" on="0"/>
        <pt x="579" y="1416" on="0"/>
        <pt x="579" y="1456" on="1"/>
      </contour>
    </TTGlyph>
    <TTGlyph name="brevehookcomb" xMin="103" yMin="1212" xMax="838" yMax="1814">
      <contour>
        <pt x="335" y="1501" on="1"/>
        <pt x="312" y="1600" on="1"/>
        <pt x="382" y="1602" on="0"/>
        <pt x="445" y="1624" on="0"/>
        <pt x="439" y="1645" on="1"/>
        <pt x="439" y="1651" on="1"/>
        <pt x="444" y="1678" on="0"/>
        <pt x="378" y="1700" on="0"/>
        <pt x="314" y="1700" on="1"/>
        <pt x="321" y="1814" on="1"/>
        <pt x="522" y="1814" on="0"/>
        <pt x="732" y="1733" on="0"/>
        <pt x="732" y="1660" on="1"/>
        <pt x="732" y="1611" on="0"/>
        <pt x="647" y="1555" on="0"/>
        <pt x="585" y="1549" on="1"/>
        <pt x="585" y="1501" on="1"/>
      </contour>
      <contour>
        <pt x="831" y="1456" on="1"/>
        <pt x="832" y="1450" on="1"/>
        <pt x="838" y="1345" on="0"/>
        <pt x="639" y="1212" on="0"/>
        <pt x="471" y="1212" on="1"/>
        <pt x="302" y="1212" on="0"/>
        <pt x="103" y="1345" on="0"/>
        <pt x="110" y="1450" on="1"/>
        <pt x="111" y="1456" on="1"/>
        <pt x="353" y="1456" on="1"/>
        <pt x="353" y="1418" on="0"/>
        <pt x="409" y="1371" on="0"/>
        <pt x="471" y="1371" on="1"/>
        <pt x="530" y="1371" on="0"/>
        <pt x="587" y="1418" on="0"/>
        <pt x="587" y="1456" on="1"/>
      </contour>
    </TTGlyph>
    <TTGlyph name="brevetildecomb" xMin="96" yMin="1212" xMax="831" yMax="1770">
      <contour>
        <pt x="824" y="1456" on="1"/>
        <pt x="825" y="1450" on="1"/>
        <pt x="831" y="1345" on="0"/>
        <pt x="632" y="1212" on="0"/>
        <pt x="464" y="1212" on="1"/>
        <pt x="295" y="1212" on="0"/>
        <pt x="96" y="1345" on="0"/>
        <pt x="103" y="1450" on="1"/>
        <pt x="104" y="1456" on="1"/>
        <pt x="346" y="1456" on="1"/>
        <pt x="346" y="1418" on="0"/>
        <pt x="402" y="1371" on="0"/>
        <pt x="464" y="1371" on="1"/>
        <pt x="523" y="1371" on="0"/>
        <pt x="580" y="1418" on="0"/>
        <pt x="580" y="1456" on="1"/>
      </contour>
      <contour>
        <pt x="756" y="1731" on="1"/>
        <pt x="756" y="1657" on="0"/>
        <pt x="663" y="1550" on="0"/>
        <pt x="594" y="1550" on="1"/>
        <pt x="538" y="1550" on="0"/>
        <pt x="393" y="1615" on="0"/>
        <pt x="354" y="1615" on="1"/>
        <pt x="328" y="1615" on="0"/>
        <pt x="294" y="1566" on="0"/>
        <pt x="294" y="1530" on="1"/>
        <pt x="156" y="1568" on="1"/>
        <pt x="156" y="1641" on="0"/>
        <pt x="247" y="1749" on="0"/>
        <pt x="318" y="1749" on="1"/>
        <pt x="360" y="1749" on="0"/>
        <pt x="517" y="1685" on="0"/>
        <pt x="558" y="1685" on="1"/>
        <pt x="582" y="1685" on="0"/>
        <pt x="617" y="1734" on="0"/>
        <pt x="617" y="1770" on="1"/>
      </contour>
    </TTGlyph>
    <TTGlyph name="brokenbar" xMin="119" yMin="-270" xMax="411" yMax="1456">
      <contour>
        <pt x="119" y="-270" on="1"/>
        <pt x="119" y="525" on="1"/>
        <pt x="411" y="525" on="1"/>
        <pt x="411" y="-270" on="1"/>
      </contour>
      <contour>
        <pt x="411" y="698" on="1"/>
        <pt x="119" y="698" on="1"/>
        <pt x="119" y="1456" on="1"/>
        <pt x="411" y="1456" on="1"/>
      </contour>
    </TTGlyph>
    <TTGlyph name="bullet" xMin="134" yMin="468" xMax="641" yMax="1054">
      <contour>
        <pt x="134" y="813" on="1"/>
        <pt x="134" y="919" on="0"/>
        <pt x="272" y="1054" on="0"/>
        <pt x="386" y="1054" on="1"/>
        <pt x="504" y="1054" on="0"/>
        <pt x="641" y="920" on="0"/>
        <pt x="641" y="813" on="1"/>
        <pt x="641" y="706" on="1"/>
        <pt x="641" y="599" on="0"/>
        <pt x="504" y="468" on="0"/>
        <pt x="388" y="468" on="1"/>
        <pt x="272" y="468" on="0"/>
        <pt x="134" y="600" on="0"/>
        <pt x="134" y="706" on="1"/>
      </contour>
    </TTGlyph>
    <TTGlyph name="c" xMin="45" yMin="-21" xMax="1007" yMax="1102">
      <contour>
        <pt x="558" y="239" on="1"/>
        <pt x="626" y="239" on="0"/>
        <pt x="692" y="313" on="0"/>
        <pt x="692" y="385" on="1"/>
        <pt x="1001" y="385" on="1"/>
        <pt x="1003" y="379" on="1"/>
        <pt x="1007" y="202" on="0"/>
        <pt x="754" y="-21" on="0"/>
        <pt x="558" y="-21" on="1"/>
        <pt x="312" y="-21" on="0"/>
        <pt x="45" y="285" on="0"/>
        <pt x="45" y="529" on="1"/>
        <pt x="45" y="552" on="1"/>
        <pt x="45" y="795" on="0"/>
        <pt x="311" y="1102" on="0"/>
        <pt x="555" y="1102" on="1"/>
        <pt x="761" y="1102" on="0"/>
        <pt x="1007" y="872" on="0"/>
        <pt x="1003" y="674" on="1"/>
        <pt x="1001" y="668" on="1"/>
        <pt x="692" y="668" on="1"/>
        <pt x="692" y="745" on="0"/>
        <pt x="624" y="842" on="0"/>
        <pt x="555" y="842" on="1"/>
        <pt x="459" y="842" on="0"/>
        <pt x="382" y="684" on="0"/>
        <pt x="382" y="552" on="1"/>
        <pt x="382" y="529" on="1"/>
        <pt x="382" y="393" on="0"/>
        <pt x="459" y="239" on="0"/>
      </contour>
    </TTGlyph>
    <TTGlyph name="cacute" xMin="45" yMin="-21" xMax="1007" yMax="1505">
      <component glyphName="c" x="0" y="0" flags="0x204"/>
      <component glyphName="acute" x="256" y="27" flags="0x4"/>
    </TTGlyph>
    <TTGlyph name="caron" xMin="78" yMin="1252" xMax="903" yMax="1528">
      <contour>
        <pt x="492" y="1412" on="1"/>
        <pt x="594" y="1528" on="1"/>
        <pt x="903" y="1528" on="1"/>
        <pt x="903" y="1512" on="1"/>
        <pt x="611" y="1252" on="1"/>
        <pt x="372" y="1252" on="1"/>
        <pt x="78" y="1514" on="1"/>
        <pt x="78" y="1528" on="1"/>
        <pt x="390" y="1528" on="1"/>
      </contour>
    </TTGlyph>
    <TTGlyph name="ccaron" xMin="45" yMin="-21" xMax="1007" yMax="1555">
      <component glyphName="c" x="0" y="0" flags="0x204"/>
      <component glyphName="caron" x="37" y="27" flags="0x4"/>
    </TTGlyph>
    <TTGlyph name="ccedilla" xMin="45" yMin="-472" xMax="1007" yMax="1102">
      <component glyphName="c" x="0" y="0" flags="0x204"/>
      <component glyphName="cedilla" x="317" y="0" flags="0x4"/>
    </TTGlyph>
    <TTGlyph name="ccircumflex" xMin="45" yMin="-21" xMax="1007" yMax="1531">
      <component glyphName="c" x="0" y="0" flags="0x204"/>
      <component glyphName="circumflex" x="13" y="13" flags="0x4"/>
    </TTGlyph>
    <TTGlyph name="cedilla" xMin="86" yMin="-472" xMax="513" yMax="10">
      <contour>
        <pt x="373" y="10" on="1"/>
        <pt x="363" y="-51" on="1"/>
        <pt x="427" y="-62" on="0"/>
        <pt x="513" y="-144" on="0"/>
        <pt x="513" y="-224" on="1"/>
        <pt x="513" y="-338" on="0"/>
        <pt x="319" y="-472" on="0"/>
        <pt x="139" y="-472" on="1"/>
        <pt x="132" y="-286" on="1"/>
        <pt x="173" y="-286" on="0"/>
        <pt x="220" y="-248" on="0"/>
        <pt x="220" y="-209" on="1"/>
        <pt x="220" y="-171" on="0"/>
        <pt x="159" y="-140" on="0"/>
        <pt x="86" y="-136" on="1"/>
        <pt x="117" y="10" on="1"/>
      </contour>
    </TTGlyph>
    <TTGlyph name="cent" xMin="98" yMin="-245" xMax="1060" yMax="1318">
      <contour>
        <pt x="611" y="239" on="1"/>
        <pt x="679" y="239" on="0"/>
        <pt x="745" y="313" on="0"/>
        <pt x="745" y="385" on="1"/>
        <pt x="1055" y="385" on="1"/>
        <pt x="1057" y="380" on="1"/>
        <pt x="1060" y="227" on="0"/>
        <pt x="868" y="14" on="0"/>
        <pt x="711" y="-12" on="1"/>
        <pt x="711" y="-245" on="1"/>
        <pt x="511" y="-245" on="1"/>
        <pt x="511" y="-13" on="1"/>
        <pt x="311" y="17" on="0"/>
        <pt x="98" y="311" on="0"/>
        <pt x="98" y="529" on="1"/>
        <pt x="98" y="552" on="1"/>
        <pt x="98" y="769" on="0"/>
        <pt x="312" y="1063" on="0"/>
        <pt x="511" y="1094" on="1"/>
        <pt x="511" y="1318" on="1"/>
        <pt x="711" y="1318" on="1"/>
        <pt x="711" y="1093" on="1"/>
        <pt x="873" y="1065" on="0"/>
        <pt x="1060" y="844" on="0"/>
        <pt x="1058" y="673" on="1"/>
        <pt x="1055" y="668" on="1"/>
        <pt x="745" y="668" on="1"/>
        <pt x="745" y="745" on="0"/>
        <pt x="677" y="842" on="0"/>
        <pt x="608" y="842" on="1"/>
        <pt x="512" y="842" on="0"/>
        <pt x="435" y="684" on="0"/>
        <pt x="435" y="552" on="1"/>
        <pt x="435" y="529" on="1"/>
        <pt x="435" y="393" on="0"/>
        <pt x="512" y="239" on="0"/>
      </contour>
    </TTGlyph>
    <TTGlyph name="chi" xMin="-13" yMin="-433" xMax="1104" yMax="1099">
      <contour>
        <pt x="170" y="1099" on="1"/>
        <pt x="332" y="1099" on="0"/>
        <pt x="485" y="941" on="0"/>
        <pt x="528" y="824" on="1"/>
        <pt x="576" y="714" on="1"/>
        <pt x="582" y="713" on="1"/>
        <pt x="761" y="1082" on="1"/>
        <pt x="1104" y="1082" on="1"/>
        <pt x="738" y="344" on="1"/>
        <pt x="912" y="-51" on="1"/>
        <pt x="926" y="-93" on="0"/>
        <pt x="982" y="-154" on="0"/>
        <pt x="1021" y="-166" on="1"/>
        <pt x="1030" y="-169" on="0"/>
        <pt x="1061" y="-172" on="0"/>
        <pt x="1076" y="-172" on="1"/>
        <pt x="1061" y="-423" on="1"/>
        <pt x="1020" y="-430" on="0"/>
        <pt x="926" y="-433" on="0"/>
        <pt x="881" y="-428" on="1"/>
        <pt x="770" y="-414" on="0"/>
        <pt x="647" y="-220" on="0"/>
        <pt x="591" y="-76" on="1"/>
        <pt x="565" y="-17" on="1"/>
        <pt x="559" y="-17" on="1"/>
        <pt x="362" y="-416" on="1"/>
        <pt x="35" y="-416" on="1"/>
        <pt x="405" y="348" on="1"/>
        <pt x="230" y="748" on="1"/>
        <pt x="211" y="795" on="0"/>
        <pt x="120" y="838" on="0"/>
        <pt x="60" y="838" on="1"/>
        <pt x="46" y="838" on="0"/>
        <pt x="6" y="834" on="0"/>
        <pt x="-4" y="832" on="1"/>
        <pt x="-13" y="1073" on="1"/>
        <pt x="45" y="1087" on="0"/>
        <pt x="120" y="1099" on="0"/>
      </contour>
    </TTGlyph>
    <TTGlyph name="circumflex" xMin="120" yMin="1252" xMax="918" yMax="1518">
      <contour>
        <pt x="918" y="1274" on="1"/>
        <pt x="918" y="1252" on="1"/>
        <pt x="653" y="1252" on="1"/>
        <pt x="516" y="1378" on="1"/>
        <pt x="380" y="1252" on="1"/>
        <pt x="120" y="1252" on="1"/>
        <pt x="120" y="1278" on="1"/>
        <pt x="420" y="1518" on="1"/>
        <pt x="613" y="1518" on="1"/>
      </contour>
    </TTGlyph>
    <TTGlyph name="circumflexacutecomb" xMin="74" yMin="1252" xMax="1306" yMax="1696">
      <contour>
        <pt x="375" y="1508" on="1"/>
        <pt x="655" y="1508" on="1"/>
        <pt x="955" y="1258" on="1"/>
        <pt x="953" y="1252" on="1"/>
        <pt x="660" y="1252" on="1"/>
        <pt x="514" y="1389" on="1"/>
        <pt x="370" y="1252" on="1"/>
        <pt x="76" y="1252" on="1"/>
        <pt x="74" y="1258" on="1"/>
      </contour>
      <contour>
        <pt x="1008" y="1696" on="1"/>
        <pt x="1306" y="1696" on="1"/>
        <pt x="1088" y="1421" on="1"/>
        <pt x="856" y="1421" on="1"/>
      </contour>
    </TTGlyph>
    <TTGlyph name="circumflexgravecomb" xMin="-274" yMin="1252" xMax="957" yMax="1696">
      <contour>
        <pt x="957" y="1258" on="1"/>
        <pt x="955" y="1252" on="1"/>
        <pt x="661" y="1252" on="1"/>
        <pt x="517" y="1389" on="1"/>
        <pt x="371" y="1252" on="1"/>
        <pt x="78" y="1252" on="1"/>
        <pt x="76" y="1258" on="1"/>
        <pt x="376" y="1508" on="1"/>
        <pt x="656" y="1508" on="1"/>
      </contour>
      <contour>
        <pt x="175" y="1421" on="1"/>
        <pt x="-56" y="1421" on="1"/>
        <pt x="-274" y="1696" on="1"/>
        <pt x="23" y="1696" on="1"/>
      </contour>
    </TTGlyph>
    <TTGlyph name="circumflexhookcomb" xMin="76" yMin="1252" xMax="1199" yMax="1721">
      <contour>
        <pt x="957" y="1258" on="1"/>
        <pt x="955" y="1252" on="1"/>
        <pt x="658" y="1252" on="1"/>
        <pt x="516" y="1388" on="1"/>
        <pt x="375" y="1252" on="1"/>
        <pt x="78" y="1252" on="1"/>
        <pt x="76" y="1258" on="1"/>
        <pt x="379" y="1508" on="1"/>
        <pt x="654" y="1508" on="1"/>
      </contour>
      <contour>
        <pt x="860" y="1386" on="1"/>
        <pt x="840" y="1492" on="1"/>
        <pt x="900" y="1494" on="0"/>
        <pt x="953" y="1519" on="0"/>
        <pt x="949" y="1541" on="1"/>
        <pt x="949" y="1547" on="1"/>
        <pt x="953" y="1576" on="0"/>
        <pt x="895" y="1601" on="0"/>
        <pt x="841" y="1601" on="1"/>
        <pt x="849" y="1721" on="1"/>
        <pt x="1019" y="1721" on="0"/>
        <pt x="1199" y="1635" on="0"/>
        <pt x="1199" y="1557" on="1"/>
        <pt x="1199" y="1504" on="0"/>
        <pt x="1126" y="1445" on="0"/>
        <pt x="1075" y="1438" on="1"/>
        <pt x="1075" y="1386" on="1"/>
      </contour>
    </TTGlyph>
    <TTGlyph name="circumflextildecomb" xMin="77" yMin="1263" xMax="942" yMax="1771">
      <contour>
        <pt x="942" y="1269" on="1"/>
        <pt x="940" y="1263" on="1"/>
        <pt x="650" y="1263" on="1"/>
        <pt x="510" y="1379" on="1"/>
        <pt x="370" y="1263" on="1"/>
        <pt x="79" y="1263" on="1"/>
        <pt x="77" y="1269" on="1"/>
        <pt x="371" y="1481" on="1"/>
        <pt x="649" y="1481" on="1"/>
      </contour>
      <contour>
        <pt x="803" y="1724" on="1"/>
        <pt x="803" y="1654" on="0"/>
        <pt x="726" y="1549" on="0"/>
        <pt x="663" y="1549" on="1"/>
        <pt x="613" y="1549" on="0"/>
        <pt x="454" y="1619" on="0"/>
        <pt x="416" y="1619" on="1"/>
        <pt x="394" y="1619" on="0"/>
        <pt x="374" y="1575" on="0"/>
        <pt x="374" y="1540" on="1"/>
        <pt x="247" y="1576" on="1"/>
        <pt x="247" y="1646" on="0"/>
        <pt x="320" y="1752" on="0"/>
        <pt x="383" y="1752" on="1"/>
        <pt x="424" y="1752" on="0"/>
        <pt x="593" y="1683" on="0"/>
        <pt x="630" y="1683" on="1"/>
        <pt x="651" y="1683" on="0"/>
        <pt x="673" y="1734" on="0"/>
        <pt x="673" y="1771" on="1"/>
      </contour>
    </TTGlyph>
    <TTGlyph name="colon" xMin="136" yMin="0" xMax="473" yMax="1082">
      <component glyphName="period" x="0" y="0" flags="0x4"/>
      <component glyphName="period" x="0" y="798" flags="0x4"/>
    </TTGlyph>
    <TTGlyph name="comma" xMin="56" yMin="-326" xMax="418" yMax="254">
      <contour>
        <pt x="418" y="-8" on="1"/>
        <pt x="255" y="-326" on="1"/>
        <pt x="56" y="-326" on="1"/>
        <pt x="126" y="1" on="1"/>
        <pt x="126" y="254" on="1"/>
        <pt x="418" y="254" on="1"/>
      </contour>
    </TTGlyph>
    <TTGlyph name="commaaccent" xMin="41" yMin="-121" xMax="308" yMax="285">
      <contour>
        <pt x="308" y="114" on="1"/>
        <pt x="175" y="-121" on="1"/>
        <pt x="41" y="-121" on="1"/>
        <pt x="102" y="124" on="1"/>
        <pt x="102" y="285" on="1"/>
        <pt x="308" y="285" on="1"/>
      </contour>
    </TTGlyph>
    <TTGlyph name="commaaccentrotate" xMin="108" yMin="1074" xMax="409" yMax="1529">
      <contour>
        <pt x="108" y="1264" on="1"/>
        <pt x="218" y="1529" on="1"/>
        <pt x="409" y="1529" on="1"/>
        <pt x="365" y="1254" on="1"/>
        <pt x="365" y="1074" on="1"/>
        <pt x="108" y="1074" on="1"/>
      </contour>
    </TTGlyph>
    <TTGlyph name="copyright" xMin="85" yMin="-21" xMax="1505" yMax="1476">
      <contour>
        <pt x="1108" y="596" on="1"/>
        <pt x="1110" y="590" on="1"/>
        <pt x="1114" y="439" on="0"/>
        <pt x="938" y="282" on="0"/>
        <pt x="781" y="282" on="1"/>
        <pt x="621" y="282" on="0"/>
        <pt x="432" y="494" on="0"/>
        <pt x="432" y="669" on="1"/>
        <pt x="432" y="788" on="1"/>
        <pt x="432" y="961" on="0"/>
        <pt x="621" y="1175" on="0"/>
        <pt x="781" y="1175" on="1"/>
        <pt x="938" y="1175" on="0"/>
        <pt x="1115" y="1016" on="0"/>
        <pt x="1111" y="867" on="1"/>
        <pt x="1109" y="861" on="1"/>
        <pt x="961" y="861" on="1"/>
        <pt x="961" y="955" on="0"/>
        <pt x="871" y="1040" on="0"/>
        <pt x="781" y="1040" on="1"/>
        <pt x="687" y="1040" on="0"/>
        <pt x="587" y="902" on="0"/>
        <pt x="587" y="789" on="1"/>
        <pt x="587" y="669" on="1"/>
        <pt x="587" y="554" on="0"/>
        <pt x="687" y="417" on="0"/>
        <pt x="781" y="417" on="1"/>
        <pt x="871" y="417" on="0"/>
        <pt x="960" y="500" on="0"/>
        <pt x="960" y="596" on="1"/>
      </contour>
      <contour>
        <pt x="207" y="729" on="1"/>
        <pt x="207" y="465" on="0"/>
        <pt x="550" y="104" on="0"/>
        <pt x="795" y="104" on="1"/>
        <pt x="1039" y="104" on="0"/>
        <pt x="1382" y="465" on="0"/>
        <pt x="1382" y="729" on="1"/>
        <pt x="1382" y="992" on="0"/>
        <pt x="1039" y="1351" on="0"/>
        <pt x="795" y="1351" on="1"/>
        <pt x="549" y="1351" on="0"/>
        <pt x="207" y="992" on="0"/>
      </contour>
      <contour>
        <pt x="85" y="729" on="1"/>
        <pt x="85" y="1044" on="0"/>
        <pt x="499" y="1476" on="0"/>
        <pt x="795" y="1476" on="1"/>
        <pt x="1090" y="1476" on="0"/>
        <pt x="1505" y="1044" on="0"/>
        <pt x="1505" y="729" on="1"/>
        <pt x="1505" y="413" on="0"/>
        <pt x="1089" y="-21" on="0"/>
        <pt x="795" y="-21" on="1"/>
        <pt x="499" y="-21" on="0"/>
        <pt x="85" y="413" on="0"/>
      </contour>
    </TTGlyph>
    <TTGlyph name="crossbar" xMin="160" yMin="651" xMax="846" yMax="842">
      <contour>
        <pt x="846" y="651" on="1"/>
        <pt x="160" y="651" on="1"/>
        <pt x="160" y="842" on="1"/>
        <pt x="846" y="842" on="1"/>
      </contour>
    </TTGlyph>
    <TTGlyph name="currency" xMin="69" yMin="-27" xMax="1335" yMax="1265">
      <contour>
        <pt x="1061" y="107" on="1"/>
        <pt x="984" y="45" on="0"/>
        <pt x="800" y="-20" on="0"/>
        <pt x="700" y="-20" on="1"/>
        <pt x="599" y="-20" on="0"/>
        <pt x="414" y="45" on="0"/>
        <pt x="339" y="106" on="1"/>
        <pt x="210" y="-26" on="1"/>
        <pt x="69" y="118" on="1"/>
        <pt x="204" y="255" on="1"/>
        <pt x="155" y="331" on="0"/>
        <pt x="104" y="510" on="0"/>
        <pt x="104" y="608" on="1"/>
        <pt x="104" y="709" on="0"/>
        <pt x="160" y="895" on="0"/>
        <pt x="213" y="973" on="1"/>
        <pt x="69" y="1120" on="1"/>
        <pt x="210" y="1264" on="1"/>
        <pt x="352" y="1119" on="1"/>
        <pt x="426" y="1174" on="0"/>
        <pt x="603" y="1234" on="0"/>
        <pt x="700" y="1234" on="1"/>
        <pt x="796" y="1234" on="0"/>
        <pt x="974" y="1173" on="0"/>
        <pt x="1049" y="1117" on="1"/>
        <pt x="1193" y="1265" on="1"/>
        <pt x="1335" y="1120" on="1"/>
        <pt x="1187" y="969" on="1"/>
        <pt x="1238" y="891" on="0"/>
        <pt x="1294" y="708" on="0"/>
        <pt x="1294" y="608" on="1"/>
        <pt x="1294" y="511" on="0"/>
        <pt x="1243" y="334" on="0"/>
        <pt x="1196" y="259" on="1"/>
        <pt x="1335" y="118" on="1"/>
        <pt x="1193" y="-27" on="1"/>
      </contour>
      <contour>
        <pt x="290" y="608" on="1"/>
        <pt x="290" y="424" on="0"/>
        <pt x="528" y="173" on="0"/>
        <pt x="700" y="173" on="1"/>
        <pt x="870" y="173" on="0"/>
        <pt x="1109" y="424" on="0"/>
        <pt x="1109" y="608" on="1"/>
        <pt x="1109" y="791" on="0"/>
        <pt x="870" y="1042" on="0"/>
        <pt x="700" y="1042" on="1"/>
        <pt x="528" y="1042" on="0"/>
        <pt x="290" y="791" on="0"/>
      </contour>
    </TTGlyph>
    <TTGlyph name="cyrillicbreve" xMin="95" yMin="1149" xMax="832" yMax="1456">
      <component glyphName="breve" x="0" y="0" flags="0x204"/>
    </TTGlyph>
    <TTGlyph name="cyrillichook" xMin="-115" yMin="-437" xMax="454" yMax="297">
      <contour>
        <pt x="454" y="297" on="1"/>
        <pt x="454" y="-15" on="1"/>
        <pt x="454" y="-217" on="0"/>
        <pt x="237" y="-437" on="0"/>
        <pt x="44" y="-437" on="1"/>
        <pt x="0" y="-437" on="0"/>
        <pt x="-73" y="-429" on="0"/>
        <pt x="-115" y="-420" on="1"/>
        <pt x="-101" y="-165" on="1"/>
        <pt x="-72" y="-171" on="0"/>
        <pt x="-33" y="-177" on="0"/>
        <pt x="-1" y="-177" on="1"/>
        <pt x="55" y="-177" on="0"/>
        <pt x="115" y="-94" on="0"/>
        <pt x="115" y="-15" on="1"/>
        <pt x="115" y="297" on="1"/>
      </contour>
    </TTGlyph>
    <TTGlyph name="cyrillichookleft" xMin="40" yMin="-417" xMax="484" yMax="60">
      <contour>
        <pt x="319" y="60" on="1"/>
        <pt x="403" y="7" on="0"/>
        <pt x="484" y="-128" on="0"/>
        <pt x="484" y="-203" on="1"/>
        <pt x="484" y="-304" on="0"/>
        <pt x="336" y="-417" on="0"/>
        <pt x="224" y="-417" on="1"/>
        <pt x="163" y="-417" on="0"/>
        <pt x="75" y="-392" on="0"/>
        <pt x="40" y="-373" on="1"/>
        <pt x="76" y="-205" on="1"/>
        <pt x="96" y="-213" on="0"/>
        <pt x="137" y="-223" on="0"/>
        <pt x="165" y="-223" on="1"/>
        <pt x="215" y="-223" on="0"/>
        <pt x="243" y="-183" on="0"/>
        <pt x="243" y="-164" on="1"/>
        <pt x="243" y="-117" on="0"/>
        <pt x="205" y="-55" on="0"/>
        <pt x="160" y="0" on="1"/>
      </contour>
    </TTGlyph>
    <TTGlyph name="cyrillictic" xMin="88" yMin="-356" xMax="425" yMax="223">
      <contour>
        <pt x="425" y="-356" on="1"/>
        <pt x="88" y="-356" on="1"/>
        <pt x="88" y="223" on="1"/>
        <pt x="425" y="223" on="1"/>
      </contour>
    </TTGlyph>
    <TTGlyph name="d" xMin="51" yMin="-21" xMax="1055" yMax="1560">
      <contour>
        <pt x="51" y="539" on="1"/>
        <pt x="51" y="792" on="0"/>
        <pt x="272" y="1102" on="0"/>
        <pt x="473" y="1102" on="1"/>
        <pt x="548" y="1102" on="0"/>
        <pt x="669" y="1033" on="0"/>
        <pt x="717" y="969" on="1"/>
        <pt x="717" y="1560" on="1"/>
        <pt x="1055" y="1560" on="1"/>
        <pt x="1055" y="0" on="1"/>
        <pt x="762" y="0" on="1"/>
        <pt x="738" y="133" on="1"/>
        <pt x="688" y="58" on="0"/>
        <pt x="555" y="-21" on="0"/>
        <pt x="471" y="-21" on="1"/>
        <pt x="271" y="-21" on="0"/>
        <pt x="51" y="275" on="0"/>
        <pt x="51" y="518" on="1"/>
      </contour>
      <contour>
        <pt x="389" y="518" on="1"/>
        <pt x="389" y="386" on="0"/>
        <pt x="466" y="239" on="0"/>
        <pt x="557" y="239" on="1"/>
        <pt x="610" y="239" on="0"/>
        <pt x="691" y="278" on="0"/>
        <pt x="717" y="316" on="1"/>
        <pt x="717" y="753" on="1"/>
        <pt x="691" y="796" on="0"/>
        <pt x="611" y="842" on="0"/>
        <pt x="559" y="842" on="1"/>
        <pt x="469" y="842" on="0"/>
        <pt x="389" y="676" on="0"/>
        <pt x="389" y="539" on="1"/>
      </contour>
    </TTGlyph>
    <TTGlyph name="dagger" xMin="50" yMin="0" xMax="1039" yMax="1456">
      <contour>
        <pt x="1039" y="812" on="1"/>
        <pt x="711" y="812" on="1"/>
        <pt x="711" y="0" on="1"/>
        <pt x="374" y="0" on="1"/>
        <pt x="374" y="812" on="1"/>
        <pt x="50" y="812" on="1"/>
        <pt x="50" y="1082" on="1"/>
        <pt x="374" y="1082" on="1"/>
        <pt x="374" y="1456" on="1"/>
        <pt x="711" y="1456" on="1"/>
        <pt x="711" y="1082" on="1"/>
        <pt x="1039" y="1082" on="1"/>
      </contour>
    </TTGlyph>
    <TTGlyph name="daggerdbl" xMin="103" yMin="-416" xMax="1092" yMax="1456">
      <contour>
        <pt x="1092" y="0" on="1"/>
        <pt x="764" y="0" on="1"/>
        <pt x="764" y="-416" on="1"/>
        <pt x="426" y="-416" on="1"/>
        <pt x="426" y="0" on="1"/>
        <pt x="103" y="0" on="1"/>
        <pt x="103" y="260" on="1"/>
        <pt x="426" y="260" on="1"/>
        <pt x="426" y="822" on="1"/>
        <pt x="103" y="822" on="1"/>
        <pt x="103" y="1082" on="1"/>
        <pt x="426" y="1082" on="1"/>
        <pt x="426" y="1456" on="1"/>
        <pt x="764" y="1456" on="1"/>
        <pt x="764" y="1082" on="1"/>
        <pt x="1092" y="1082" on="1"/>
        <pt x="1092" y="822" on="1"/>
        <pt x="764" y="822" on="1"/>
        <pt x="764" y="260" on="1"/>
        <pt x="1092" y="260" on="1"/>
      </contour>
    </TTGlyph>
    <TTGlyph name="dasiaoxia" xMin="119" yMin="1135" xMax="712" yMax="1477">
      <contour>
        <pt x="399" y="1164" on="1"/>
        <pt x="501" y="1477" on="1"/>
        <pt x="712" y="1477" on="1"/>
        <pt x="712" y="1456" on="1"/>
        <pt x="482" y="1137" on="1"/>
        <pt x="399" y="1137" on="1"/>
      </contour>
      <contour>
        <pt x="119" y="1298" on="1"/>
        <pt x="260" y="1476" on="1"/>
        <pt x="368" y="1476" on="1"/>
        <pt x="287" y="1272" on="1"/>
        <pt x="287" y="1135" on="1"/>
        <pt x="119" y="1135" on="1"/>
      </contour>
    </TTGlyph>
    <TTGlyph name="dcaron" xMin="51" yMin="-21" xMax="1398" yMax="1560">
      <component glyphName="d" x="0" y="0" flags="0x4"/>
      <component glyphName="commaaccent" x="1090" y="1274" flags="0x4"/>
    </TTGlyph>
    <TTGlyph name="dcroat" xMin="51" yMin="-21" xMax="1172" yMax="1560">
      <contour>
        <pt x="1172" y="1215" on="1"/>
        <pt x="1055" y="1215" on="1"/>
        <pt x="1055" y="0" on="1"/>
        <pt x="762" y="0" on="1"/>
        <pt x="738" y="133" on="1"/>
        <pt x="688" y="58" on="0"/>
        <pt x="555" y="-21" on="0"/>
        <pt x="471" y="-21" on="1"/>
        <pt x="271" y="-21" on="0"/>
        <pt x="51" y="275" on="0"/>
        <pt x="51" y="518" on="1"/>
        <pt x="51" y="539" on="1"/>
        <pt x="51" y="792" on="0"/>
        <pt x="272" y="1102" on="0"/>
        <pt x="473" y="1102" on="1"/>
        <pt x="548" y="1102" on="0"/>
        <pt x="669" y="1033" on="0"/>
        <pt x="717" y="969" on="1"/>
        <pt x="717" y="1215" on="1"/>
        <pt x="486" y="1215" on="1"/>
        <pt x="486" y="1406" on="1"/>
        <pt x="717" y="1406" on="1"/>
        <pt x="717" y="1560" on="1"/>
        <pt x="1055" y="1560" on="1"/>
        <pt x="1055" y="1406" on="1"/>
        <pt x="1172" y="1406" on="1"/>
      </contour>
      <contour>
        <pt x="389" y="518" on="1"/>
        <pt x="389" y="386" on="0"/>
        <pt x="466" y="239" on="0"/>
        <pt x="557" y="239" on="1"/>
        <pt x="610" y="239" on="0"/>
        <pt x="691" y="278" on="0"/>
        <pt x="717" y="316" on="1"/>
        <pt x="717" y="753" on="1"/>
        <pt x="691" y="796" on="0"/>
        <pt x="611" y="842" on="0"/>
        <pt x="559" y="842" on="1"/>
        <pt x="469" y="842" on="0"/>
        <pt x="389" y="676" on="0"/>
        <pt x="389" y="539" on="1"/>
      </contour>
    </TTGlyph>
    <TTGlyph name="degree" xMin="125" yMin="920" xMax="681" yMax="1478">
      <contour>
        <pt x="125" y="1197" on="1"/>
        <pt x="125" y="1312" on="0"/>
        <pt x="290" y="1478" on="0"/>
        <pt x="406" y="1478" on="1"/>
        <pt x="519" y="1478" on="0"/>
        <pt x="681" y="1312" on="0"/>
        <pt x="681" y="1197" on="1"/>
        <pt x="681" y="1081" on="0"/>
        <pt x="519" y="920" on="0"/>
        <pt x="406" y="920" on="1"/>
        <pt x="290" y="920" on="0"/>
        <pt x="125" y="1081" on="0"/>
      </contour>
      <contour>
        <pt x="280" y="1197" on="1"/>
        <pt x="280" y="1144" on="0"/>
        <pt x="354" y="1073" on="0"/>
        <pt x="406" y="1073" on="1"/>
        <pt x="457" y="1073" on="0"/>
        <pt x="527" y="1143" on="0"/>
        <pt x="527" y="1197" on="1"/>
        <pt x="527" y="1251" on="0"/>
        <pt x="457" y="1325" on="0"/>
        <pt x="406" y="1325" on="1"/>
        <pt x="354" y="1325" on="0"/>
        <pt x="280" y="1251" on="0"/>
      </contour>
    </TTGlyph>
    <TTGlyph name="delta" xMin="51" yMin="-21" xMax="1098" yMax="1456">
      <contour>
        <pt x="998" y="1456" on="1"/>
        <pt x="998" y="1196" on="1"/>
        <pt x="630" y="1196" on="1"/>
        <pt x="803" y="1099" on="0"/>
        <pt x="1098" y="741" on="0"/>
        <pt x="1098" y="551" on="1"/>
        <pt x="1098" y="530" on="1"/>
        <pt x="1098" y="285" on="0"/>
        <pt x="822" y="-21" on="0"/>
        <pt x="576" y="-21" on="1"/>
        <pt x="327" y="-21" on="0"/>
        <pt x="51" y="262" on="0"/>
        <pt x="51" y="490" on="1"/>
        <pt x="51" y="511" on="1"/>
        <pt x="51" y="705" on="0"/>
        <pt x="268" y="974" on="0"/>
        <pt x="427" y="1003" on="1"/>
        <pt x="435" y="1004" on="1"/>
        <pt x="437" y="1010" on="1"/>
        <pt x="383" y="1070" on="0"/>
        <pt x="245" y="1195" on="0"/>
        <pt x="173" y="1249" on="1"/>
        <pt x="173" y="1456" on="1"/>
      </contour>
      <contour>
        <pt x="389" y="530" on="1"/>
        <pt x="389" y="394" on="0"/>
        <pt x="474" y="239" on="0"/>
        <pt x="576" y="239" on="1"/>
        <pt x="675" y="239" on="0"/>
        <pt x="761" y="395" on="0"/>
        <pt x="761" y="530" on="1"/>
        <pt x="761" y="551" on="1"/>
        <pt x="761" y="649" on="0"/>
        <pt x="679" y="800" on="0"/>
        <pt x="620" y="836" on="1"/>
        <pt x="609" y="839" on="0"/>
        <pt x="586" y="842" on="0"/>
        <pt x="574" y="842" on="1"/>
        <pt x="474" y="842" on="0"/>
        <pt x="389" y="682" on="0"/>
        <pt x="389" y="551" on="1"/>
      </contour>
    </TTGlyph>
    <TTGlyph name="dieresis" xMin="148" yMin="1252" xMax="953" yMax="1456">
      <contour>
        <pt x="953" y="1252" on="1"/>
        <pt x="663" y="1252" on="1"/>
        <pt x="663" y="1456" on="1"/>
        <pt x="953" y="1456" on="1"/>
      </contour>
      <contour>
        <pt x="438" y="1252" on="1"/>
        <pt x="148" y="1252" on="1"/>
        <pt x="148" y="1456" on="1"/>
        <pt x="438" y="1456" on="1"/>
      </contour>
    </TTGlyph>
    <TTGlyph name="dieresistonos" xMin="149" yMin="1252" xMax="997" yMax="1770">
      <contour>
        <pt x="997" y="1252" on="1"/>
        <pt x="717" y="1252" on="1"/>
        <pt x="717" y="1456" on="1"/>
        <pt x="997" y="1456" on="1"/>
      </contour>
      <contour>
        <pt x="429" y="1252" on="1"/>
        <pt x="149" y="1252" on="1"/>
        <pt x="149" y="1456" on="1"/>
        <pt x="429" y="1456" on="1"/>
      </contour>
      <contour>
        <pt x="531" y="1770" on="1"/>
        <pt x="844" y="1770" on="1"/>
        <pt x="643" y="1484" on="1"/>
        <pt x="494" y="1484" on="1"/>
      </contour>
    </TTGlyph>
    <TTGlyph name="divide" xMin="59" yMin="158" xMax="1103" yMax="1206">
      <contour>
        <pt x="1103" y="563" on="1"/>
        <pt x="59" y="563" on="1"/>
        <pt x="59" y="807" on="1"/>
        <pt x="1103" y="807" on="1"/>
      </contour>
      <contour>
        <pt x="752" y="961" on="1"/>
        <pt x="413" y="961" on="1"/>
        <pt x="413" y="1206" on="1"/>
        <pt x="752" y="1206" on="1"/>
      </contour>
      <contour>
        <pt x="752" y="158" on="1"/>
        <pt x="413" y="158" on="1"/>
        <pt x="413" y="404" on="1"/>
        <pt x="752" y="404" on="1"/>
      </contour>
    </TTGlyph>
    <TTGlyph name="dollar" xMin="84" yMin="-218" xMax="1103" yMax="1685">
      <contour>
        <pt x="760" y="386" on="1"/>
        <pt x="760" y="465" on="0"/>
        <pt x="684" y="552" on="0"/>
        <pt x="587" y="594" on="1"/>
        <pt x="351" y="688" on="0"/>
        <pt x="136" y="881" on="0"/>
        <pt x="136" y="1068" on="1"/>
        <pt x="136" y="1237" on="0"/>
        <pt x="364" y="1456" on="0"/>
        <pt x="554" y="1474" on="1"/>
        <pt x="554" y="1685" on="1"/>
        <pt x="713" y="1685" on="1"/>
        <pt x="713" y="1470" on="1"/>
        <pt x="893" y="1444" on="0"/>
        <pt x="1103" y="1200" on="0"/>
        <pt x="1100" y="1011" on="1"/>
        <pt x="1098" y="1006" on="1"/>
        <pt x="767" y="1006" on="1"/>
        <pt x="767" y="1115" on="0"/>
        <pt x="683" y="1222" on="0"/>
        <pt x="613" y="1222" on="1"/>
        <pt x="542" y="1222" on="0"/>
        <pt x="474" y="1134" on="0"/>
        <pt x="474" y="1066" on="1"/>
        <pt x="474" y="997" on="0"/>
        <pt x="547" y="911" on="0"/>
        <pt x="647" y="867" on="1"/>
        <pt x="879" y="768" on="0"/>
        <pt x="1097" y="571" on="0"/>
        <pt x="1097" y="388" on="1"/>
        <pt x="1097" y="214" on="0"/>
        <pt x="878" y="2" on="0"/>
        <pt x="693" y="-17" on="1"/>
        <pt x="693" y="-218" on="1"/>
        <pt x="534" y="-218" on="1"/>
        <pt x="534" y="-16" on="1"/>
        <pt x="340" y="3" on="0"/>
        <pt x="84" y="236" on="0"/>
        <pt x="88" y="461" on="1"/>
        <pt x="91" y="467" on="1"/>
        <pt x="420" y="467" on="1"/>
        <pt x="420" y="343" on="0"/>
        <pt x="528" y="234" on="0"/>
        <pt x="614" y="234" on="1"/>
        <pt x="686" y="234" on="0"/>
        <pt x="760" y="318" on="0"/>
      </contour>
    </TTGlyph>
    <TTGlyph name="dotaccent" xMin="138" yMin="1215" xMax="485" yMax="1475">
      <contour>
        <pt x="485" y="1215" on="1"/>
        <pt x="138" y="1215" on="1"/>
        <pt x="138" y="1475" on="1"/>
        <pt x="485" y="1475" on="1"/>
      </contour>
    </TTGlyph>
    <TTGlyph name="dotbelow" xMin="-788" yMin="-362" xMax="-407" yMax="-102">
      <contour>
        <pt x="-407" y="-362" on="1"/>
        <pt x="-788" y="-362" on="1"/>
        <pt x="-788" y="-102" on="1"/>
        <pt x="-407" y="-102" on="1"/>
      </contour>
    </TTGlyph>
    <TTGlyph name="dotlessi" xMin="123" yMin="0" xMax="462" yMax="1082">
      <contour>
        <pt x="462" y="0" on="1"/>
        <pt x="123" y="0" on="1"/>
        <pt x="123" y="1082" on="1"/>
        <pt x="462" y="1082" on="1"/>
      </contour>
    </TTGlyph>
    <TTGlyph name="e" xMin="66" yMin="-21" xMax="1036" yMax="1103">
      <contour>
        <pt x="590" y="-21" on="1"/>
        <pt x="351" y="-21" on="0"/>
        <pt x="66" y="279" on="0"/>
        <pt x="66" y="505" on="1"/>
        <pt x="66" y="543" on="1"/>
        <pt x="66" y="790" on="0"/>
        <pt x="325" y="1103" on="0"/>
        <pt x="566" y="1102" on="1"/>
        <pt x="786" y="1102" on="0"/>
        <pt x="1036" y="838" on="0"/>
        <pt x="1036" y="612" on="1"/>
        <pt x="1036" y="435" on="1"/>
        <pt x="418" y="435" on="1"/>
        <pt x="416" y="429" on="1"/>
        <pt x="427" y="346" on="0"/>
        <pt x="541" y="239" on="0"/>
        <pt x="636" y="239" on="1"/>
        <pt x="732" y="239" on="0"/>
        <pt x="847" y="269" on="0"/>
        <pt x="935" y="306" on="1"/>
        <pt x="1015" y="100" on="1"/>
        <pt x="944" y="48" on="0"/>
        <pt x="719" y="-21" on="0"/>
      </contour>
      <contour>
        <pt x="566" y="842" on="1"/>
        <pt x="493" y="842" on="0"/>
        <pt x="420" y="738" on="0"/>
        <pt x="412" y="651" on="1"/>
        <pt x="415" y="646" on="1"/>
        <pt x="706" y="646" on="1"/>
        <pt x="706" y="672" on="1"/>
        <pt x="706" y="754" on="0"/>
        <pt x="638" y="842" on="0"/>
      </contour>
    </TTGlyph>
    <TTGlyph name="eacute" xMin="66" yMin="-21" xMax="1036" yMax="1506">
      <component glyphName="e" x="0" y="0" flags="0x204"/>
      <component glyphName="acute" x="267" y="28" flags="0x4"/>
    </TTGlyph>
    <TTGlyph name="ebreve" xMin="66" yMin="-21" xMax="1036" yMax="1587">
      <component glyphName="e" x="0" y="0" flags="0x204"/>
      <component glyphName="breve" x="77" y="131" flags="0x4"/>
    </TTGlyph>
    <TTGlyph name="ecaron" xMin="66" yMin="-21" xMax="1036" yMax="1556">
      <component glyphName="e" x="0" y="0" flags="0x204"/>
      <component glyphName="caron" x="48" y="28" flags="0x4"/>
    </TTGlyph>
    <TTGlyph name="ecircumflex" xMin="66" yMin="-21" xMax="1036" yMax="1532">
      <component glyphName="e" x="0" y="0" flags="0x204"/>
      <component glyphName="circumflex" x="24" y="14" flags="0x4"/>
    </TTGlyph>
    <TTGlyph name="edieresis" xMin="66" yMin="-21" xMax="1036" yMax="1484">
      <component glyphName="e" x="0" y="0" flags="0x204"/>
      <component glyphName="dieresis" x="-8" y="28" flags="0x4"/>
    </TTGlyph>
    <TTGlyph name="edotaccent" xMin="66" yMin="-21" xMax="1036" yMax="1541">
      <component glyphName="e" x="0" y="0" flags="0x204"/>
      <component glyphName="dotaccent" x="223" y="66" flags="0x4"/>
    </TTGlyph>
    <TTGlyph name="egrave" xMin="66" yMin="-21" xMax="1036" yMax="1504">
      <component glyphName="e" x="0" y="0" flags="0x204"/>
      <component glyphName="grave" x="89" y="26" flags="0x4"/>
    </TTGlyph>
    <TTGlyph name="eight" xMin="86" yMin="-21" xMax="1100" yMax="1477">
      <contour>
        <pt x="1070" y="1067" on="1"/>
        <pt x="1070" y="960" on="0"/>
        <pt x="960" y="793" on="0"/>
        <pt x="863" y="745" on="1"/>
        <pt x="974" y="694" on="0"/>
        <pt x="1100" y="516" on="0"/>
        <pt x="1100" y="401" on="1"/>
        <pt x="1100" y="197" on="0"/>
        <pt x="820" y="-21" on="0"/>
        <pt x="594" y="-21" on="1"/>
        <pt x="368" y="-21" on="0"/>
        <pt x="86" y="198" on="0"/>
        <pt x="86" y="401" on="1"/>
        <pt x="86" y="516" on="0"/>
        <pt x="212" y="694" on="0"/>
        <pt x="323" y="745" on="1"/>
        <pt x="224" y="793" on="0"/>
        <pt x="115" y="960" on="0"/>
        <pt x="115" y="1067" on="1"/>
        <pt x="115" y="1262" on="0"/>
        <pt x="378" y="1477" on="0"/>
        <pt x="592" y="1477" on="1"/>
        <pt x="808" y="1477" on="0"/>
        <pt x="1070" y="1262" on="0"/>
      </contour>
      <contour>
        <pt x="763" y="428" on="1"/>
        <pt x="763" y="515" on="0"/>
        <pt x="669" y="615" on="0"/>
        <pt x="592" y="615" on="1"/>
        <pt x="515" y="615" on="0"/>
        <pt x="424" y="515" on="0"/>
        <pt x="424" y="428" on="1"/>
        <pt x="424" y="340" on="0"/>
        <pt x="516" y="239" on="0"/>
        <pt x="594" y="239" on="1"/>
        <pt x="670" y="239" on="0"/>
        <pt x="763" y="340" on="0"/>
      </contour>
      <contour>
        <pt x="733" y="1049" on="1"/>
        <pt x="733" y="1127" on="0"/>
        <pt x="661" y="1217" on="0"/>
        <pt x="592" y="1217" on="1"/>
        <pt x="525" y="1217" on="0"/>
        <pt x="454" y="1128" on="0"/>
        <pt x="454" y="1049" on="1"/>
        <pt x="454" y="969" on="0"/>
        <pt x="526" y="875" on="0"/>
        <pt x="594" y="875" on="1"/>
        <pt x="662" y="875" on="0"/>
        <pt x="733" y="968" on="0"/>
      </contour>
    </TTGlyph>
    <TTGlyph name="eight.lnum" xMin="74" yMin="-21" xMax="1128" yMax="1477">
      <contour>
        <pt x="1098" y="1067" on="1"/>
        <pt x="1098" y="960" on="0"/>
        <pt x="984" y="793" on="0"/>
        <pt x="883" y="745" on="1"/>
        <pt x="997" y="694" on="0"/>
        <pt x="1128" y="516" on="0"/>
        <pt x="1128" y="401" on="1"/>
        <pt x="1128" y="197" on="0"/>
        <pt x="838" y="-21" on="0"/>
        <pt x="603" y="-21" on="1"/>
        <pt x="368" y="-21" on="0"/>
        <pt x="74" y="198" on="0"/>
        <pt x="74" y="401" on="1"/>
        <pt x="74" y="516" on="0"/>
        <pt x="205" y="694" on="0"/>
        <pt x="321" y="745" on="1"/>
        <pt x="218" y="793" on="0"/>
        <pt x="104" y="960" on="0"/>
        <pt x="104" y="1067" on="1"/>
        <pt x="104" y="1262" on="0"/>
        <pt x="377" y="1477" on="0"/>
        <pt x="601" y="1477" on="1"/>
        <pt x="826" y="1477" on="0"/>
        <pt x="1098" y="1262" on="0"/>
      </contour>
      <contour>
        <pt x="791" y="428" on="1"/>
        <pt x="791" y="516" on="0"/>
        <pt x="687" y="615" on="0"/>
        <pt x="601" y="615" on="1"/>
        <pt x="515" y="615" on="0"/>
        <pt x="412" y="515" on="0"/>
        <pt x="412" y="428" on="1"/>
        <pt x="412" y="340" on="0"/>
        <pt x="516" y="239" on="0"/>
        <pt x="603" y="239" on="1"/>
        <pt x="688" y="239" on="0"/>
        <pt x="791" y="340" on="0"/>
      </contour>
      <contour>
        <pt x="761" y="1049" on="1"/>
        <pt x="761" y="1127" on="0"/>
        <pt x="679" y="1217" on="0"/>
        <pt x="601" y="1217" on="1"/>
        <pt x="523" y="1217" on="0"/>
        <pt x="442" y="1128" on="0"/>
        <pt x="442" y="1049" on="1"/>
        <pt x="442" y="969" on="0"/>
        <pt x="525" y="875" on="0"/>
        <pt x="603" y="875" on="1"/>
        <pt x="680" y="875" on="0"/>
        <pt x="761" y="968" on="0"/>
      </contour>
    </TTGlyph>
    <TTGlyph name="eight.smcp" xMin="71" yMin="-17" xMax="1064" yMax="1181">
      <contour>
        <pt x="1029" y="860" on="1"/>
        <pt x="1029" y="775" on="0"/>
        <pt x="922" y="643" on="0"/>
        <pt x="830" y="604" on="1"/>
        <pt x="938" y="563" on="0"/>
        <pt x="1064" y="420" on="0"/>
        <pt x="1064" y="328" on="1"/>
        <pt x="1064" y="166" on="0"/>
        <pt x="787" y="-17" on="0"/>
        <pt x="576" y="-17" on="1"/>
        <pt x="360" y="-17" on="0"/>
        <pt x="71" y="166" on="0"/>
        <pt x="71" y="328" on="1"/>
        <pt x="71" y="420" on="0"/>
        <pt x="202" y="563" on="0"/>
        <pt x="315" y="604" on="1"/>
        <pt x="217" y="643" on="0"/>
        <pt x="106" y="775" on="0"/>
        <pt x="106" y="860" on="1"/>
        <pt x="106" y="1013" on="0"/>
        <pt x="372" y="1181" on="0"/>
        <pt x="575" y="1181" on="1"/>
        <pt x="773" y="1181" on="0"/>
        <pt x="1029" y="1013" on="0"/>
      </contour>
      <contour>
        <pt x="726" y="356" on="1"/>
        <pt x="726" y="408" on="0"/>
        <pt x="638" y="474" on="0"/>
        <pt x="575" y="474" on="1"/>
        <pt x="506" y="474" on="0"/>
        <pt x="409" y="408" on="0"/>
        <pt x="409" y="356" on="1"/>
        <pt x="409" y="304" on="0"/>
        <pt x="506" y="241" on="0"/>
        <pt x="576" y="241" on="1"/>
        <pt x="639" y="241" on="0"/>
        <pt x="726" y="304" on="0"/>
      </contour>
      <contour>
        <pt x="692" y="832" on="1"/>
        <pt x="692" y="875" on="0"/>
        <pt x="625" y="924" on="0"/>
        <pt x="575" y="924" on="1"/>
        <pt x="520" y="924" on="0"/>
        <pt x="443" y="874" on="0"/>
        <pt x="443" y="832" on="1"/>
        <pt x="443" y="788" on="0"/>
        <pt x="521" y="733" on="0"/>
        <pt x="576" y="733" on="1"/>
        <pt x="625" y="733" on="0"/>
        <pt x="692" y="788" on="0"/>
      </contour>
    </TTGlyph>
    <TTGlyph name="eight.sup" xMin="87" yMin="-11" xMax="796" yMax="812">
      <contour>
        <pt x="769" y="592" on="1"/>
        <pt x="769" y="534" on="0"/>
        <pt x="693" y="442" on="0"/>
        <pt x="627" y="416" on="1"/>
        <pt x="705" y="388" on="0"/>
        <pt x="796" y="289" on="0"/>
        <pt x="796" y="226" on="1"/>
        <pt x="796" y="114" on="0"/>
        <pt x="599" y="-11" on="0"/>
        <pt x="448" y="-11" on="1"/>
        <pt x="292" y="-11" on="0"/>
        <pt x="87" y="114" on="0"/>
        <pt x="87" y="226" on="1"/>
        <pt x="87" y="288" on="0"/>
        <pt x="180" y="388" on="0"/>
        <pt x="261" y="416" on="1"/>
        <pt x="191" y="443" on="0"/>
        <pt x="111" y="534" on="0"/>
        <pt x="111" y="592" on="1"/>
        <pt x="111" y="697" on="0"/>
        <pt x="302" y="812" on="0"/>
        <pt x="447" y="812" on="1"/>
        <pt x="587" y="812" on="0"/>
        <pt x="769" y="697" on="0"/>
      </contour>
      <contour>
        <pt x="566" y="241" on="1"/>
        <pt x="566" y="281" on="0"/>
        <pt x="496" y="332" on="0"/>
        <pt x="447" y="332" on="1"/>
        <pt x="391" y="332" on="0"/>
        <pt x="315" y="281" on="0"/>
        <pt x="315" y="241" on="1"/>
        <pt x="315" y="202" on="0"/>
        <pt x="391" y="156" on="0"/>
        <pt x="448" y="156" on="1"/>
        <pt x="498" y="156" on="0"/>
        <pt x="566" y="202" on="0"/>
      </contour>
      <contour>
        <pt x="542" y="575" on="1"/>
        <pt x="542" y="608" on="0"/>
        <pt x="487" y="646" on="0"/>
        <pt x="447" y="646" on="1"/>
        <pt x="401" y="646" on="0"/>
        <pt x="341" y="608" on="0"/>
        <pt x="341" y="575" on="1"/>
        <pt x="341" y="540" on="0"/>
        <pt x="403" y="498" on="0"/>
        <pt x="448" y="498" on="1"/>
        <pt x="487" y="498" on="0"/>
        <pt x="542" y="540" on="0"/>
      </contour>
    </TTGlyph>
    <TTGlyph name="ellipsis" xMin="147" yMin="0" xMax="1461" yMax="284">
      <component glyphName="period" x="11" y="0" flags="0x4"/>
      <component glyphName="period" x="500" y="0" flags="0x4"/>
      <component glyphName="period" x="988" y="0" flags="0x4"/>
    </TTGlyph>
    <TTGlyph name="emacron" xMin="66" yMin="-21" xMax="1036" yMax="1455">
      <component glyphName="e" x="0" y="0" flags="0x204"/>
      <component glyphName="macron" x="12" y="-3" flags="0x4"/>
    </TTGlyph>
    <TTGlyph name="emdash" xMin="160" yMin="578" xMax="1494" yMax="842">
      <component glyphName="minus" x="-56" y="0" scalex="1.59997558594" scaley="1.0" flags="0x4"/>
    </TTGlyph>
    <TTGlyph name="endash" xMin="161" yMin="578" xMax="1246" yMax="842">
      <component glyphName="minus" x="-14" y="0" scalex="1.29998779297" scaley="1.0" flags="0x4"/>
    </TTGlyph>
    <TTGlyph name="eng" xMin="90" yMin="-437" xMax="1064" yMax="1102">
      <contour>
        <pt x="407" y="1082" on="1"/>
        <pt x="420" y="928" on="1"/>
        <pt x="474" y="1010" on="0"/>
        <pt x="631" y="1102" on="0"/>
        <pt x="726" y="1102" on="1"/>
        <pt x="885" y="1102" on="0"/>
        <pt x="1064" y="886" on="0"/>
        <pt x="1064" y="651" on="1"/>
        <pt x="1064" y="-15" on="1"/>
        <pt x="1064" y="-217" on="0"/>
        <pt x="848" y="-437" on="0"/>
        <pt x="655" y="-437" on="1"/>
        <pt x="610" y="-437" on="0"/>
        <pt x="536" y="-429" on="0"/>
        <pt x="495" y="-420" on="1"/>
        <pt x="509" y="-165" on="1"/>
        <pt x="538" y="-171" on="0"/>
        <pt x="576" y="-177" on="0"/>
        <pt x="609" y="-177" on="1"/>
        <pt x="665" y="-177" on="0"/>
        <pt x="726" y="-94" on="0"/>
        <pt x="726" y="-15" on="1"/>
        <pt x="726" y="652" on="1"/>
        <pt x="726" y="755" on="0"/>
        <pt x="660" y="842" on="0"/>
        <pt x="597" y="842" on="1"/>
        <pt x="542" y="842" on="0"/>
        <pt x="457" y="803" on="0"/>
        <pt x="427" y="768" on="1"/>
        <pt x="427" y="0" on="1"/>
        <pt x="90" y="0" on="1"/>
        <pt x="90" y="1082" on="1"/>
      </contour>
    </TTGlyph>
    <TTGlyph name="eogonek" xMin="66" yMin="-384" xMax="1036" yMax="1103">
      <component glyphName="e" x="0" y="0" flags="0x204"/>
      <component glyphName="ogonek" x="462" y="33" flags="0x4"/>
    </TTGlyph>
    <TTGlyph name="epsilon" xMin="93" yMin="-20" xMax="1104" yMax="1101">
      <contour>
        <pt x="607" y="450" on="1"/>
        <pt x="523" y="450" on="0"/>
        <pt x="429" y="396" on="0"/>
        <pt x="429" y="336" on="1"/>
        <pt x="429" y="289" on="0"/>
        <pt x="517" y="220" on="0"/>
        <pt x="598" y="220" on="1"/>
        <pt x="683" y="220" on="0"/>
        <pt x="770" y="276" on="0"/>
        <pt x="770" y="320" on="1"/>
        <pt x="1097" y="320" on="1"/>
        <pt x="1099" y="314" on="1"/>
        <pt x="1104" y="152" on="0"/>
        <pt x="818" y="-20" on="0"/>
        <pt x="621" y="-20" on="1"/>
        <pt x="392" y="-20" on="0"/>
        <pt x="93" y="156" on="0"/>
        <pt x="93" y="306" on="1"/>
        <pt x="93" y="396" on="0"/>
        <pt x="199" y="524" on="0"/>
        <pt x="300" y="557" on="1"/>
        <pt x="212" y="593" on="0"/>
        <pt x="112" y="714" on="0"/>
        <pt x="112" y="786" on="1"/>
        <pt x="112" y="935" on="0"/>
        <pt x="392" y="1101" on="0"/>
        <pt x="621" y="1101" on="1"/>
        <pt x="820" y="1101" on="0"/>
        <pt x="1087" y="922" on="0"/>
        <pt x="1082" y="774" on="1"/>
        <pt x="1080" y="768" on="1"/>
        <pt x="753" y="768" on="1"/>
        <pt x="753" y="814" on="0"/>
        <pt x="668" y="861" on="0"/>
        <pt x="599" y="861" on="1"/>
        <pt x="523" y="861" on="0"/>
        <pt x="449" y="798" on="0"/>
        <pt x="449" y="755" on="1"/>
        <pt x="449" y="709" on="0"/>
        <pt x="534" y="657" on="0"/>
        <pt x="607" y="657" on="1"/>
        <pt x="782" y="657" on="1"/>
        <pt x="782" y="450" on="1"/>
      </contour>
    </TTGlyph>
    <TTGlyph name="epsilontonos" xMin="93" yMin="-20" xMax="1104" yMax="1538">
      <component glyphName="epsilon" x="0" y="0" flags="0x204"/>
      <component glyphName="tonos" x="201" y="-80" flags="0x4"/>
    </TTGlyph>
    <TTGlyph name="equal" xMin="128" yMin="293" xMax="1054" yMax="992">
      <contour>
        <pt x="1054" y="732" on="1"/>
        <pt x="128" y="732" on="1"/>
        <pt x="128" y="992" on="1"/>
        <pt x="1054" y="992" on="1"/>
      </contour>
      <contour>
        <pt x="1054" y="293" on="1"/>
        <pt x="128" y="293" on="1"/>
        <pt x="128" y="553" on="1"/>
        <pt x="1054" y="553" on="1"/>
      </contour>
    </TTGlyph>
    <TTGlyph name="estimated" xMin="146" yMin="-20" xMax="1165" yMax="1102">
      <contour>
        <pt x="1040" y="94" on="1"/>
        <pt x="953" y="39" on="0"/>
        <pt x="765" y="-20" on="0"/>
        <pt x="670" y="-20" on="1"/>
        <pt x="452" y="-20" on="0"/>
        <pt x="146" y="309" on="0"/>
        <pt x="146" y="541" on="1"/>
        <pt x="146" y="767" on="0"/>
        <pt x="469" y="1102" on="0"/>
        <pt x="670" y="1102" on="1"/>
        <pt x="877" y="1102" on="0"/>
        <pt x="1165" y="792" on="0"/>
        <pt x="1165" y="561" on="1"/>
        <pt x="1165" y="514" on="1"/>
        <pt x="397" y="514" on="1"/>
        <pt x="397" y="186" on="1"/>
        <pt x="452" y="133" on="0"/>
        <pt x="593" y="76" on="0"/>
        <pt x="670" y="76" on="1"/>
        <pt x="765" y="76" on="0"/>
        <pt x="951" y="136" on="0"/>
        <pt x="1038" y="198" on="1"/>
      </contour>
      <contour>
        <pt x="670" y="1008" on="1"/>
        <pt x="596" y="1008" on="0"/>
        <pt x="455" y="943" on="0"/>
        <pt x="397" y="886" on="1"/>
        <pt x="397" y="609" on="1"/>
        <pt x="937" y="609" on="1"/>
        <pt x="937" y="895" on="1"/>
        <pt x="883" y="947" on="0"/>
        <pt x="744" y="1008" on="0"/>
      </contour>
    </TTGlyph>
    <TTGlyph name="eta" xMin="90" yMin="-416" xMax="1064" yMax="1102">
      <contour>
        <pt x="407" y="1082" on="1"/>
        <pt x="420" y="928" on="1"/>
        <pt x="474" y="1010" on="0"/>
        <pt x="631" y="1102" on="0"/>
        <pt x="726" y="1102" on="1"/>
        <pt x="885" y="1102" on="0"/>
        <pt x="1064" y="886" on="0"/>
        <pt x="1064" y="651" on="1"/>
        <pt x="1064" y="-416" on="1"/>
        <pt x="726" y="-416" on="1"/>
        <pt x="726" y="652" on="1"/>
        <pt x="726" y="755" on="0"/>
        <pt x="660" y="842" on="0"/>
        <pt x="597" y="842" on="1"/>
        <pt x="542" y="842" on="0"/>
        <pt x="457" y="803" on="0"/>
        <pt x="427" y="768" on="1"/>
        <pt x="427" y="0" on="1"/>
        <pt x="90" y="0" on="1"/>
        <pt x="90" y="1082" on="1"/>
      </contour>
    </TTGlyph>
    <TTGlyph name="etatonos" xMin="90" yMin="-416" xMax="1064" yMax="1539">
      <component glyphName="eta" x="0" y="0" flags="0x204"/>
      <component glyphName="tonos" x="175" y="-79" flags="0x4"/>
    </TTGlyph>
    <TTGlyph name="eth" xMin="37" yMin="-21" xMax="1168" yMax="1517">
      <contour>
        <pt x="934" y="1280" on="1"/>
        <pt x="1045" y="1166" on="0"/>
        <pt x="1168" y="859" on="0"/>
        <pt x="1168" y="676" on="1"/>
        <pt x="1168" y="613" on="1"/>
        <pt x="1168" y="334" on="0"/>
        <pt x="841" y="-21" on="0"/>
        <pt x="596" y="-21" on="1"/>
        <pt x="348" y="-21" on="0"/>
        <pt x="37" y="260" on="0"/>
        <pt x="37" y="468" on="1"/>
        <pt x="37" y="694" on="0"/>
        <pt x="301" y="961" on="0"/>
        <pt x="541" y="961" on="1"/>
        <pt x="614" y="961" on="0"/>
        <pt x="743" y="923" on="0"/>
        <pt x="792" y="889" on="1"/>
        <pt x="796" y="894" on="1"/>
        <pt x="776" y="961" on="0"/>
        <pt x="701" y="1078" on="0"/>
        <pt x="651" y="1126" on="1"/>
        <pt x="438" y="1010" on="1"/>
        <pt x="360" y="1128" on="1"/>
        <pt x="517" y="1213" on="1"/>
        <pt x="517" y="1219" on="1"/>
        <pt x="487" y="1234" on="0"/>
        <pt x="419" y="1262" on="0"/>
        <pt x="384" y="1273" on="1"/>
        <pt x="491" y="1517" on="1"/>
        <pt x="581" y="1497" on="0"/>
        <pt x="746" y="1426" on="0"/>
        <pt x="818" y="1377" on="1"/>
        <pt x="1014" y="1484" on="1"/>
        <pt x="1091" y="1366" on="1"/>
      </contour>
      <contour>
        <pt x="600" y="239" on="1"/>
        <pt x="708" y="239" on="0"/>
        <pt x="830" y="448" on="0"/>
        <pt x="830" y="613" on="1"/>
        <pt x="830" y="648" on="1"/>
        <pt x="797" y="679" on="0"/>
        <pt x="684" y="720" on="0"/>
        <pt x="610" y="720" on="1"/>
        <pt x="492" y="720" on="0"/>
        <pt x="374" y="587" on="0"/>
        <pt x="374" y="468" on="1"/>
        <pt x="374" y="367" on="0"/>
        <pt x="497" y="239" on="0"/>
      </contour>
    </TTGlyph>
    <TTGlyph name="exclam" xMin="115" yMin="0" xMax="454" yMax="1456">
      <contour>
        <pt x="454" y="516" on="1"/>
        <pt x="115" y="516" on="1"/>
        <pt x="115" y="1456" on="1"/>
        <pt x="454" y="1456" on="1"/>
      </contour>
      <contour>
        <pt x="454" y="0" on="1"/>
        <pt x="115" y="0" on="1"/>
        <pt x="115" y="283" on="1"/>
        <pt x="454" y="283" on="1"/>
      </contour>
    </TTGlyph>
    <TTGlyph name="exclamdbl" xMin="115" yMin="0" xMax="1019" yMax="1456">
      <component glyphName="exclam" x="0" y="0" flags="0x4"/>
      <component glyphName="exclam" x="565" y="0" flags="0x4"/>
    </TTGlyph>
    <TTGlyph name="exclamdown" xMin="141" yMin="-374" xMax="480" yMax="1082">
      <contour>
        <pt x="480" y="-374" on="1"/>
        <pt x="141" y="-374" on="1"/>
        <pt x="141" y="566" on="1"/>
        <pt x="480" y="566" on="1"/>
      </contour>
      <contour>
        <pt x="480" y="799" on="1"/>
        <pt x="141" y="799" on="1"/>
        <pt x="141" y="1082" on="1"/>
        <pt x="480" y="1082" on="1"/>
      </contour>
    </TTGlyph>
    <TTGlyph name="f" xMin="12" yMin="0" xMax="764" yMax="1581">
      <contour>
        <pt x="168" y="0" on="1"/>
        <pt x="168" y="848" on="1"/>
        <pt x="12" y="848" on="1"/>
        <pt x="12" y="1082" on="1"/>
        <pt x="168" y="1082" on="1"/>
        <pt x="168" y="1194" on="1"/>
        <pt x="168" y="1381" on="0"/>
        <pt x="392" y="1581" on="0"/>
        <pt x="597" y="1581" on="1"/>
        <pt x="635" y="1581" on="0"/>
        <pt x="715" y="1570" on="0"/>
        <pt x="764" y="1560" on="1"/>
        <pt x="739" y="1311" on="1"/>
        <pt x="712" y="1316" on="0"/>
        <pt x="669" y="1321" on="0"/>
        <pt x="638" y="1321" on="1"/>
        <pt x="575" y="1321" on="0"/>
        <pt x="507" y="1255" on="0"/>
        <pt x="507" y="1194" on="1"/>
        <pt x="507" y="1082" on="1"/>
        <pt x="717" y="1082" on="1"/>
        <pt x="717" y="848" on="1"/>
        <pt x="507" y="848" on="1"/>
        <pt x="507" y="0" on="1"/>
      </contour>
    </TTGlyph>
    <TTGlyph name="fi" xMin="16" yMin="0" xMax="1191" yMax="1581">
      <contour>
        <pt x="173" y="0" on="1"/>
        <pt x="173" y="848" on="1"/>
        <pt x="16" y="848" on="1"/>
        <pt x="16" y="1082" on="1"/>
        <pt x="173" y="1082" on="1"/>
        <pt x="173" y="1134" on="1"/>
        <pt x="173" y="1350" on="0"/>
        <pt x="439" y="1581" on="0"/>
        <pt x="684" y="1581" on="1"/>
        <pt x="768" y="1581" on="0"/>
        <pt x="934" y="1551" on="0"/>
        <pt x="1036" y="1523" on="1"/>
        <pt x="990" y="1257" on="1"/>
        <pt x="904" y="1279" on="0"/>
        <pt x="789" y="1301" on="0"/>
        <pt x="704" y="1301" on="1"/>
        <pt x="611" y="1301" on="0"/>
        <pt x="511" y="1214" on="0"/>
        <pt x="511" y="1134" on="1"/>
        <pt x="511" y="1082" on="1"/>
        <pt x="723" y="1082" on="1"/>
        <pt x="723" y="848" on="1"/>
        <pt x="511" y="848" on="1"/>
        <pt x="511" y="0" on="1"/>
      </contour>
      <contour>
        <pt x="1191" y="0" on="1"/>
        <pt x="852" y="0" on="1"/>
        <pt x="852" y="1082" on="1"/>
        <pt x="1191" y="1082" on="1"/>
      </contour>
    </TTGlyph>
    <TTGlyph name="five" xMin="82" yMin="-21" xMax="1102" yMax="1456">
      <contour>
        <pt x="116" y="640" on="1"/>
        <pt x="200" y="1456" on="1"/>
        <pt x="1054" y="1456" on="1"/>
        <pt x="1054" y="1194" on="1"/>
        <pt x="475" y="1194" on="1"/>
        <pt x="438" y="891" on="1"/>
        <pt x="476" y="920" on="0"/>
        <pt x="590" y="956" on="0"/>
        <pt x="658" y="958" on="1"/>
        <pt x="872" y="962" on="0"/>
        <pt x="1102" y="705" on="0"/>
        <pt x="1102" y="469" on="1"/>
        <pt x="1102" y="264" on="0"/>
        <pt x="840" y="-21" on="0"/>
        <pt x="596" y="-21" on="1"/>
        <pt x="388" y="-21" on="0"/>
        <pt x="82" y="209" on="0"/>
        <pt x="87" y="398" on="1"/>
        <pt x="89" y="404" on="1"/>
        <pt x="419" y="424" on="1"/>
        <pt x="419" y="337" on="0"/>
        <pt x="516" y="239" on="0"/>
        <pt x="596" y="239" on="1"/>
        <pt x="688" y="239" on="0"/>
        <pt x="765" y="368" on="0"/>
        <pt x="765" y="467" on="1"/>
        <pt x="765" y="587" on="0"/>
        <pt x="679" y="725" on="0"/>
        <pt x="586" y="725" on="1"/>
        <pt x="518" y="725" on="0"/>
        <pt x="435" y="667" on="0"/>
        <pt x="419" y="623" on="1"/>
      </contour>
    </TTGlyph>
    <TTGlyph name="five.lnum" xMin="82" yMin="-21" xMax="1102" yMax="1456">
      <contour>
        <pt x="116" y="640" on="1"/>
        <pt x="200" y="1456" on="1"/>
        <pt x="1054" y="1456" on="1"/>
        <pt x="1054" y="1194" on="1"/>
        <pt x="475" y="1194" on="1"/>
        <pt x="438" y="891" on="1"/>
        <pt x="475" y="920" on="0"/>
        <pt x="590" y="956" on="0"/>
        <pt x="658" y="958" on="1"/>
        <pt x="872" y="962" on="0"/>
        <pt x="1102" y="705" on="0"/>
        <pt x="1102" y="469" on="1"/>
        <pt x="1102" y="264" on="0"/>
        <pt x="840" y="-21" on="0"/>
        <pt x="596" y="-21" on="1"/>
        <pt x="389" y="-21" on="0"/>
        <pt x="82" y="209" on="0"/>
        <pt x="87" y="398" on="1"/>
        <pt x="89" y="404" on="1"/>
        <pt x="420" y="424" on="1"/>
        <pt x="420" y="337" on="0"/>
        <pt x="516" y="239" on="0"/>
        <pt x="596" y="239" on="1"/>
        <pt x="688" y="239" on="0"/>
        <pt x="765" y="368" on="0"/>
        <pt x="765" y="467" on="1"/>
        <pt x="765" y="587" on="0"/>
        <pt x="679" y="725" on="0"/>
        <pt x="586" y="725" on="1"/>
        <pt x="519" y="725" on="0"/>
        <pt x="436" y="667" on="0"/>
        <pt x="420" y="623" on="1"/>
      </contour>
    </TTGlyph>
    <TTGlyph name="five.smcp" xMin="55" yMin="-17" xMax="1041" yMax="1165">
      <contour>
        <pt x="100" y="504" on="1"/>
        <pt x="171" y="1165" on="1"/>
        <pt x="960" y="1165" on="1"/>
        <pt x="960" y="915" on="1"/>
        <pt x="472" y="915" on="1"/>
        <pt x="450" y="705" on="1"/>
        <pt x="490" y="724" on="0"/>
        <pt x="584" y="748" on="0"/>
        <pt x="651" y="749" on="1"/>
        <pt x="832" y="751" on="0"/>
        <pt x="1041" y="549" on="0"/>
        <pt x="1041" y="371" on="1"/>
        <pt x="1041" y="193" on="0"/>
        <pt x="801" y="-17" on="0"/>
        <pt x="556" y="-17" on="1"/>
        <pt x="343" y="-17" on="0"/>
        <pt x="55" y="153" on="0"/>
        <pt x="61" y="319" on="1"/>
        <pt x="62" y="324" on="1"/>
        <pt x="390" y="341" on="1"/>
        <pt x="390" y="294" on="0"/>
        <pt x="480" y="241" on="0"/>
        <pt x="556" y="241" on="1"/>
        <pt x="629" y="241" on="0"/>
        <pt x="704" y="324" on="0"/>
        <pt x="704" y="394" on="1"/>
        <pt x="704" y="460" on="0"/>
        <pt x="620" y="541" on="0"/>
        <pt x="549" y="541" on="1"/>
        <pt x="497" y="541" on="0"/>
        <pt x="423" y="508" on="0"/>
        <pt x="408" y="491" on="1"/>
      </contour>
    </TTGlyph>
</ttFont>
